<?xml version="1.0" encoding="UTF-8"?>
<!DOCTYPE svg PUBLIC "-//W3C//DTD SVG 1.1//EN" "http://www.w3.org/Graphics/SVG/1.1/DTD/svg11.dtd">
<svg xmlns="http://www.w3.org/2000/svg" version="1.1" width="800px" height="1144px" style="shape-rendering:geometricPrecision; text-rendering:geometricPrecision; image-rendering:optimizeQuality; fill-rule:evenodd; clip-rule:evenodd" xmlns:xlink="http://www.w3.org/1999/xlink">
<g><path style="opacity:0.994" fill="#000000" d="M 283.5,-0.5 C 361.167,-0.5 438.833,-0.5 516.5,-0.5C 547.953,3.67215 569.453,20.6721 581,50.5C 653.856,288.618 726.69,526.618 799.5,764.5C 799.5,766.167 799.5,767.833 799.5,769.5C 721.033,728.344 638.033,700.344 550.5,685.5C 505.576,530.896 459.743,376.562 413,222.5C 406.606,215.366 399.106,213.866 390.5,218C 387.238,220.592 384.738,223.759 383,227.5C 338.532,379.903 293.865,532.237 249,684.5C 161.719,700.427 78.5519,728.427 -0.5,768.5C -0.5,767.167 -0.5,765.833 -0.5,764.5C 72.7271,526.643 145.894,288.643 219,50.5C 230.547,20.6721 252.047,3.67215 283.5,-0.5 Z"/></g>
<g><path style="opacity:0.993" fill="#ff5c00" d="M 212.5,779.5 C 228.357,801.162 249.024,816.662 274.5,826C 327.817,845.374 382.817,853.04 439.5,849C 485.469,846.924 529.136,835.924 570.5,816C 578.435,811.45 585.935,806.284 593,800.5C 611.085,868.322 593.252,924.822 539.5,970C 515.34,986.914 491.007,1003.58 466.5,1020C 440.75,1041.9 429.917,1069.73 434,1103.5C 434.82,1110.27 436.154,1116.94 438,1123.5C 440.436,1129.47 442.436,1135.47 444,1141.5C 395.127,1119.12 367.794,1081.12 362,1027.5C 361.667,1014.5 361.333,1001.5 361,988.5C 358.903,946.051 337.07,928.551 295.5,936C 271.374,945.141 258.208,962.641 256,988.5C 220.945,950.045 203.112,904.545 202.5,852C 202.373,827.3 205.706,803.134 212.5,779.5 Z"/></g>
</svg>
