<?xml version="1.0" encoding="UTF-8"?>
<!DOCTYPE svg PUBLIC "-//W3C//DTD SVG 1.1//EN" "http://www.w3.org/Graphics/SVG/1.1/DTD/svg11.dtd">
<svg xmlns="http://www.w3.org/2000/svg" version="1.1" width="1600px" height="1275px" style="shape-rendering:geometricPrecision; text-rendering:geometricPrecision; image-rendering:optimizeQuality; fill-rule:evenodd; clip-rule:evenodd" xmlns:xlink="http://www.w3.org/1999/xlink">
<g><path style="opacity:0.999" fill="#8b12fc" d="M 314.5,-0.5 C 415.167,-0.5 515.833,-0.5 616.5,-0.5C 431.833,232.5 247.167,465.5 62.5,698.5C 43.0745,687.026 22.0745,680.359 -0.5,678.5C -0.5,650.833 -0.5,623.167 -0.5,595.5C 39.6187,591.694 72.4521,574.36 98,543.5C 120.993,513.514 137.66,480.181 148,443.5C 163.893,386.251 172.893,327.918 175,268.5C 175.799,249.675 176.299,230.841 176.5,212C 175.816,190.167 175.649,168.334 176,146.5C 183.447,82.4264 216.28,36.9264 274.5,10C 287.546,4.9066 300.88,1.4066 314.5,-0.5 Z"/></g>
<g><path style="opacity:1" fill="#8612fb" d="M 616.5,-0.5 C 724.833,-0.5 833.167,-0.5 941.5,-0.5C 873.19,86.1478 804.857,172.814 736.5,259.5C 731.821,259.334 727.155,259.501 722.5,260C 720.981,261.351 719.648,262.851 718.5,264.5C 704.512,265.333 690.512,265.833 676.5,266C 675.257,267.154 674.257,268.488 673.5,270C 655.167,270.333 636.833,270.667 618.5,271C 616.5,273.333 614.5,275.667 612.5,278C 595.081,278.155 578.081,280.821 561.5,286C 542.127,295.059 530.627,310.225 527,331.5C 524.968,350.771 523.968,370.104 524,389.5C 521.333,392.833 518.667,396.167 516,399.5C 515.667,422.833 515.333,446.167 515,469.5C 513.907,471.349 512.574,473.016 511,474.5C 510.667,492.167 510.333,509.833 510,527.5C 507.957,529.208 506.29,531.208 505,533.5C 504.501,539.491 504.334,545.491 504.5,551.5C 394.531,689.646 284.697,827.979 175,966.5C 174.23,967.598 173.397,967.598 172.5,966.5C 168.408,906.205 155.575,847.872 134,791.5C 119.24,753.275 95.4069,722.275 62.5,698.5C 247.167,465.5 431.833,232.5 616.5,-0.5 Z"/></g>
<g><path style="opacity:1" fill="#8111fa" d="M 941.5,-0.5 C 1000.5,-0.5 1059.5,-0.5 1118.5,-0.5C 1048.55,87.9584 978.381,176.292 908,264.5C 900.994,262.414 893.827,260.914 886.5,260C 836.501,259.5 786.501,259.333 736.5,259.5C 804.857,172.814 873.19,86.1478 941.5,-0.5 Z"/></g>
<g><path style="opacity:1" fill="#7e11f8" d="M 1118.5,-0.5 C 1173.83,-0.5 1229.17,-0.5 1284.5,-0.5C 1295.44,1.02143 1306.1,3.6881 1316.5,7.5C 1224.11,123.248 1131.95,239.248 1040,355.5C 1031.04,344.202 1021.04,333.868 1010,324.5C 1008,327.167 1006,329.833 1004,332.5C 993.359,323.012 981.692,315.012 969,308.5C 967.649,310.018 966.149,311.351 964.5,312.5C 941.144,300.91 916.644,292.577 891,287.5C 889.347,287.82 888.347,288.82 888,290.5C 871.36,287.35 854.526,285.517 837.5,285C 792.5,284.333 747.5,284.333 702.5,285C 672.645,286.326 642.645,286.992 612.5,287C 602.801,287.255 593.135,287.922 583.5,289C 573.415,291.876 563.415,294.376 553.5,296.5C 553.5,298.167 553.5,299.833 553.5,301.5C 545.869,308.322 540.369,316.655 537,326.5C 534.798,335.711 533.465,345.044 533,354.5C 532.667,402.833 532.333,451.167 532,499.5C 531.333,500.167 530.667,500.833 530,501.5C 529.667,581.833 529.333,662.167 529,742.5C 528.333,743.167 527.667,743.833 527,744.5C 526.5,784.832 526.333,825.165 526.5,865.5C 524.53,867.647 522.697,869.98 521,872.5C 520.173,895.073 520.34,917.573 521.5,940C 518.333,943.833 515.167,947.667 512,951.5C 511.775,969.71 516.275,986.543 525.5,1002C 454.364,1092.96 382.697,1183.46 310.5,1273.5C 251.333,1262.99 210.333,1229.99 187.5,1174.5C 190.084,1170.07 192.918,1165.73 196,1161.5C 298.333,1032.83 400.667,904.167 503,775.5C 504.494,700.916 504.994,626.249 504.5,551.5C 504.334,545.491 504.501,539.491 505,533.5C 506.29,531.208 507.957,529.208 510,527.5C 510.333,509.833 510.667,492.167 511,474.5C 512.574,473.016 513.907,471.349 515,469.5C 515.333,446.167 515.667,422.833 516,399.5C 518.667,396.167 521.333,392.833 524,389.5C 523.968,370.104 524.968,350.771 527,331.5C 530.627,310.225 542.127,295.059 561.5,286C 578.081,280.821 595.081,278.155 612.5,278C 614.5,275.667 616.5,273.333 618.5,271C 636.833,270.667 655.167,270.333 673.5,270C 674.257,268.488 675.257,267.154 676.5,266C 690.512,265.833 704.512,265.333 718.5,264.5C 719.648,262.851 720.981,261.351 722.5,260C 727.155,259.501 731.821,259.334 736.5,259.5C 786.501,259.333 836.501,259.5 886.5,260C 893.827,260.914 900.994,262.414 908,264.5C 978.381,176.292 1048.55,87.9584 1118.5,-0.5 Z"/></g>
<g><path style="opacity:0.999" fill="#7911f7" d="M 1316.5,7.5 C 1363.72,24.8885 1396.22,57.2218 1414,104.5C 1418.74,117.784 1421.74,131.451 1423,145.5C 1423.5,168.002 1423.33,190.502 1422.5,213C 1423.01,235.841 1423.67,258.674 1424.5,281.5C 1313.52,420.814 1202.52,560.148 1091.5,699.5C 1084.7,686.541 1076.54,674.541 1067,663.5C 1064.6,665.729 1062.43,668.063 1060.5,670.5C 1051.16,660.161 1041.16,650.494 1030.5,641.5C 1024.02,636.847 1019.18,630.847 1016,623.5C 1015.05,617.329 1016.39,611.662 1020,606.5C 1027.08,597.344 1033.91,588.011 1040.5,578.5C 1040.33,578.167 1040.17,577.833 1040,577.5C 1031.67,587.833 1023.33,598.167 1015,608.5C 1014.83,608.167 1014.67,607.833 1014.5,607.5C 1025.64,593.522 1035.81,578.856 1045,563.5C 1074.44,503.022 1073.44,443.022 1042,383.5C 1036.74,374.637 1030.74,366.304 1024,358.5C 1023.28,359.451 1022.45,359.617 1021.5,359C 1004.97,340.29 985.972,324.79 964.5,312.5C 966.149,311.351 967.649,310.018 969,308.5C 981.692,315.012 993.359,323.012 1004,332.5C 1006,329.833 1008,327.167 1010,324.5C 1021.04,333.868 1031.04,344.202 1040,355.5C 1131.95,239.248 1224.11,123.248 1316.5,7.5 Z"/></g>
<g><path style="opacity:1" fill="#7310f5" d="M 1424.5,281.5 C 1427.46,342.942 1438.3,402.942 1457,461.5C 1467.08,492.012 1482.08,519.679 1502,544.5C 1508.4,552.401 1515.57,559.401 1523.5,565.5C 1336.17,801.833 1148.83,1038.17 961.5,1274.5C 853.167,1274.5 744.833,1274.5 636.5,1274.5C 699.929,1193.89 763.596,1113.39 827.5,1033C 809.5,1032.67 791.5,1032.33 773.5,1032C 776.293,1028.89 778.96,1025.73 781.5,1022.5C 813.551,1022.82 845.551,1022.32 877.5,1021C 876.743,1022.51 875.743,1023.85 874.5,1025C 936.503,1021.12 991.503,999.787 1039.5,961C 1094.17,907.662 1116.67,842.829 1107,766.5C 1105.79,757.309 1103.79,748.309 1101,739.5C 1100,740.833 1099,742.167 1098,743.5C 1090.21,716.582 1077.71,692.248 1060.5,670.5C 1062.43,668.063 1064.6,665.729 1067,663.5C 1076.54,674.541 1084.7,686.541 1091.5,699.5C 1202.52,560.148 1313.52,420.814 1424.5,281.5 Z"/></g>
<g><path style="opacity:1" fill="#7c15f1" d="M 964.5,312.5 C 985.972,324.79 1004.97,340.29 1021.5,359C 1022.45,359.617 1023.28,359.451 1024,358.5C 1030.74,366.304 1036.74,374.637 1042,383.5C 1073.44,443.022 1074.44,503.022 1045,563.5C 1035.81,578.856 1025.64,593.522 1014.5,607.5C 1014.67,607.833 1014.83,608.167 1015,608.5C 1023.33,598.167 1031.67,587.833 1040,577.5C 1040.17,577.833 1040.33,578.167 1040.5,578.5C 1033.91,588.011 1027.08,597.344 1020,606.5C 1016.39,611.662 1015.05,617.329 1016,623.5C 1019.18,630.847 1024.02,636.847 1030.5,641.5C 1028.5,642.673 1027,644.34 1026,646.5C 1019.67,641.5 1014,635.833 1009,629.5C 1005.5,622.336 1005.83,615.336 1010,608.5C 1023.96,592.202 1035.96,574.535 1046,555.5C 1046.67,554.5 1046.67,553.5 1046,552.5C 1042.5,557.796 1038.66,562.129 1034.5,565.5C 1051.43,535.764 1059.27,503.764 1058,469.5C 1056.29,470.878 1054.95,472.545 1054,474.5C 1053.69,455.288 1050.35,436.621 1044,418.5C 1043.62,419.056 1043.12,419.389 1042.5,419.5C 1036.07,401.26 1026.9,384.593 1015,369.5C 1014.28,370.451 1013.45,370.617 1012.5,370C 1001.39,356.549 988.72,344.882 974.5,335C 973.552,334.517 972.552,334.351 971.5,334.5C 936.542,312.126 898.209,299.626 856.5,297C 755.501,296.5 654.501,296.333 553.5,296.5C 563.415,294.376 573.415,291.876 583.5,289C 593.135,287.922 602.801,287.255 612.5,287C 642.645,286.992 672.645,286.326 702.5,285C 747.5,284.333 792.5,284.333 837.5,285C 854.526,285.517 871.36,287.35 888,290.5C 888.347,288.82 889.347,287.82 891,287.5C 916.644,292.577 941.144,300.91 964.5,312.5 Z"/></g>
<g><path style="opacity:1" fill="#fcfafe" d="M 553.5,296.5 C 654.501,296.333 755.501,296.5 856.5,297C 898.209,299.626 936.542,312.126 971.5,334.5C 1008.79,361.719 1030.79,398.385 1037.5,444.5C 1043.01,508.964 1019.35,559.464 966.5,596C 950.315,605.674 932.982,612.508 914.5,616.5C 935.89,619.68 956.557,625.347 976.5,633.5C 1029.39,658.405 1060.73,699.739 1070.5,757.5C 1079.08,869.421 1029.08,939.588 920.5,968C 903.328,971.647 885.994,974.313 868.5,976C 766.178,977.456 663.845,977.956 561.5,977.5C 558.833,977.5 556.167,977.5 553.5,977.5C 553.5,759.167 553.5,540.833 553.5,322.5C 553.5,315.5 553.5,308.5 553.5,301.5C 553.5,299.833 553.5,298.167 553.5,296.5 Z"/></g>
<g><path style="opacity:1" fill="#faf6fe" d="M 1025.5,409.5 C 993.893,427.306 962.56,445.639 931.5,464.5C 930.548,466.045 930.215,467.712 930.5,469.5C 925.634,430.46 904.634,404.293 867.5,391C 843.714,383.84 819.381,380.507 794.5,381C 834.083,357.626 873.583,334.126 913,310.5C 950.785,321.21 981.785,341.876 1006,372.5C 1014.07,383.97 1020.57,396.304 1025.5,409.5 Z"/></g>
<g><path style="opacity:1" fill="#7310f0" d="M 1030.5,641.5 C 1041.16,650.494 1051.16,660.161 1060.5,670.5C 1077.71,692.248 1090.21,716.582 1098,743.5C 1099,742.167 1100,740.833 1101,739.5C 1103.79,748.309 1105.79,757.309 1107,766.5C 1116.67,842.829 1094.17,907.662 1039.5,961C 991.503,999.787 936.503,1021.12 874.5,1025C 875.743,1023.85 876.743,1022.51 877.5,1021C 845.551,1022.32 813.551,1022.82 781.5,1022.5C 763.5,1022.5 745.5,1022.5 727.5,1022.5C 729.002,1020.83 730.335,1018.99 731.5,1017C 713.824,1016.83 696.157,1016.33 678.5,1015.5C 679.313,1014.19 680.313,1013.02 681.5,1012C 663.5,1011.67 645.5,1011.33 627.5,1011C 628.687,1009.98 629.687,1008.81 630.5,1007.5C 616.155,1006.8 601.822,1005.96 587.5,1005C 584.711,1004.76 582.044,1004.09 579.5,1003C 580.056,1002.62 580.389,1002.12 580.5,1001.5C 586.768,1002.73 593.101,1003.56 599.5,1004C 633.167,1004.33 666.833,1004.67 700.5,1005C 700.167,1005.33 699.833,1005.67 699.5,1006C 750.833,1006.67 802.167,1006.67 853.5,1006C 902.992,1006.63 949.659,994.96 993.5,971C 1057.29,931.625 1089.62,874.125 1090.5,798.5C 1090.43,784.989 1088.93,771.656 1086,758.5C 1078.87,729.898 1065.87,703.564 1047,679.5C 1032.87,664.709 1017.7,651.209 1001.5,639C 999.548,636.926 997.715,634.759 996,632.5C 995.333,633.167 994.667,633.833 994,634.5C 988.06,625.901 988.06,617.234 994,608.5C 1001.29,598.876 1008.96,589.542 1017,580.5C 1052.29,531.207 1060.79,477.54 1042.5,419.5C 1043.12,419.389 1043.62,419.056 1044,418.5C 1050.35,436.621 1053.69,455.288 1054,474.5C 1054.95,472.545 1056.29,470.878 1058,469.5C 1059.27,503.764 1051.43,535.764 1034.5,565.5C 1038.66,562.129 1042.5,557.796 1046,552.5C 1046.67,553.5 1046.67,554.5 1046,555.5C 1035.96,574.535 1023.96,592.202 1010,608.5C 1005.83,615.336 1005.5,622.336 1009,629.5C 1014,635.833 1019.67,641.5 1026,646.5C 1027,644.34 1028.5,642.673 1030.5,641.5 Z"/></g>
<g><path style="opacity:0.999" fill="#8111fa" d="M 504.5,551.5 C 504.994,626.249 504.494,700.916 503,775.5C 400.667,904.167 298.333,1032.83 196,1161.5C 192.918,1165.73 190.084,1170.07 187.5,1174.5C 181.333,1159.53 177.5,1143.86 176,1127.5C 177.469,1073.77 176.302,1020.11 172.5,966.5C 173.397,967.598 174.23,967.598 175,966.5C 284.697,827.979 394.531,689.646 504.5,551.5 Z"/></g>
<g><path style="opacity:0.999" fill="#6e10f4" d="M 1523.5,565.5 C 1545.7,583.128 1571.03,593.128 1599.5,595.5C 1599.5,623.167 1599.5,650.833 1599.5,678.5C 1559.38,682.306 1526.55,699.64 1501,730.5C 1476.63,762.555 1459.29,798.221 1449,837.5C 1434.29,893.213 1425.95,949.879 1424,1007.5C 1423.35,1025.33 1422.85,1043.16 1422.5,1061C 1423.33,1083.5 1423.5,1106 1423,1128.5C 1416.92,1182.2 1391.42,1223.7 1346.5,1253C 1327.22,1264.48 1306.55,1271.65 1284.5,1274.5C 1176.83,1274.5 1069.17,1274.5 961.5,1274.5C 1148.83,1038.17 1336.17,801.833 1523.5,565.5 Z"/></g>
<g><path style="opacity:1" fill="#7b11f0" d="M 553.5,301.5 C 553.5,308.5 553.5,315.5 553.5,322.5C 548.036,332.685 545.203,343.685 545,355.5C 543.357,479.497 542.024,603.497 541,727.5C 540.333,795.167 540.333,862.833 541,930.5C 541.333,937.167 541.667,943.833 542,950.5C 542.282,954.488 543.115,958.321 544.5,962C 543.57,963.194 542.903,964.527 542.5,966C 547.916,985.582 560.582,997.415 580.5,1001.5C 580.389,1002.12 580.056,1002.62 579.5,1003C 582.044,1004.09 584.711,1004.76 587.5,1005C 601.822,1005.96 616.155,1006.8 630.5,1007.5C 629.687,1008.81 628.687,1009.98 627.5,1011C 645.5,1011.33 663.5,1011.67 681.5,1012C 680.313,1013.02 679.313,1014.19 678.5,1015.5C 696.157,1016.33 713.824,1016.83 731.5,1017C 730.335,1018.99 729.002,1020.83 727.5,1022.5C 713.829,1022.67 700.163,1022.5 686.5,1022C 687.167,1021.33 687.833,1020.67 688.5,1020C 655.153,1019.85 621.819,1019.19 588.5,1018C 561.41,1016.81 542.077,1004.14 530.5,980C 531.573,978.687 532.24,977.187 532.5,975.5C 528.943,962.434 527.11,949.1 527,935.5C 526.5,912.169 526.333,888.836 526.5,865.5C 526.333,825.165 526.5,784.832 527,744.5C 527.667,743.833 528.333,743.167 529,742.5C 529.333,662.167 529.667,581.833 530,501.5C 530.667,500.833 531.333,500.167 532,499.5C 532.333,451.167 532.667,402.833 533,354.5C 533.465,345.044 534.798,335.711 537,326.5C 540.369,316.655 545.869,308.322 553.5,301.5 Z"/></g>
<g><path style="opacity:1" fill="#7410ea" d="M 553.5,322.5 C 553.5,540.833 553.5,759.167 553.5,977.5C 556.167,977.5 558.833,977.5 561.5,977.5C 564.884,981.369 568.884,984.536 573.5,987C 581.182,990.254 589.182,992.254 597.5,993C 673.822,994.603 750.156,994.936 826.5,994C 852.262,994.275 877.762,992.109 903,987.5C 947.685,982.26 987.185,964.427 1021.5,934C 1064.29,890.295 1082.46,837.795 1076,776.5C 1073.95,770.109 1072.12,763.776 1070.5,757.5C 1060.73,699.739 1029.39,658.405 976.5,633.5C 972.354,625.297 972.854,617.297 978,609.5C 986.254,598.575 995.254,588.242 1005,578.5C 1036.28,538.723 1047.11,494.056 1037.5,444.5C 1030.79,398.385 1008.79,361.719 971.5,334.5C 972.552,334.351 973.552,334.517 974.5,335C 988.72,344.882 1001.39,356.549 1012.5,370C 1013.45,370.617 1014.28,370.451 1015,369.5C 1026.9,384.593 1036.07,401.26 1042.5,419.5C 1060.79,477.54 1052.29,531.207 1017,580.5C 1008.96,589.542 1001.29,598.876 994,608.5C 988.06,617.234 988.06,625.901 994,634.5C 994.667,633.833 995.333,633.167 996,632.5C 997.715,634.759 999.548,636.926 1001.5,639C 1017.7,651.209 1032.87,664.709 1047,679.5C 1065.87,703.564 1078.87,729.898 1086,758.5C 1088.93,771.656 1090.43,784.989 1090.5,798.5C 1089.62,874.125 1057.29,931.625 993.5,971C 949.659,994.96 902.992,1006.63 853.5,1006C 802.167,1006.67 750.833,1006.67 699.5,1006C 699.833,1005.67 700.167,1005.33 700.5,1005C 666.833,1004.67 633.167,1004.33 599.5,1004C 593.101,1003.56 586.768,1002.73 580.5,1001.5C 560.582,997.415 547.916,985.582 542.5,966C 542.903,964.527 543.57,963.194 544.5,962C 543.115,958.321 542.282,954.488 542,950.5C 541.667,943.833 541.333,937.167 541,930.5C 540.333,862.833 540.333,795.167 541,727.5C 542.024,603.497 543.357,479.497 545,355.5C 545.203,343.685 548.036,332.685 553.5,322.5 Z"/></g>
<g><path style="opacity:1" fill="#f4ebfd" d="M 661.5,788.5 C 661.5,822.833 661.5,857.167 661.5,891.5C 662.833,891.5 664.167,891.5 665.5,891.5C 629.838,913.334 593.838,934.667 557.5,955.5C 557.5,920.167 557.5,884.833 557.5,849.5C 592.468,829.683 627.135,809.349 661.5,788.5 Z"/></g>
<g><path style="opacity:1" fill="#6e12e3" d="M 1070.5,757.5 C 1072.12,763.776 1073.95,770.109 1076,776.5C 1082.46,837.795 1064.29,890.295 1021.5,934C 987.185,964.427 947.685,982.26 903,987.5C 877.762,992.109 852.262,994.275 826.5,994C 750.156,994.936 673.822,994.603 597.5,993C 589.182,992.254 581.182,990.254 573.5,987C 568.884,984.536 564.884,981.369 561.5,977.5C 663.845,977.956 766.178,977.456 868.5,976C 885.994,974.313 903.328,971.647 920.5,968C 1029.08,939.588 1079.08,869.421 1070.5,757.5 Z"/></g>
<g><path style="opacity:1" fill="#f1e5fc" d="M 1057.5,720.5 C 1073.4,765.418 1073.23,810.418 1057,855.5C 1037.86,899.974 1006.03,931.808 961.5,951C 926.574,965.299 890.24,972.799 852.5,973.5C 777.833,973.667 703.166,973.5 628.5,973C 674.23,945.807 719.897,918.641 765.5,891.5C 788.169,891.667 810.836,891.5 833.5,891C 862.219,889.796 889.219,882.462 914.5,869C 947.81,847.013 963.81,815.846 962.5,775.5C 993.747,756.379 1025.41,738.045 1057.5,720.5 Z"/></g>
<g><path style="opacity:1" fill="#fbf8fe" d="M 865.5,670.5 C 895.848,675.419 921.348,689.086 942,711.5C 955.917,730.481 962.75,751.814 962.5,775.5C 963.81,815.846 947.81,847.013 914.5,869C 889.219,882.462 862.219,889.796 833.5,891C 810.836,891.5 788.169,891.667 765.5,891.5C 732.167,891.5 698.833,891.5 665.5,891.5C 664.167,891.5 662.833,891.5 661.5,891.5C 661.5,857.167 661.5,822.833 661.5,788.5C 661.5,747.5 661.5,706.5 661.5,665.5C 718.834,665.333 776.168,665.5 833.5,666C 844.273,666.846 854.94,668.346 865.5,670.5 Z"/></g>
<g><path style="opacity:1" fill="#7410ea" d="M 904.5,870.5 C 881.051,881.195 856.384,886.861 830.5,887.5C 782.833,887.5 735.167,887.5 687.5,887.5C 677.404,879.783 671.904,869.45 671,856.5C 669.872,839.522 669.206,822.522 669,805.5C 668.667,805.833 668.333,806.167 668,806.5C 667.14,779.481 667.473,752.481 669,725.5C 672.322,697.519 688.156,683.685 716.5,684C 748.599,684.483 781.266,685.15 814.5,686C 841.399,686.482 867.399,691.482 892.5,701C 927.221,715.668 946.388,741.501 950,778.5C 951.051,789.959 950.384,801.292 948,812.5C 947.047,814.455 945.713,816.122 944,817.5C 937.172,838.984 924.339,855.818 905.5,868C 904.748,868.671 904.414,869.504 904.5,870.5 Z"/></g>
<g><path style="opacity:1" fill="#7610f0" d="M 724.5,693.5 C 756.362,694.902 789.028,696.069 822.5,697C 850.033,697.838 876.033,704.505 900.5,717C 906.449,720.56 911.949,724.726 917,729.5C 918.471,733.653 920.804,737.32 924,740.5C 945.229,775.265 944.563,809.598 922,843.5C 903.696,863.071 881.196,874.905 854.5,879C 835.607,881.771 816.607,883.104 797.5,883C 796.833,883.667 796.167,884.333 795.5,885C 768.476,885.906 741.476,885.572 714.5,884C 692.819,880.981 681.652,868.481 681,846.5C 680.81,817.686 679.976,789.686 678.5,762.5C 678.411,750.131 678.911,737.798 680,725.5C 682.434,711.412 690.267,701.912 703.5,697C 710.581,695.443 717.581,694.276 724.5,693.5 Z"/></g>
<g><path style="opacity:1" fill="#7212e4" d="M 665.5,668.5 C 724.181,668.071 782.847,668.571 841.5,670C 866.858,672.34 890.858,679.34 913.5,691C 940.711,707.9 955.878,732.4 959,764.5C 961.486,790.129 956.486,814.129 944,836.5C 933.766,851.234 920.599,862.567 904.5,870.5C 904.414,869.504 904.748,868.671 905.5,868C 924.339,855.818 937.172,838.984 944,817.5C 945.713,816.122 947.047,814.455 948,812.5C 950.384,801.292 951.051,789.959 950,778.5C 946.388,741.501 927.221,715.668 892.5,701C 867.399,691.482 841.399,686.482 814.5,686C 781.266,685.15 748.599,684.483 716.5,684C 688.156,683.685 672.322,697.519 669,725.5C 667.473,752.481 667.14,779.481 668,806.5C 668.333,806.167 668.667,805.833 669,805.5C 669.206,822.522 669.872,839.522 671,856.5C 671.904,869.45 677.404,879.783 687.5,887.5C 680.167,887.5 672.833,887.5 665.5,887.5C 665.5,814.5 665.5,741.5 665.5,668.5 Z"/></g>
<g><path style="opacity:1" fill="#7a11f6" d="M 725.5,707.5 C 732.508,707.334 739.508,707.5 746.5,708C 745.833,708.667 745.167,709.333 744.5,710C 775.207,709.959 805.874,710.959 836.5,713C 856.234,714.69 874.901,720.024 892.5,729C 897.956,732.787 903.123,736.954 908,741.5C 908.507,742.996 908.007,744.163 906.5,745C 926.761,771.886 928.594,800.052 912,829.5C 896.373,848.57 876.206,859.737 851.5,863C 837.548,864.94 823.548,866.44 809.5,867.5C 809.023,868.478 808.357,869.311 807.5,870C 779.833,870.667 752.167,870.667 724.5,870C 708.268,869.344 698.768,861.177 696,845.5C 694.762,821.526 694.096,797.526 694,773.5C 693.667,774.167 693.333,774.833 693,775.5C 692.333,761.833 692.333,748.167 693,734.5C 694.311,723.203 700.144,715.37 710.5,711C 715.596,709.64 720.596,708.474 725.5,707.5 Z"/></g>
<g><path style="opacity:1" fill="#f4eafc" d="M 938.5,624.5 C 994.305,636.651 1033.97,668.651 1057.5,720.5C 1025.41,738.045 993.747,756.379 962.5,775.5C 962.75,751.814 955.917,730.481 942,711.5C 921.348,689.086 895.848,675.419 865.5,670.5C 865.082,669.778 864.416,669.278 863.5,669C 888.893,654.644 913.893,639.811 938.5,624.5 Z"/></g>
<g><path style="opacity:1" fill="#faf6fe" d="M 797.5,587.5 C 772.003,588.332 746.337,588.832 720.5,589C 666.139,621.178 611.806,653.345 557.5,685.5C 557.167,630.496 557.5,575.496 558.5,520.5C 592.584,500.041 626.751,479.707 661,459.5C 661.5,502.165 661.667,544.832 661.5,587.5C 706.833,587.5 752.167,587.5 797.5,587.5 Z"/></g>
<g><path style="opacity:1" fill="#7216e4" d="M 1037.5,444.5 C 1047.11,494.056 1036.28,538.723 1005,578.5C 995.254,588.242 986.254,598.575 978,609.5C 972.854,617.297 972.354,625.297 976.5,633.5C 956.557,625.347 935.89,619.68 914.5,616.5C 932.982,612.508 950.315,605.674 966.5,596C 1019.35,559.464 1043.01,508.964 1037.5,444.5 Z"/></g>
<g><path style="opacity:1" fill="#f7f0fd" d="M 1025.5,409.5 C 1045.92,471.616 1033.92,526.449 989.5,574C 967.608,594.697 941.775,607.863 912,613.5C 911.242,615.769 911.409,617.936 912.5,620C 921.349,620.671 930.015,622.171 938.5,624.5C 913.893,639.811 888.893,654.644 863.5,669C 864.416,669.278 865.082,669.778 865.5,670.5C 854.94,668.346 844.273,666.846 833.5,666C 776.168,665.5 718.834,665.333 661.5,665.5C 661.5,706.5 661.5,747.5 661.5,788.5C 627.135,809.349 592.468,829.683 557.5,849.5C 557.5,794.833 557.5,740.167 557.5,685.5C 611.806,653.345 666.139,621.178 720.5,589C 746.337,588.832 772.003,588.332 797.5,587.5C 828.352,587.704 857.352,580.537 884.5,566C 919.045,543.285 934.379,511.119 930.5,469.5C 930.215,467.712 930.548,466.045 931.5,464.5C 962.56,445.639 993.893,427.306 1025.5,409.5 Z"/></g>
<g><path style="opacity:1" fill="#7811ea" d="M 908.5,540.5 C 893.696,558.088 875.03,569.921 852.5,576C 825.275,582.928 797.609,585.761 769.5,584.5C 793.669,584.314 817.669,581.481 841.5,576C 845.871,574.599 850.204,573.099 854.5,571.5C 855.382,570.24 856.382,569.074 857.5,568C 892.488,552.513 910.322,525.679 911,487.5C 906.229,451.055 886.062,427.888 850.5,418C 841.958,415.692 833.291,414.025 824.5,413C 787.897,409.882 751.23,408.882 714.5,410C 702.005,410.83 691.839,415.997 684,425.5C 680.859,431.116 678.859,437.116 678,443.5C 676.008,479.502 676.008,515.502 678,551.5C 678.317,553.301 678.984,553.634 680,552.5C 682.434,566.588 690.267,576.088 703.5,581C 710.581,582.557 717.581,583.724 724.5,584.5C 710.833,584.5 697.167,584.5 683.5,584.5C 677.304,578.786 673.138,571.786 671,563.5C 669.984,564.634 669.317,564.301 669,562.5C 668.088,558.205 667.421,553.872 667,549.5C 666.333,514.833 666.333,480.167 667,445.5C 667.181,429.642 673.347,416.809 685.5,407C 696.848,401.551 708.848,398.885 721.5,399C 755.871,398.025 790.204,398.692 824.5,401C 845.738,404.314 865.738,411.314 884.5,422C 916.868,446.437 927.702,478.271 917,517.5C 914.648,525.395 911.814,533.061 908.5,540.5 Z"/></g>
<g><path style="opacity:1" fill="#7a11f0" d="M 769.5,584.5 C 754.5,584.5 739.5,584.5 724.5,584.5C 717.581,583.724 710.581,582.557 703.5,581C 690.267,576.088 682.434,566.588 680,552.5C 678.984,553.634 678.317,553.301 678,551.5C 676.008,515.502 676.008,479.502 678,443.5C 678.859,437.116 680.859,431.116 684,425.5C 691.839,415.997 702.005,410.83 714.5,410C 751.23,408.882 787.897,409.882 824.5,413C 833.291,414.025 841.958,415.692 850.5,418C 886.062,427.888 906.229,451.055 911,487.5C 910.322,525.679 892.488,552.513 857.5,568C 856.382,569.074 855.382,570.24 854.5,571.5C 850.204,573.099 845.871,574.599 841.5,576C 817.669,581.481 793.669,584.314 769.5,584.5 Z"/></g>
<g><path style="opacity:1" fill="#7e12f7" d="M 724.5,421.5 C 744.169,421.333 763.836,421.5 783.5,422C 782.833,422.667 782.167,423.333 781.5,424C 796.169,424.971 810.836,425.971 825.5,427C 843.436,428.865 859.769,434.865 874.5,445C 895.552,464.365 902.052,487.865 894,515.5C 885.859,535.641 871.692,549.808 851.5,558C 824.92,566.907 797.586,570.907 769.5,570C 754.833,570.667 740.167,570.667 725.5,570C 704.49,569.323 693.323,558.49 692,537.5C 691.333,538.167 690.667,538.833 690,539.5C 689.333,510.5 689.333,481.5 690,452.5C 692.88,432.449 704.38,422.115 724.5,421.5 Z"/></g>
<g><path style="opacity:1" fill="#7718e4" d="M 908.5,540.5 C 911.814,533.061 914.648,525.395 917,517.5C 927.702,478.271 916.868,446.437 884.5,422C 865.738,411.314 845.738,404.314 824.5,401C 790.204,398.692 755.871,398.025 721.5,399C 708.848,398.885 696.848,401.551 685.5,407C 673.347,416.809 667.181,429.642 667,445.5C 666.333,480.167 666.333,514.833 667,549.5C 667.421,553.872 668.088,558.205 669,562.5C 669.317,564.301 669.984,564.634 671,563.5C 673.138,571.786 677.304,578.786 683.5,584.5C 677.167,584.5 670.833,584.5 664.5,584.5C 664.5,518.167 664.5,451.833 664.5,385.5C 716.834,385.333 769.168,385.5 821.5,386C 849.495,386.656 874.828,394.989 897.5,411C 921.402,433.699 931.236,461.533 927,494.5C 925.016,511.639 918.85,526.973 908.5,540.5 Z"/></g>
<g><path style="opacity:1" fill="#7911f7" d="M 526.5,865.5 C 526.333,888.836 526.5,912.169 527,935.5C 527.11,949.1 528.943,962.434 532.5,975.5C 532.24,977.187 531.573,978.687 530.5,980C 542.077,1004.14 561.41,1016.81 588.5,1018C 621.819,1019.19 655.153,1019.85 688.5,1020C 687.833,1020.67 687.167,1021.33 686.5,1022C 700.163,1022.5 713.829,1022.67 727.5,1022.5C 745.5,1022.5 763.5,1022.5 781.5,1022.5C 778.96,1025.73 776.293,1028.89 773.5,1032C 791.5,1032.33 809.5,1032.67 827.5,1033C 763.596,1113.39 699.929,1193.89 636.5,1274.5C 529.167,1274.5 421.833,1274.5 314.5,1274.5C 313.432,1273.57 312.099,1273.23 310.5,1273.5C 382.697,1183.46 454.364,1092.96 525.5,1002C 516.275,986.543 511.775,969.71 512,951.5C 515.167,947.667 518.333,943.833 521.5,940C 520.34,917.573 520.173,895.073 521,872.5C 522.697,869.98 524.53,867.647 526.5,865.5 Z"/></g>
<g><path style="opacity:1" fill="#9348ee" d="M 665.5,668.5 C 665.5,741.5 665.5,814.5 665.5,887.5C 672.833,887.5 680.167,887.5 687.5,887.5C 735.167,887.5 782.833,887.5 830.5,887.5C 775.336,888.499 720.003,888.832 664.5,888.5C 664.167,814.998 664.501,741.665 665.5,668.5 Z"/></g>
<g><path style="opacity:1" fill="#f2e8fc" d="M 665.5,891.5 C 698.833,891.5 732.167,891.5 765.5,891.5C 719.897,918.641 674.23,945.807 628.5,973C 703.166,973.5 777.833,973.667 852.5,973.5C 754.335,974.499 656.001,974.833 557.5,974.5C 557.5,968.167 557.5,961.833 557.5,955.5C 593.838,934.667 629.838,913.334 665.5,891.5 Z"/></g>
</svg>
