<?xml version="1.0" encoding="UTF-8"?>
<!DOCTYPE svg PUBLIC "-//W3C//DTD SVG 1.1//EN" "http://www.w3.org/Graphics/SVG/1.1/DTD/svg11.dtd">
<svg xmlns="http://www.w3.org/2000/svg" version="1.1" width="75px" height="75px" style="shape-rendering:geometricPrecision; text-rendering:geometricPrecision; image-rendering:optimizeQuality; fill-rule:evenodd; clip-rule:evenodd" xmlns:xlink="http://www.w3.org/1999/xlink">
<g><path style="opacity:0.822" fill="#000000" d="M 40.5,8.5 C 46.2038,8.14638 48.0371,10.813 46,16.5C 42.1439,32.5916 37.9772,48.5916 33.5,64.5C 31.6471,65.7596 29.8138,65.7596 28,64.5C 30.8891,45.6046 35.0558,26.9379 40.5,8.5 Z"/></g>
<g><path style="opacity:0.802" fill="#000000" d="M 20.5,20.5 C 24.0089,21.4742 25.1756,23.8075 24,27.5C 20.8333,30.6667 17.6667,33.8333 14.5,37C 17.6667,40.1667 20.8333,43.3333 24,46.5C 25.0263,49.5934 24.193,51.9268 21.5,53.5C 14.9293,49.0975 9.59593,43.5975 5.5,37C 9.60637,30.7251 14.6064,25.2251 20.5,20.5 Z"/></g>
<g><path style="opacity:0.802" fill="#000000" d="M 51.5,20.5 C 57.6947,24.1824 63.1947,28.8491 68,34.5C 68.6667,36.1667 68.6667,37.8333 68,39.5C 63.2813,44.7215 58.1147,49.3882 52.5,53.5C 49.807,51.9268 48.9737,49.5934 50,46.5C 53.1667,43.3333 56.3333,40.1667 59.5,37C 55.1418,33.4942 51.8084,29.3276 49.5,24.5C 49.8029,22.8857 50.4695,21.5523 51.5,20.5 Z"/></g>
</svg>
