<?xml version="1.0" encoding="UTF-8"?>
<!DOCTYPE svg PUBLIC "-//W3C//DTD SVG 1.1//EN" "http://www.w3.org/Graphics/SVG/1.1/DTD/svg11.dtd">
<svg xmlns="http://www.w3.org/2000/svg" version="1.1" width="1413px" height="1625px" style="shape-rendering:geometricPrecision; text-rendering:geometricPrecision; image-rendering:optimizeQuality; fill-rule:evenodd; clip-rule:evenodd" xmlns:xlink="http://www.w3.org/1999/xlink">
<g><path style="opacity:0.999" fill="#0c73b8" d="M -0.5,-0.5 C 469.5,-0.5 939.5,-0.5 1409.5,-0.5C 1367.37,478.217 1324.71,956.883 1281.5,1435.5C 1281.18,1436.65 1280.52,1437.48 1279.5,1438C 1087.3,1492.35 894.963,1546.18 702.5,1599.5C 511.382,1546.14 320.382,1492.3 129.5,1438C 128.333,1437.5 127.5,1436.67 127,1435.5C 84.8167,960.319 42.3167,485.319 -0.5,10.5C -0.5,6.83333 -0.5,3.16667 -0.5,-0.5 Z"/></g>
<g><path style="opacity:1" fill="#2b8cc6" d="M 1280.5,119.5 C 1280.5,118.167 1280.5,116.833 1280.5,115.5C 1089.17,115.5 897.833,115.5 706.5,115.5C 706.5,174.833 706.5,234.167 706.5,293.5C 706.167,293.5 705.833,293.5 705.5,293.5C 557.833,293.5 410.167,293.5 262.5,293.5C 409.999,292.5 557.666,292.167 705.5,292.5C 705.5,233.167 705.5,173.833 705.5,114.5C 897.5,114.5 1089.5,114.5 1281.5,114.5C 1281.78,116.415 1281.45,118.081 1280.5,119.5 Z"/></g>
<g><path style="opacity:1" fill="#30a9dc" d="M 1280.5,119.5 C 1244.24,528.504 1207.91,937.504 1171.5,1346.5C 1017.24,1389.22 862.906,1431.55 708.5,1473.5C 706.504,1413.84 705.837,1353.84 706.5,1293.5C 707.167,1293.5 707.5,1293.17 707.5,1292.5C 826.536,1259.66 945.536,1226.66 1064.5,1193.5C 1092.13,893.526 1119.47,593.526 1146.5,293.5C 999.833,293.5 853.167,293.5 706.5,293.5C 706.5,234.167 706.5,174.833 706.5,115.5C 897.833,115.5 1089.17,115.5 1280.5,115.5C 1280.5,116.833 1280.5,118.167 1280.5,119.5 Z"/></g>
<g><path style="opacity:1" fill="#ebeced" d="M 262.5,293.5 C 410.167,293.5 557.833,293.5 705.5,293.5C 705.5,351.5 705.5,409.5 705.5,467.5C 562.833,467.5 420.167,467.5 277.5,467.5C 272.765,409.476 267.765,351.476 262.5,293.5 Z"/></g>
<g><path style="opacity:1" fill="#fefefe" d="M 706.5,293.5 C 853.167,293.5 999.833,293.5 1146.5,293.5C 1119.47,593.526 1092.13,893.526 1064.5,1193.5C 945.536,1226.66 826.536,1259.66 707.5,1292.5C 706.501,1231.34 706.168,1170 706.5,1108.5C 770.863,1091.05 835.196,1073.38 899.5,1055.5C 907.23,979.537 914.563,903.537 921.5,827.5C 849.833,827.5 778.167,827.5 706.5,827.5C 706.5,768.167 706.5,708.833 706.5,649.5C 783.5,649.5 860.5,649.5 937.5,649.5C 943.62,590.512 949.62,531.512 955.5,472.5C 956.451,471.081 956.784,469.415 956.5,467.5C 873.167,467.5 789.833,467.5 706.5,467.5C 706.5,409.5 706.5,351.5 706.5,293.5 Z"/></g>
<g><path style="opacity:1" fill="#b8d6e7" d="M 705.5,293.5 C 705.833,293.5 706.167,293.5 706.5,293.5C 706.5,351.5 706.5,409.5 706.5,467.5C 789.833,467.5 873.167,467.5 956.5,467.5C 956.784,469.415 956.451,471.081 955.5,472.5C 955.5,471.167 955.5,469.833 955.5,468.5C 872.167,468.5 788.833,468.5 705.5,468.5C 562.666,468.833 419.999,468.5 277.5,467.5C 420.167,467.5 562.833,467.5 705.5,467.5C 705.5,409.5 705.5,351.5 705.5,293.5 Z"/></g>
<g><path style="opacity:1" fill="#30a8db" d="M 705.5,468.5 C 788.833,468.5 872.167,468.5 955.5,468.5C 955.5,469.833 955.5,471.167 955.5,472.5C 949.62,531.512 943.62,590.512 937.5,649.5C 860.5,649.5 783.5,649.5 706.5,649.5C 706.167,649.5 705.833,649.5 705.5,649.5C 705.5,589.167 705.5,528.833 705.5,468.5 Z"/></g>
<g><path style="opacity:1" fill="#ebeced" d="M 705.5,649.5 C 705.833,649.5 706.167,649.5 706.5,649.5C 706.5,708.833 706.5,768.167 706.5,827.5C 573.833,827.5 441.167,827.5 308.5,827.5C 303.973,768.119 298.973,708.786 293.5,649.5C 430.833,649.5 568.167,649.5 705.5,649.5 Z"/></g>
<g><path style="opacity:1" fill="#228ac5" d="M 308.5,827.5 C 441.167,827.5 573.833,827.5 706.5,827.5C 706.5,921.167 706.5,1014.83 706.5,1108.5C 706.167,1108.5 705.833,1108.5 705.5,1108.5C 705.5,1015.17 705.5,921.833 705.5,828.5C 572.999,828.833 440.666,828.5 308.5,827.5 Z"/></g>
<g><path style="opacity:1" fill="#30a9dc" d="M 706.5,827.5 C 778.167,827.5 849.833,827.5 921.5,827.5C 914.563,903.537 907.23,979.537 899.5,1055.5C 835.196,1073.38 770.863,1091.05 706.5,1108.5C 706.5,1014.83 706.5,921.167 706.5,827.5 Z"/></g>
<g><path style="opacity:1" fill="#ebeced" d="M 705.5,1108.5 C 705.832,1170 705.499,1231.34 704.5,1292.5C 583.019,1259.96 461.686,1226.8 340.5,1193C 333.113,1130.88 325.779,1068.71 318.5,1006.5C 447.572,1040.25 576.572,1074.25 705.5,1108.5 Z"/></g>
<g><path style="opacity:1" fill="#c1deed" d="M 705.5,1108.5 C 705.833,1108.5 706.167,1108.5 706.5,1108.5C 706.168,1170 706.501,1231.34 707.5,1292.5C 707.5,1293.17 707.167,1293.5 706.5,1293.5C 706.167,1293.5 705.833,1293.5 705.5,1293.5C 704.833,1293.5 704.5,1293.17 704.5,1292.5C 705.499,1231.34 705.832,1170 705.5,1108.5 Z"/></g>
<g><path style="opacity:1" fill="#1e8eca" d="M 705.5,1293.5 C 705.833,1293.5 706.167,1293.5 706.5,1293.5C 705.837,1353.84 706.504,1413.84 708.5,1473.5C 707.791,1474.4 706.791,1474.74 705.5,1474.5C 705.5,1414.17 705.5,1353.83 705.5,1293.5 Z"/></g>
</svg>
