<?xml version="1.0" encoding="UTF-8"?>
<!DOCTYPE svg PUBLIC "-//W3C//DTD SVG 1.1//EN" "http://www.w3.org/Graphics/SVG/1.1/DTD/svg11.dtd">
<svg xmlns="http://www.w3.org/2000/svg" version="1.1" width="200px" height="200px" style="shape-rendering:geometricPrecision; text-rendering:geometricPrecision; image-rendering:optimizeQuality; fill-rule:evenodd; clip-rule:evenodd" xmlns:xlink="http://www.w3.org/1999/xlink">
<g><path style="opacity:0.886" fill="#000000" d="M -0.5,111.5 C -0.5,104.5 -0.5,97.5 -0.5,90.5C 1.74832,69.84 12.0817,54.6733 30.5,45C 59.0145,35.3441 80.1812,43.8441 94,70.5C 97.3811,80.5471 98.8811,90.8805 98.5,101.5C 68.8333,101.5 39.1667,101.5 9.5,101.5C 8.29825,118.584 14.2983,132.418 27.5,143C 45.3423,152.62 62.1757,151.12 78,138.5C 82.1127,132.609 85.4461,126.276 88,119.5C 90.9651,116.305 94.1317,115.972 97.5,118.5C 89.8681,148.507 70.5348,161.341 39.5,157C 15.6864,151.021 2.35304,135.854 -0.5,111.5 Z M 41.5,50.5 C 71.4318,49.0942 87.0985,63.4276 88.5,93.5C 62.1667,93.5 35.8333,93.5 9.5,93.5C 10.3815,71.6495 21.0482,57.3161 41.5,50.5 Z"/></g>
<g><path style="opacity:0.861" fill="#000000" d="M 199.5,152.5 C 199.5,153.5 199.5,154.5 199.5,155.5C 193.387,156.59 188.221,154.923 184,150.5C 173.388,134.888 162.388,119.555 151,104.5C 139.667,119.833 128.333,135.167 117,150.5C 112.736,155.254 107.569,156.587 101.5,154.5C 115.641,135.192 129.974,116.025 144.5,97C 131.167,79.6667 117.833,62.3333 104.5,45C 110.164,42.6665 115.331,43.4999 120,47.5C 130.333,61.5 140.667,75.5 151,89.5C 161.735,74.095 173.235,59.2617 185.5,45C 189.167,43 192.833,43 196.5,45C 185.03,60.7699 173.197,76.2699 161,91.5C 157.667,95.1667 157.667,98.8333 161,102.5C 173.697,119.352 186.53,136.019 199.5,152.5 Z"/></g>
</svg>
