<?xml version="1.0" encoding="UTF-8"?>
<!DOCTYPE svg PUBLIC "-//W3C//DTD SVG 1.1//EN" "http://www.w3.org/Graphics/SVG/1.1/DTD/svg11.dtd">
<svg xmlns="http://www.w3.org/2000/svg" version="1.1" width="800px" height="800px" style="shape-rendering:geometricPrecision; text-rendering:geometricPrecision; image-rendering:optimizeQuality; fill-rule:evenodd; clip-rule:evenodd" xmlns:xlink="http://www.w3.org/1999/xlink">
<g><path style="opacity:0.995" fill="#de4b36" d="M 388.5,-0.5 C 395.5,-0.5 402.5,-0.5 409.5,-0.5C 417.9,1.70009 425.567,5.53343 432.5,11C 551,129.5 669.5,248 788,366.5C 793.467,373.433 797.3,381.1 799.5,389.5C 799.5,396.5 799.5,403.5 799.5,410.5C 796.795,420.574 791.961,429.574 785,437.5C 669.167,553.333 553.333,669.167 437.5,785C 429.574,791.961 420.574,796.795 410.5,799.5C 403.5,799.5 396.5,799.5 389.5,799.5C 381.1,797.3 373.433,793.467 366.5,788C 248,669.5 129.5,551 11,432.5C 5.53343,425.567 1.70009,417.9 -0.5,409.5C -0.5,402.5 -0.5,395.5 -0.5,388.5C 2.20549,378.426 7.03883,369.426 14,361.5C 93.5,282 173,202.5 252.5,123C 253.5,122.333 254.5,122.333 255.5,123C 285.333,152.833 315.167,182.667 345,212.5C 335.153,242.288 342.32,267.122 366.5,287C 370.252,289.293 374.086,291.46 378,293.5C 378.833,367.169 378.667,440.836 377.5,514.5C 354.032,525.664 341.698,544.331 340.5,570.5C 344.282,606.449 364.116,626.783 400,631.5C 437.437,628.23 458.27,607.897 462.5,570.5C 461.173,546.5 450.173,528.5 429.5,516.5C 428.333,443.502 428.167,370.502 429,297.5C 456.333,324.833 483.667,352.167 511,379.5C 502.089,407.291 508.256,431.124 529.5,451C 559.021,470.765 586.855,468.598 613,444.5C 630.82,422.082 633.153,398.082 620,372.5C 601.927,346.81 577.76,337.977 547.5,346C 518,316.5 488.5,287 459,257.5C 466.778,228.166 458.611,204.333 434.5,186C 417.45,176.165 399.45,173.832 380.5,179C 350.333,148.833 320.167,118.667 290,88.5C 289.333,87.5 289.333,86.5 290,85.5C 316.224,58.6077 343.058,32.4411 370.5,7C 376.328,3.78826 382.328,1.28826 388.5,-0.5 Z"/></g>
</svg>
