<?xml version="1.0" encoding="UTF-8"?>
<!DOCTYPE svg PUBLIC "-//W3C//DTD SVG 1.1//EN" "http://www.w3.org/Graphics/SVG/1.1/DTD/svg11.dtd">
<svg xmlns="http://www.w3.org/2000/svg" version="1.1" width="800px" height="781px" style="shape-rendering:geometricPrecision; text-rendering:geometricPrecision; image-rendering:optimizeQuality; fill-rule:evenodd; clip-rule:evenodd" xmlns:xlink="http://www.w3.org/1999/xlink">
<g><path style="opacity:0.99" fill="#000000" d="M 371.5,-0.5 C 390.167,-0.5 408.833,-0.5 427.5,-0.5C 567.475,13.4168 673.975,80.0835 747,199.5C 777.137,253.071 794.637,310.404 799.5,371.5C 799.5,390.167 799.5,408.833 799.5,427.5C 787.445,554.262 730.112,654.762 627.5,729C 596.398,749.884 563.064,766.551 527.5,779C 520.285,780.113 513.285,779.446 506.5,777C 502.896,774.292 500.396,770.792 499,766.5C 498.964,720.472 498.298,674.472 497,628.5C 494.498,607.997 485.998,590.497 471.5,576C 497.072,572.885 522.072,567.219 546.5,559C 605.623,536.191 640.123,493.358 650,430.5C 657.238,395.459 655.904,360.792 646,326.5C 642.41,315.988 637.744,305.988 632,296.5C 625.993,287.67 619.827,279.003 613.5,270.5C 621.611,245.887 623.111,220.887 618,195.5C 615.783,185.296 612.95,175.296 609.5,165.5C 595.479,164.3 581.813,166.133 568.5,171C 554.693,175.903 541.359,181.903 528.5,189C 518.688,194.985 508.854,200.818 499,206.5C 432.669,189.167 366.336,189.167 300,206.5C 279.135,192.815 256.968,181.315 233.5,172C 222.137,168.076 210.47,165.576 198.5,164.5C 195.424,164.846 192.424,165.512 189.5,166.5C 175.755,200.743 174.422,235.41 185.5,270.5C 175.324,283.201 166.49,296.867 159,311.5C 145.988,342.276 141.655,374.276 146,407.5C 152.598,496.426 199.432,550.26 286.5,569C 299.834,571.611 313.167,574.111 326.5,576.5C 312.491,591.854 303.824,609.854 300.5,630.5C 279.244,639.68 257.244,642.68 234.5,639.5C 236.275,644.941 234.275,647.941 228.5,648.5C 223.863,648.34 220.363,646.34 218,642.5C 217.184,637.967 219.017,635.134 223.5,634C 204.667,624.5 190.5,610.333 181,591.5C 177.301,586.973 173.468,582.639 169.5,578.5C 169.5,577.833 169.167,577.5 168.5,577.5C 168.5,576.833 168.167,576.5 167.5,576.5C 162.043,570.934 155.71,566.601 148.5,563.5C 148.158,562.662 147.492,562.328 146.5,562.5C 146.158,561.662 145.492,561.328 144.5,561.5C 136.123,557.1 127.123,555.267 117.5,556C 112.224,556.02 108.224,558.187 105.5,562.5C 107.855,567.365 111.189,571.532 115.5,575C 134.155,585.988 148.322,601.155 158,620.5C 170.159,658.657 195.993,681.157 235.5,688C 257.378,690.659 279.045,689.493 300.5,684.5C 300.667,711.835 300.5,739.169 300,766.5C 294.217,778.556 284.717,782.723 271.5,779C 138.132,730.299 51.6319,637.799 12,501.5C 5.75633,477.036 1.58966,452.369 -0.5,427.5C -0.5,408.5 -0.5,389.5 -0.5,370.5C 14.2551,226.741 83.9217,118.908 208.5,47C 259.636,19.8036 313.969,3.97022 371.5,-0.5 Z"/></g>
<g><path style="opacity:0.782" fill="#000000" d="M 144.5,561.5 C 144.842,562.338 145.508,562.672 146.5,562.5C 146.842,563.338 147.508,563.672 148.5,563.5C 151.425,570.575 149.092,572.909 141.5,570.5C 138.743,568.912 137.91,566.579 139,563.5C 140.444,561.845 142.278,561.178 144.5,561.5 Z"/></g>
<g><path style="opacity:0.837" fill="#000000" d="M 167.5,576.5 C 168.167,576.5 168.5,576.833 168.5,577.5C 169.167,577.5 169.5,577.833 169.5,578.5C 172.526,586.292 170.192,589.126 162.5,587C 158.314,583.914 157.314,580.247 159.5,576C 162.221,575.398 164.887,575.565 167.5,576.5 Z"/></g>
<g><path style="opacity:0.83" fill="#000000" d="M 175.5,594.5 C 184.113,596.922 186.446,602.089 182.5,610C 173.516,609.998 170.016,605.498 172,596.5C 173.302,595.915 174.469,595.249 175.5,594.5 Z"/></g>
<g><path style="opacity:0.851" fill="#000000" d="M 193.5,621.5 C 201.02,620.92 205.686,624.254 207.5,631.5C 203.638,638.953 198.805,639.286 193,632.5C 190.866,628.647 191.033,624.98 193.5,621.5 Z"/></g>
<g><path style="opacity:0.853" fill="#000000" d="M 255.5,641.5 C 259.308,641.163 262.974,641.663 266.5,643C 270.11,649.776 267.943,653.61 260,654.5C 249.739,652.697 248.239,648.364 255.5,641.5 Z"/></g>
<g><path style="opacity:0.856" fill="#000000" d="M 289.5,641.5 C 297.81,639.337 301.644,642.337 301,650.5C 296.307,654.861 291.14,655.528 285.5,652.5C 283.876,651.131 283.376,649.464 284,647.5C 285.36,644.977 287.193,642.977 289.5,641.5 Z"/></g>
</svg>
