<?xml version="1.0" encoding="UTF-8"?>
<!DOCTYPE svg PUBLIC "-//W3C//DTD SVG 1.1//EN" "http://www.w3.org/Graphics/SVG/1.1/DTD/svg11.dtd">
<svg xmlns="http://www.w3.org/2000/svg" version="1.1" width="1413px" height="1625px" style="shape-rendering:geometricPrecision; text-rendering:geometricPrecision; image-rendering:optimizeQuality; fill-rule:evenodd; clip-rule:evenodd" xmlns:xlink="http://www.w3.org/1999/xlink">
<g><path style="opacity:0.999" fill="#e34f26" d="M -0.5,-0.5 C 469.5,-0.5 939.5,-0.5 1409.5,-0.5C 1367.37,478.217 1324.71,956.883 1281.5,1435.5C 1281.18,1436.65 1280.52,1437.48 1279.5,1438C 1087.3,1492.35 894.963,1546.18 702.5,1599.5C 511.382,1546.14 320.382,1492.3 129.5,1438C 128.333,1437.5 127.5,1436.67 127,1435.5C 84.8167,960.319 42.3167,485.319 -0.5,10.5C -0.5,6.83333 -0.5,3.16667 -0.5,-0.5 Z"/></g>
<g><path style="opacity:1" fill="#ef652a" d="M 706.5,1293.5 C 707.167,1293.5 707.5,1293.17 707.5,1292.5C 826.832,1259.5 946.165,1226.5 1065.5,1193.5C 1082.01,1012.14 1098.68,830.81 1115.5,649.5C 979.167,649.5 842.833,649.5 706.5,649.5C 706.5,589.167 706.5,528.833 706.5,468.5C 848.167,468.5 989.833,468.5 1131.5,468.5C 1131.5,467.5 1131.5,466.5 1131.5,465.5C 1136.31,408.15 1141.31,350.817 1146.5,293.5C 999.833,293.5 853.167,293.5 706.5,293.5C 706.167,293.5 705.833,293.5 705.5,293.5C 557.833,293.5 410.167,293.5 262.5,293.5C 410.332,292.5 558.332,292.167 706.5,292.5C 706.5,233.5 706.5,174.5 706.5,115.5C 897.833,115.5 1089.17,115.5 1280.5,115.5C 1244.59,525.883 1208.25,936.216 1171.5,1346.5C 1016.58,1389.03 861.582,1431.36 706.5,1473.5C 706.5,1413.5 706.5,1353.5 706.5,1293.5 Z"/></g>
<g><path style="opacity:1" fill="#ececed" d="M 262.5,293.5 C 410.167,293.5 557.833,293.5 705.5,293.5C 705.5,351.5 705.5,409.5 705.5,467.5C 622.167,467.5 538.833,467.5 455.5,467.5C 455.216,469.415 455.549,471.081 456.5,472.5C 461.856,531.462 466.856,590.462 471.5,649.5C 549.833,649.5 628.167,649.5 706.5,649.5C 706.5,708.833 706.5,768.167 706.5,827.5C 574.167,827.5 441.833,827.5 309.5,827.5C 293.368,649.69 277.702,471.69 262.5,293.5 Z"/></g>
<g><path style="opacity:1" fill="#fefefe" d="M 706.5,293.5 C 853.167,293.5 999.833,293.5 1146.5,293.5C 1141.31,350.817 1136.31,408.15 1131.5,465.5C 990.043,467.496 848.377,468.163 706.5,467.5C 706.5,409.5 706.5,351.5 706.5,293.5 Z"/></g>
<g><path style="opacity:1" fill="#edc7bc" d="M 705.5,293.5 C 705.833,293.5 706.167,293.5 706.5,293.5C 706.5,351.5 706.5,409.5 706.5,467.5C 706.5,467.833 706.5,468.167 706.5,468.5C 623.167,468.5 539.833,468.5 456.5,468.5C 456.5,469.833 456.5,471.167 456.5,472.5C 455.549,471.081 455.216,469.415 455.5,467.5C 538.833,467.5 622.167,467.5 705.5,467.5C 705.5,409.5 705.5,351.5 705.5,293.5 Z"/></g>
<g><path style="opacity:1" fill="#fbd5c5" d="M 1131.5,465.5 C 1131.5,466.5 1131.5,467.5 1131.5,468.5C 989.833,468.5 848.167,468.5 706.5,468.5C 706.5,468.167 706.5,467.833 706.5,467.5C 848.377,468.163 990.043,467.496 1131.5,465.5 Z"/></g>
<g><path style="opacity:1" fill="#e34f26" d="M 706.5,468.5 C 706.5,528.833 706.5,589.167 706.5,649.5C 628.167,649.5 549.833,649.5 471.5,649.5C 466.856,590.462 461.856,531.462 456.5,472.5C 456.5,471.167 456.5,469.833 456.5,468.5C 539.833,468.5 623.167,468.5 706.5,468.5 Z"/></g>
<g><path style="opacity:1" fill="#fffefe" d="M 706.5,649.5 C 842.833,649.5 979.167,649.5 1115.5,649.5C 1098.68,830.81 1082.01,1012.14 1065.5,1193.5C 946.165,1226.5 826.832,1259.5 707.5,1292.5C 706.501,1231.34 706.168,1170 706.5,1108.5C 770.743,1091.06 834.909,1073.4 899,1055.5C 906.924,979.58 914.424,903.58 921.5,827.5C 849.833,827.5 778.167,827.5 706.5,827.5C 706.5,768.167 706.5,708.833 706.5,649.5 Z"/></g>
<g><path style="opacity:1" fill="#ee652a" d="M 309.5,827.5 C 441.833,827.5 574.167,827.5 706.5,827.5C 778.167,827.5 849.833,827.5 921.5,827.5C 914.424,903.58 906.924,979.58 899,1055.5C 834.909,1073.4 770.743,1091.06 706.5,1108.5C 706.5,1015.17 706.5,921.833 706.5,828.5C 573.999,828.833 441.666,828.5 309.5,827.5 Z"/></g>
<g><path style="opacity:1" fill="#ececed" d="M 705.5,1108.5 C 705.832,1170 705.499,1231.34 704.5,1292.5C 582.796,1259.66 461.129,1226.66 339.5,1193.5C 333.315,1100.77 326.315,1008.1 318.5,915.5C 376.837,915.167 435.17,915.5 493.5,916.5C 497.636,963.046 501.969,1009.55 506.5,1056C 572.837,1073.57 639.171,1091.07 705.5,1108.5 Z"/></g>
<g><path style="opacity:1" fill="#f4d1c3" d="M 705.5,1108.5 C 705.833,1108.5 706.167,1108.5 706.5,1108.5C 706.168,1170 706.501,1231.34 707.5,1292.5C 707.5,1293.17 707.167,1293.5 706.5,1293.5C 705.508,1293.67 704.842,1293.34 704.5,1292.5C 705.499,1231.34 705.832,1170 705.5,1108.5 Z"/></g>
</svg>
