<?xml version="1.0" encoding="UTF-8"?>
<!DOCTYPE svg PUBLIC "-//W3C//DTD SVG 1.1//EN" "http://www.w3.org/Graphics/SVG/1.1/DTD/svg11.dtd">
<svg xmlns="http://www.w3.org/2000/svg" version="1.1" width="7813px" height="7813px" style="shape-rendering:geometricPrecision; text-rendering:geometricPrecision; image-rendering:optimizeQuality; fill-rule:evenodd; clip-rule:evenodd" xmlns:xlink="http://www.w3.org/1999/xlink">
<g><path style="opacity:0.042" fill="#efda4e" d="M -0.5,-0.5 C 2603.83,-0.5 5208.17,-0.5 7812.5,-0.5C 7812.5,2603.83 7812.5,5208.17 7812.5,7812.5C 5208.17,7812.5 2603.83,7812.5 -0.5,7812.5C -0.5,5208.17 -0.5,2603.83 -0.5,-0.5 Z"/></g>
<g><path style="opacity:1" fill="#323330" d="M 5866.5,3544.5 C 5964.58,3541.78 6062.25,3546.61 6159.5,3559C 6270,3573.5 6376.33,3602.84 6478.5,3647C 6582.59,3694.27 6674.76,3758.44 6755,3839.5C 6778.3,3865.13 6801.97,3890.47 6826,3915.5C 6857.85,3952.88 6887.52,3991.88 6915,4032.5C 6936.75,4065 6958.25,4097.66 6979.5,4130.5C 6788.69,4252.07 6598.36,4374.4 6408.5,4497.5C 6367.5,4408.99 6308.17,4335.16 6230.5,4276C 6113.7,4191.5 5984.37,4163.84 5842.5,4193C 5770.71,4208.3 5709.55,4242.13 5659,4294.5C 5607.35,4355.44 5582.68,4426.11 5585,4506.5C 5588.25,4552.66 5596.25,4598 5609,4642.5C 5628.41,4685.26 5655.57,4722.42 5690.5,4754C 5722.98,4782.82 5757.98,4808.15 5795.5,4830C 5839.22,4855.36 5884.22,4878.36 5930.5,4899C 6059.38,4954.94 6188.38,5010.61 6317.5,5066C 6418.9,5110.86 6517.23,5161.2 6612.5,5217C 6704.71,5271.54 6791.04,5334.21 6871.5,5405C 6943.78,5469.58 7005.28,5542.75 7056,5624.5C 7104.21,5704.61 7138.88,5790.27 7160,5881.5C 7186.1,5996.74 7197.1,6113.41 7193,6231.5C 7186.81,6378.6 7150.14,6517.6 7083,6648.5C 7018.53,6766.8 6932.03,6866.3 6823.5,6947C 6730.52,7014.33 6629.52,7067.33 6520.5,7106C 6367.59,7158.82 6210.26,7188.15 6048.5,7194C 5807.43,7203.54 5574.09,7166.21 5348.5,7082C 5235.52,7039.03 5130.52,6982.36 5033.5,6912C 4989.29,6879.25 4947.79,6843.09 4909,6803.5C 4869.63,6759.8 4830.63,6715.8 4792,6671.5C 4733.35,6603.6 4685.18,6528.6 4647.5,6446.5C 4844.93,6332.37 5042.43,6218.37 5240,6104.5C 5240.77,6104.64 5241.44,6104.98 5242,6105.5C 5288.7,6179.51 5341.7,6248.85 5401,6313.5C 5513.63,6432.75 5651.13,6507.59 5813.5,6538C 5920.8,6551.19 6027.46,6547.53 6133.5,6527C 6201.25,6513.21 6263.92,6487.54 6321.5,6450C 6420.56,6379.02 6467.06,6282.19 6461,6159.5C 6459.15,6130.54 6455.15,6101.87 6449,6073.5C 6435.34,6029.9 6413.34,5991.23 6383,5957.5C 6344.12,5916.59 6300.62,5881.75 6252.5,5853C 6194.93,5818.88 6135.6,5787.88 6074.5,5760C 5958.08,5709.08 5841.41,5658.75 5724.5,5609C 5637.08,5570.46 5551.41,5528.46 5467.5,5483C 5377.19,5432.7 5291.53,5375.7 5210.5,5312C 5105.96,5223.81 5024.46,5117.97 4966,4994.5C 4865.04,4775.75 4837.71,4548.08 4884,4311.5C 4919.35,4145.45 4993.69,4000.11 5107,3875.5C 5164.21,3812.37 5229.05,3758.87 5301.5,3715C 5407.15,3651.44 5519.81,3604.44 5639.5,3574C 5715.34,3564.46 5791.01,3554.62 5866.5,3544.5 Z"/></g>
<g><path style="opacity:1" fill="#323330" d="M 3515.5,3590.5 C 3759.5,3590.5 4003.5,3590.5 4247.5,3590.5C 4248.58,4199.83 4248.58,4809.17 4247.5,5418.5C 4248.22,5631.5 4249.05,5844.5 4250,6057.5C 4248.95,6145.84 4242.95,6233.84 4232,6321.5C 4220.06,6411.27 4198.39,6498.6 4167,6583.5C 4135.47,6663.92 4095.13,6739.26 4046,6809.5C 3982.6,6893.91 3906.76,6964.75 3818.5,7022C 3728.16,7079.16 3631.49,7122.83 3528.5,7153C 3363.48,7190.98 3196.48,7203.98 3027.5,7192C 2887.28,7180.92 2752.28,7148.58 2622.5,7095C 2497.64,7042.44 2387.64,6968.27 2292.5,6872.5C 2194,6772.38 2114.33,6658.88 2053.5,6532C 2251.05,6410.13 2448.88,6288.63 2647,6167.5C 2651.09,6170.92 2654.42,6174.92 2657,6179.5C 2687.58,6235.01 2720.91,6288.68 2757,6340.5C 2809.74,6415.92 2877.24,6474.08 2959.5,6515C 3053.97,6545.63 3149.97,6551.63 3247.5,6533C 3375.37,6503.13 3456.87,6424.96 3492,6298.5C 3501.81,6248.97 3508.14,6198.97 3511,6148.5C 3513.38,6101.53 3515.04,6054.53 3516,6007.5C 3514.1,5722.34 3513.26,5437.17 3513.5,5152C 3514.31,4631.5 3514.98,4111 3515.5,3590.5 Z"/></g>
</svg>
