<?xml version="1.0" encoding="UTF-8"?>
<!DOCTYPE svg PUBLIC "-//W3C//DTD SVG 1.1//EN" "http://www.w3.org/Graphics/SVG/1.1/DTD/svg11.dtd">
<svg xmlns="http://www.w3.org/2000/svg" version="1.1" width="800px" height="197px" style="shape-rendering:geometricPrecision; text-rendering:geometricPrecision; image-rendering:optimizeQuality; fill-rule:evenodd; clip-rule:evenodd" xmlns:xlink="http://www.w3.org/1999/xlink">
<g><path style="opacity:0.982" fill="#131a27" d="M 308.5,-0.5 C 317.5,-0.5 326.5,-0.5 335.5,-0.5C 366.489,6.73863 380.322,26.4053 377,58.5C 373.13,75.6078 367.963,92.2744 361.5,108.5C 366.193,108.54 370.859,108.873 375.5,109.5C 374.462,117.989 372.628,126.323 370,134.5C 369.5,135.667 368.667,136.5 367.5,137C 338.472,137.932 309.472,137.599 280.5,136C 256.246,129.862 244.579,114.195 245.5,89C 246.38,66.3621 252.88,45.5288 265,26.5C 275.986,11.7611 290.486,2.76106 308.5,-0.5 Z M 311.5,28.5 C 322.398,26.5965 331.898,29.2632 340,36.5C 345.479,47.606 345.813,58.9393 341,70.5C 337.797,81.1086 334.797,91.7753 332,102.5C 331.705,104.931 330.538,106.764 328.5,108C 318.5,108.667 308.5,108.667 298.5,108C 288.124,106.624 281.957,100.791 280,90.5C 278.987,74.2318 282.32,58.8985 290,44.5C 295.091,36.2249 302.258,30.8916 311.5,28.5 Z"/></g>
<g><path style="opacity:0.979" fill="#131a27" d="M 799.5,12.5 C 799.5,13.5 799.5,14.5 799.5,15.5C 776.02,46.4317 752.52,77.4317 729,108.5C 725.705,117.342 722.872,126.342 720.5,135.5C 709.605,136.819 698.772,136.819 688,135.5C 689.491,127.169 691.324,118.836 693.5,110.5C 689.401,94.9396 685.068,79.4396 680.5,64C 680.645,63.228 680.978,62.5613 681.5,62C 691.833,61.3333 702.167,61.3333 712.5,62C 714.859,67.2449 716.692,72.7449 718,78.5C 732.797,56.405 747.964,34.5717 763.5,13C 775.495,12.5001 787.495,12.3335 799.5,12.5 Z"/></g>
<g><path style="opacity:0.893" fill="#0a67ac" d="M 84.5,13.5 C 85.2389,13.369 85.9056,13.5357 86.5,14C 80.8181,28.3149 83.8181,40.6482 95.5,51C 106.77,59.5875 119.103,61.5875 132.5,57C 141.99,47.9991 142.823,48.8325 135,59.5C 125.346,68.3561 114.18,70.8561 101.5,67C 82.0703,59.2387 74.237,45.072 78,24.5C 79.6743,20.4758 81.841,16.8092 84.5,13.5 Z"/></g>
<g><path style="opacity:0.938" fill="#0867ac" d="M 55.5,19.5 C 46.1595,43.945 51.8261,64.7783 72.5,82C 92.3841,96.8971 113.051,98.2304 134.5,86C 145.021,74.4814 146.187,75.6481 138,89.5C 120.798,107.59 100.298,112.424 76.5,104C 47.7895,90.4147 36.9562,68.2481 44,37.5C 47.2678,31.0804 51.1012,25.0804 55.5,19.5 Z"/></g>
<g><path style="opacity:0.981" fill="#131b27" d="M 546.5,26.5 C 557.289,25.9747 567.955,26.8081 578.5,29C 593.28,34.4722 599.946,45.1388 598.5,61C 598.717,72.1787 596.717,82.8454 592.5,93C 569.833,93.3333 547.167,93.6667 524.5,94C 521.891,101.781 524.558,106.781 532.5,109C 550.806,110.333 569.139,110.833 587.5,110.5C 586.792,119.537 585.126,128.37 582.5,137C 570.336,137.558 558.169,138.058 546,138.5C 536.09,138.508 526.256,137.675 516.5,136C 499.426,131.415 491.426,120.248 492.5,102.5C 492.756,80.9027 498.923,61.236 511,43.5C 521.029,33.9011 532.862,28.2344 546.5,26.5 Z M 544.5,53.5 C 551.061,52.9186 557.395,53.752 563.5,56C 567.203,59.396 568.369,63.5626 567,68.5C 554.229,69.8213 541.396,69.8213 528.5,68.5C 531.337,60.6583 536.67,55.6583 544.5,53.5 Z"/></g>
<g><path style="opacity:0.957" fill="#121a27" d="M 213.5,27.5 C 223.416,27.181 233.25,27.5144 243,28.5C 242.195,37.1889 240.362,45.6889 237.5,54C 227.256,54.8186 217.09,54.652 207,53.5C 208.091,44.5416 210.257,35.8749 213.5,27.5 Z"/></g>
<g><path style="opacity:0.982" fill="#121a27" d="M 400.5,28.5 C 410.167,28.5 419.833,28.5 429.5,28.5C 425.041,51.4623 420.708,74.4623 416.5,97.5C 416.121,103.607 418.788,107.44 424.5,109C 432.413,109.814 440.246,109.647 448,108.5C 454.152,81.8942 459.985,55.2275 465.5,28.5C 475.167,28.5 484.833,28.5 494.5,28.5C 487.479,64.2544 479.979,99.921 472,135.5C 451.24,136.66 430.406,136.826 409.5,136C 398.704,134.53 391.537,128.697 388,118.5C 386.452,109.562 386.119,100.562 387,91.5C 391.037,70.3595 395.537,49.3595 400.5,28.5 Z"/></g>
<g><path style="opacity:0.984" fill="#121a27" d="M 622.5,28.5 C 647.885,28.0376 673.218,28.5376 698.5,30C 704.41,31.5787 707.91,35.412 709,41.5C 710.475,46.0633 711.308,50.7299 711.5,55.5C 690.164,55.3334 668.831,55.5 647.5,56C 646.107,57.1711 645.273,58.6711 645,60.5C 639.79,85.5492 634.457,110.549 629,135.5C 619.578,136.651 610.078,136.818 600.5,136C 599.978,135.439 599.645,134.772 599.5,134C 606.982,98.7535 614.649,63.5869 622.5,28.5 Z"/></g>
<g><path style="opacity:0.95" fill="#0867ac" d="M -0.5,86.5 C -0.5,79.8333 -0.5,73.1667 -0.5,66.5C 2.33874,54.8262 7.83874,44.4928 16,35.5C 16.8373,33.9926 18.0039,33.4926 19.5,34C 9.58688,57.5012 12.0869,79.6679 27,100.5C 54.0795,133.755 87.2461,141.921 126.5,125C 130.962,121.781 134.962,118.114 138.5,114C 139.332,113.312 139.998,113.479 140.5,114.5C 129.755,136.071 112.421,148.571 88.5,152C 51.073,154.705 23.573,139.539 6,106.5C 3.29265,99.881 1.12598,93.2143 -0.5,86.5 Z"/></g>
<g><path style="opacity:0.978" fill="#121a27" d="M 205.5,61.5 C 215.5,61.5 225.5,61.5 235.5,61.5C 229.882,93.0869 223.049,124.42 215,155.5C 212.242,163.867 207.408,170.7 200.5,176C 198.283,177.275 195.949,178.275 193.5,179C 181.896,180.412 170.229,180.912 158.5,180.5C 159.535,171.356 161.368,162.356 164,153.5C 175.463,154.94 183.129,150.273 187,139.5C 192.611,113.26 198.777,87.2603 205.5,61.5 Z"/></g>
<g><path style="opacity:0.834" fill="#0768ab" d="M 405.5,160.5 C 411.984,160.959 412.984,163.459 408.5,168C 403.9,169.583 402.066,168.083 403,163.5C 403.698,162.309 404.531,161.309 405.5,160.5 Z"/></g>
<g><path style="opacity:0.843" fill="#0867ac" d="M 461.5,161.5 C 464.833,161.5 468.167,161.5 471.5,161.5C 469.757,171.881 467.757,182.215 465.5,192.5C 463.5,192.5 461.5,192.5 459.5,192.5C 460.575,184.124 461.909,175.79 463.5,167.5C 462.5,167.5 461.5,167.5 460.5,167.5C 460.833,165.5 461.167,163.5 461.5,161.5 Z"/></g>
<g><path style="opacity:0.867" fill="#0967ab" d="M 576.5,161.5 C 578.167,161.5 579.833,161.5 581.5,161.5C 580.149,171.241 578.316,180.907 576,190.5C 575.326,191.578 574.326,192.245 573,192.5C 568.586,192.311 564.086,192.145 559.5,192C 557.556,190.278 556.556,188.111 556.5,185.5C 556.48,173.674 562.146,168.508 573.5,170C 574.424,167.135 575.424,164.302 576.5,161.5 Z M 566.5,176.5 C 568.527,176.338 570.527,176.505 572.5,177C 571.39,180.049 570.723,183.216 570.5,186.5C 562.6,186.022 561.267,182.689 566.5,176.5 Z"/></g>
<g><path style="opacity:0.874" fill="#0868ab" d="M 415.5,164.5 C 417.5,164.5 419.5,164.5 421.5,164.5C 421.643,166.262 421.309,167.929 420.5,169.5C 422.5,170.167 424.5,170.833 426.5,171.5C 425.754,172.736 425.421,174.07 425.5,175.5C 423.064,175.317 420.897,175.984 419,177.5C 418.304,180.478 417.804,183.478 417.5,186.5C 419.527,186.338 421.527,186.505 423.5,187C 422.833,188.667 422.167,190.333 421.5,192C 418.5,192.667 415.5,192.667 412.5,192C 411.02,190.701 410.354,189.034 410.5,187C 410.849,183.756 411.515,180.59 412.5,177.5C 408.233,173.903 408.733,171.237 414,169.5C 414.608,167.846 415.108,166.179 415.5,164.5 Z"/></g>
<g><path style="opacity:0.88" fill="#0967ac" d="M 435.5,169.5 C 445.86,168.883 449.527,173.55 446.5,183.5C 441.786,183.173 437.12,183.507 432.5,184.5C 432.709,185.086 433.043,185.586 433.5,186C 437.152,186.499 440.818,186.665 444.5,186.5C 445.035,189.238 444.035,191.072 441.5,192C 427.282,195.451 422.449,190.284 427,176.5C 428.866,172.784 431.699,170.45 435.5,169.5 Z M 436.5,175.5 C 438.196,175.685 439.529,176.519 440.5,178C 438.167,178.667 435.833,178.667 433.5,178C 434.571,177.148 435.571,176.315 436.5,175.5 Z"/></g>
<g><path style="opacity:0.88" fill="#0967ac" d="M 480.5,169.5 C 490.86,168.883 494.527,173.55 491.5,183.5C 486.786,183.173 482.12,183.507 477.5,184.5C 477.709,185.086 478.043,185.586 478.5,186C 482.152,186.499 485.818,186.665 489.5,186.5C 490.035,189.238 489.035,191.072 486.5,192C 472.282,195.451 467.449,190.284 472,176.5C 473.866,172.784 476.699,170.45 480.5,169.5 Z M 481.5,175.5 C 483.196,175.685 484.529,176.519 485.5,178C 483.167,178.667 480.833,178.667 478.5,178C 479.571,177.148 480.571,176.315 481.5,175.5 Z"/></g>
<g><path style="opacity:0.867" fill="#0867ac" d="M 502.5,169.5 C 506.574,169.701 510.574,170.368 514.5,171.5C 513.691,173.071 513.357,174.738 513.5,176.5C 498.386,176.705 498.053,177.705 512.5,179.5C 513.257,185.094 511.257,189.261 506.5,192C 502.167,192.667 497.833,192.667 493.5,192C 492.594,190.301 492.261,188.467 492.5,186.5C 496.555,186.824 500.555,186.491 504.5,185.5C 501.398,183.817 498.064,183.151 494.5,183.5C 493.096,176.29 495.762,171.623 502.5,169.5 Z"/></g>
<g><path style="opacity:0.855" fill="#0968ab" d="M 524.5,169.5 C 528.135,170.114 531.802,170.448 535.5,170.5C 535.167,172.5 534.833,174.5 534.5,176.5C 530.297,176.076 526.297,176.576 522.5,178C 526.145,178.719 529.812,179.219 533.5,179.5C 534.564,185.204 532.564,189.371 527.5,192C 523.167,192.667 518.833,192.667 514.5,192C 513.167,190.333 513.167,188.667 514.5,187C 518.687,186.929 522.687,186.262 526.5,185C 522.914,183.892 519.247,183.392 515.5,183.5C 514.04,175.718 517.04,171.052 524.5,169.5 Z"/></g>
<g><path style="opacity:0.868" fill="#0a67ac" d="M 592.5,169.5 C 603.005,170.15 606.171,175.484 602,185.5C 597.983,192.138 592.15,194.304 584.5,192C 582.667,191.5 581.5,190.333 581,188.5C 579.333,178.455 583.166,172.122 592.5,169.5 Z M 590.5,176.5 C 596.591,176.286 598.091,178.953 595,184.5C 593.192,186.396 591.025,186.896 588.5,186C 587.049,182.424 587.715,179.258 590.5,176.5 Z"/></g>
<g><path style="opacity:0.878" fill="#0867ac" d="M 628.5,169.5 C 630.936,169.317 633.103,169.984 635,171.5C 641.126,168.094 645.293,169.594 647.5,176C 646.306,181.472 645.306,186.972 644.5,192.5C 642.5,192.5 640.5,192.5 638.5,192.5C 638.517,187.732 639.184,183.066 640.5,178.5C 639.332,176.783 637.665,176.116 635.5,176.5C 635.155,181.878 634.488,187.211 633.5,192.5C 631.5,192.5 629.5,192.5 627.5,192.5C 627.833,187.167 628.167,181.833 628.5,176.5C 627.178,176.33 626.011,176.663 625,177.5C 624,182.167 623,186.833 622,191.5C 619.959,192.423 617.792,192.756 615.5,192.5C 616.704,185.146 618.037,177.813 619.5,170.5C 622.713,170.81 625.713,170.477 628.5,169.5 Z"/></g>
<g><path style="opacity:0.883" fill="#0967ac" d="M 660.5,169.5 C 669.183,169.014 672.683,173.014 671,181.5C 668.563,191.307 662.396,194.807 652.5,192C 650.667,191.5 649.5,190.333 649,188.5C 647.333,178.455 651.166,172.122 660.5,169.5 Z M 658.5,176.5 C 664.591,176.286 666.091,178.953 663,184.5C 660.925,186.648 658.592,186.982 656,185.5C 654.93,181.858 655.764,178.858 658.5,176.5 Z"/></g>
<g><path style="opacity:0.891" fill="#0867ab" d="M 701.5,169.5 C 712.157,168.316 715.824,172.816 712.5,183C 707.798,183.172 703.132,183.672 698.5,184.5C 698.709,185.086 699.043,185.586 699.5,186C 703.5,186.333 707.5,186.667 711.5,187C 710.62,188.356 710.286,189.856 710.5,191.5C 691.247,195.495 686.58,188.995 696.5,172C 698.315,171.243 699.981,170.41 701.5,169.5 Z M 702.5,175.5 C 704.09,175.628 705.423,176.295 706.5,177.5C 704.5,178.833 702.5,178.833 700.5,177.5C 701.243,176.818 701.909,176.151 702.5,175.5 Z"/></g>
<g><path style="opacity:0.883" fill="#0867ac" d="M 347.5,170.5 C 349.833,170.5 352.167,170.5 354.5,170.5C 354.363,174.876 354.196,179.209 354,183.5C 355.222,179.39 356.722,175.39 358.5,171.5C 361.428,170.516 364.428,170.183 367.5,170.5C 367.334,174.514 367.501,178.514 368,182.5C 369.53,178.91 370.864,175.243 372,171.5C 374.041,170.577 376.208,170.244 378.5,170.5C 376.629,177.777 373.962,184.777 370.5,191.5C 367.232,192.487 363.898,192.82 360.5,192.5C 360.816,188.475 360.983,184.475 361,180.5C 359.598,184.207 358.098,187.874 356.5,191.5C 353.572,192.484 350.572,192.817 347.5,192.5C 347.179,185.092 347.179,177.758 347.5,170.5 Z"/></g>
<g><path style="opacity:0.872" fill="#0967ac" d="M 390.5,169.5 C 393.585,169.542 395.919,170.875 397.5,173.5C 398.386,172.675 398.719,171.675 398.5,170.5C 401.833,170.5 405.167,170.5 408.5,170.5C 407.485,177.892 406.152,185.226 404.5,192.5C 402.5,192.5 400.5,192.5 398.5,192.5C 398.886,187.799 399.552,183.133 400.5,178.5C 400.281,176.085 398.948,175.085 396.5,175.5C 396.5,177.167 396.5,178.833 396.5,180.5C 394.076,180.808 391.743,180.474 389.5,179.5C 390.523,177.105 389.523,176.105 386.5,176.5C 386.035,181.655 384.869,186.655 383,191.5C 380.861,192.769 378.695,192.769 376.5,191.5C 378.167,184.833 379.833,178.167 381.5,171.5C 384.642,170.833 387.642,170.166 390.5,169.5 Z"/></g>
<g><path style="opacity:0.856" fill="#0868ac" d="M 685.5,169.5 C 687.582,169.472 689.416,170.139 691,171.5C 691.498,174.482 691.665,177.482 691.5,180.5C 689.167,180.5 686.833,180.5 684.5,180.5C 684.5,179.167 684.5,177.833 684.5,176.5C 683.5,176.5 682.5,176.5 681.5,176.5C 680.927,181.693 679.594,186.693 677.5,191.5C 675.604,192.466 673.604,192.799 671.5,192.5C 673.152,185.226 674.485,177.892 675.5,170.5C 677.792,170.244 679.959,170.577 682,171.5C 683.302,170.915 684.469,170.249 685.5,169.5 Z"/></g>
<g><path style="opacity:0.837" fill="#0b67ac" d="M 536.5,185.5 C 538.467,185.261 540.301,185.594 542,186.5C 542.301,189.507 542.135,192.507 541.5,195.5C 539.5,195.5 537.5,195.5 535.5,195.5C 535.617,193.516 534.95,191.85 533.5,190.5C 534.065,188.491 535.065,186.824 536.5,185.5 Z"/></g>
<g><path style="opacity:0.813" fill="#0b67ac" d="M 715.5,185.5 C 720.675,184.507 722.509,186.507 721,191.5C 718.619,192.435 716.119,192.768 713.5,192.5C 713.185,189.789 713.852,187.456 715.5,185.5 Z"/></g>
</svg>
