<?xml version="1.0" encoding="UTF-8"?>
<!DOCTYPE svg PUBLIC "-//W3C//DTD SVG 1.1//EN" "http://www.w3.org/Graphics/SVG/1.1/DTD/svg11.dtd">
<svg xmlns="http://www.w3.org/2000/svg" version="1.1" width="7813px" height="7131px" style="shape-rendering:geometricPrecision; text-rendering:geometricPrecision; image-rendering:optimizeQuality; fill-rule:evenodd; clip-rule:evenodd" xmlns:xlink="http://www.w3.org/1999/xlink">
<g><path style="opacity:0.999" fill="#1265a9" d="M 4756.5,-0.5 C 4757.17,-0.5 4757.83,-0.5 4758.5,-0.5C 4652.3,191.985 4602.46,398.318 4609,618.5C 4616.06,798.161 4654.4,970.827 4724,1136.5C 4854.64,1442.15 5053.48,1693.98 5320.5,1892C 5565.07,2069.48 5837.73,2180.48 6138.5,2225C 6271.71,2247.03 6405.71,2254.37 6540.5,2247C 6688.98,2238.97 6830.98,2204.64 6966.5,2144C 7111.89,2075.52 7234.39,1978.02 7334,1851.5C 7346.85,1834.43 7359.69,1817.43 7372.5,1800.5C 7349.18,1839.79 7326.35,1879.45 7304,1919.5C 7033.44,2387 6625.94,2621.67 6081.5,2623.5C 5940.86,2622.2 5801.53,2608.04 5663.5,2581C 5297.98,2479.76 4989.81,2288.26 4739,2006.5C 4619.74,1870.12 4524.07,1718.12 4452,1550.5C 4360.17,1334.51 4323.84,1109.51 4343,875.5C 4363.98,653.516 4436.98,450.849 4562,267.5C 4627.09,178.314 4691.92,88.9809 4756.5,-0.5 Z"/></g>
<g><path style="opacity:0.999" fill="#1265a9" d="M 3316.5,310.5 C 3317.04,310.56 3317.38,310.893 3317.5,311.5C 3176.25,553.751 3091.75,814.751 3064,1094.5C 3036.24,1383.68 3064.24,1667.35 3148,1945.5C 3219.7,2182.2 3323.04,2403.54 3458,2609.5C 3610.46,2841.04 3792.96,3047.2 4005.5,3228C 4044.68,3259.76 4083.68,3291.76 4122.5,3324C 4244.23,3415.66 4371.9,3498.66 4505.5,3573C 4621.18,3635.01 4740.18,3689.68 4862.5,3737C 5151.26,3847.75 5450.26,3908.42 5759.5,3919C 6018.74,3926.89 6272.4,3893.22 6520.5,3818C 6795.46,3733.08 7041.13,3597.75 7257.5,3412C 7372.06,3311.48 7472.9,3199.31 7560,3075.5C 7559.18,3081.97 7557.52,3088.3 7555,3094.5C 7508.96,3219.57 7450.96,3338.57 7381,3451.5C 7221.14,3712.04 7015.64,3930.21 6764.5,4106C 6527.94,4267.57 6269.28,4380.23 5988.5,4444C 5777.48,4491.3 5563.81,4514.47 5347.5,4513.5C 5129.82,4512.56 4913.82,4493.06 4699.5,4455C 4561.48,4415.14 4426.48,4367.14 4294.5,4311C 4090.87,4221.75 3900.54,4111.42 3723.5,3980C 3573.82,3870.04 3435.99,3745.87 3310,3607.5C 3263.66,3566.17 3221.99,3520.84 3185,3471.5C 3149.6,3423.7 3114.93,3375.36 3081,3326.5C 2957.04,3150.29 2855.04,2961.29 2775,2759.5C 2658.68,2458.94 2607.02,2147.61 2620,1825.5C 2630.9,1581.25 2685.23,1347.25 2783,1123.5C 2832.87,1012.14 2892.87,907.143 2963,808.5C 3081.09,642.647 3198.92,476.647 3316.5,310.5 Z"/></g>
<g><path style="opacity:0.999" fill="#1265a9" d="M 1518.5,959.5 C 1519.57,960.251 1519.74,961.251 1519,962.5C 1384.04,1223.06 1295.37,1498.73 1253,1789.5C 1209.7,2095.75 1213.7,2401.42 1265,2706.5C 1319.3,3026.08 1416.63,3331.75 1557,3623.5C 1678.99,3875.68 1826.99,4110.35 2001,4327.5C 2037.67,4371.5 2074.33,4415.5 2111,4459.5C 2243.27,4608.11 2384.44,4747.61 2534.5,4878C 2650.34,4975.73 2770.67,5067.4 2895.5,5153C 2933.84,5177.5 2971.84,5202.5 3009.5,5228C 3093.69,5279.94 3179.36,5329.61 3266.5,5377C 3330.14,5409.32 3393.81,5441.32 3457.5,5473C 3582.13,5530.15 3709.13,5581.48 3838.5,5627C 3842.11,5628.14 3845.45,5629.81 3848.5,5632C 3947.33,5664.5 4047,5694.17 4147.5,5721C 4479.57,5796.97 4815.9,5832.3 5156.5,5827C 5440.57,5822.32 5719.91,5783.66 5994.5,5711C 6271.12,5637.06 6530.12,5524.06 6771.5,5372C 6990.78,5231.45 7183.62,5059.95 7350,4857.5C 7363.57,4840.68 7376.91,4823.68 7390,4806.5C 7390.67,4807.83 7390.67,4809.17 7390,4810.5C 7350.51,4905.49 7305.17,4997.49 7254,5086.5C 7044.88,5450.05 6774.04,5761.22 6441.5,6020C 6085.35,6292.03 5687.35,6478.69 5247.5,6580C 5023.64,6630.98 4796.97,6660.65 4567.5,6669C 4313.81,6677.88 4061.14,6665.55 3809.5,6632C 3714.73,6619.71 3620.4,6604.71 3526.5,6587C 3307.34,6527.29 3094.34,6450.95 2887.5,6358C 2855.01,6343.17 2822.85,6327.67 2791,6311.5C 2790.59,6311.96 2790.09,6312.29 2789.5,6312.5C 2654.78,6247.16 2524.45,6174.66 2398.5,6095C 2191.88,5962.96 1997.88,5813.96 1816.5,5648C 1773.25,5607.75 1730.92,5566.42 1689.5,5524C 1656.7,5496.2 1626.2,5466.03 1598,5433.5C 1565.79,5394.28 1532.45,5355.95 1498,5318.5C 1463.67,5277.17 1429.33,5235.83 1395,5194.5C 1351.95,5138.45 1309.28,5082.12 1267,5025.5C 1176.53,4895.6 1093.2,4760.94 1017,4621.5C 957.614,4509.33 903.614,4394.66 855,4277.5C 743.432,4007.24 667.098,3727.24 626,3437.5C 589.907,3177.04 588.24,2916.37 621,2655.5C 671.039,2270.64 803.373,1917.64 1018,1596.5C 1026.42,1583.99 1035.09,1571.66 1044,1559.5C 1202.76,1359.91 1360.93,1159.91 1518.5,959.5 Z"/></g>
<g><path style="opacity:0.004" fill="#0000ff" d="M 7372.5,1799.5 C 7373.83,1800.17 7373.83,1800.17 7372.5,1799.5 Z"/></g>
</svg>
