<?xml version="1.0" encoding="UTF-8"?>
<!DOCTYPE svg PUBLIC "-//W3C//DTD SVG 1.1//EN" "http://www.w3.org/Graphics/SVG/1.1/DTD/svg11.dtd">
<svg xmlns="http://www.w3.org/2000/svg" version="1.1" width="500px" height="500px" style="shape-rendering:geometricPrecision; text-rendering:geometricPrecision; image-rendering:optimizeQuality; fill-rule:evenodd; clip-rule:evenodd" xmlns:xlink="http://www.w3.org/1999/xlink">
<g><path style="opacity:0.995" fill="#1b1b1b" d="M 230.5,-0.5 C 232.5,-0.5 234.5,-0.5 236.5,-0.5C 235.391,0.28997 234.058,0.78997 232.5,1C 154.965,78.7013 77.2988,156.201 -0.5,233.5C -0.5,231.5 -0.5,229.5 -0.5,227.5C 0.486525,222.68 1.15319,217.68 1.5,212.5C 71.8603,142.473 142.194,72.4729 212.5,2.5C 218.577,1.36541 224.577,0.365409 230.5,-0.5 Z"/></g>
<g><path style="opacity:0.998" fill="#222222" d="M 236.5,-0.5 C 240.167,-0.5 243.833,-0.5 247.5,-0.5C 247.918,0.221579 248.584,0.721579 249.5,1C 166.299,84.368 82.9654,167.535 -0.5,250.5C -0.5,244.833 -0.5,239.167 -0.5,233.5C 77.2988,156.201 154.965,78.7013 232.5,1C 234.058,0.78997 235.391,0.28997 236.5,-0.5 Z"/></g>
<g><path style="opacity:0.999" fill="#282828" d="M 247.5,-0.5 C 253.833,-0.5 260.167,-0.5 266.5,-0.5C 266.5,-0.166667 266.5,0.166667 266.5,0.5C 177.833,89.8333 88.8333,178.833 -0.5,267.5C -0.5,261.833 -0.5,256.167 -0.5,250.5C 82.9654,167.535 166.299,84.368 249.5,1C 248.584,0.721579 247.918,0.221579 247.5,-0.5 Z"/></g>
<g><path style="opacity:0.998" fill="#2e2e2e" d="M 266.5,0.5 C 266.833,0.5 267.167,0.5 267.5,0.5C 271.385,1.49009 275.385,2.49009 279.5,3.5C 187.118,96.8821 94.1181,189.549 0.5,281.5C 0.8064,278.615 0.473067,275.948 -0.5,273.5C -0.5,271.5 -0.5,269.5 -0.5,267.5C 88.8333,178.833 177.833,89.8333 266.5,0.5 Z"/></g>
<g><path style="opacity:0.995" fill="#151515" d="M 212.5,2.5 C 142.194,72.4729 71.8603,142.473 1.5,212.5C 2.67497,204.944 4.34164,197.611 6.5,190.5C 68.8055,129.861 130.472,68.528 191.5,6.5C 198.395,4.65442 205.395,3.32109 212.5,2.5 Z"/></g>
<g><path style="opacity:0.999" fill="#353535" d="M 279.5,3.5 C 284.579,4.97065 289.579,6.63731 294.5,8.5C 254.535,48.9654 214.368,89.2987 174,129.5C 173.536,130.094 173.369,130.761 173.5,131.5C 141.896,145.438 118.896,168.104 104.5,199.5C 70.1892,232.144 36.5226,265.477 3.5,299.5C 2.49705,293.465 1.49705,287.465 0.5,281.5C 94.1181,189.549 187.118,96.8821 279.5,3.5 Z"/></g>
<g><path style="opacity:0.993" fill="#0f0f0f" d="M 191.5,6.5 C 130.472,68.528 68.8055,129.861 6.5,190.5C 7.85453,182.444 10.1879,174.777 13.5,167.5C 64.8333,116.833 115.833,65.8333 166.5,14.5C 174.492,11.0594 182.825,8.39277 191.5,6.5 Z"/></g>
<g><path style="opacity:0.953" fill="#bebebe" d="M 267.5,0.5 C 285.912,1.64922 303.912,4.98255 321.5,10.5C 320.243,13.4274 318.243,15.7607 315.5,17.5C 312.167,16.1667 308.833,14.8333 305.5,13.5C 302.021,11.5969 298.354,9.93021 294.5,8.5C 289.579,6.63731 284.579,4.97065 279.5,3.5C 275.385,2.49009 271.385,1.49009 267.5,0.5 Z"/></g>
<g><path style="opacity:1" fill="#3b3b3b" d="M 294.5,8.5 C 298.354,9.93021 302.021,11.5969 305.5,13.5C 268.833,50.5 232.167,87.5 195.5,124.5C 192.748,125.512 190.081,126.512 187.5,127.5C 182.53,127.824 177.863,129.157 173.5,131.5C 173.369,130.761 173.536,130.094 174,129.5C 214.368,89.2987 254.535,48.9654 294.5,8.5 Z"/></g>
<g><path style="opacity:1" fill="#414141" d="M 305.5,13.5 C 308.833,14.8333 312.167,16.1667 315.5,17.5C 315.5,18.1667 315.833,18.5 316.5,18.5C 283.085,53.4162 249.085,87.9162 214.5,122C 213.263,122.232 212.263,122.732 211.5,123.5C 210.833,123.5 210.167,123.5 209.5,123.5C 204.797,123.437 200.13,123.771 195.5,124.5C 232.167,87.5 268.833,50.5 305.5,13.5 Z"/></g>
<g><path style="opacity:0.99" fill="#090909" d="M 166.5,14.5 C 115.833,65.8333 64.8333,116.833 13.5,167.5C 16.3449,157.284 20.3449,147.617 25.5,138.5C 62.8333,101.833 99.8333,64.8333 136.5,27.5C 145.976,22.0988 155.976,17.7654 166.5,14.5 Z"/></g>
<g><path style="opacity:1" fill="#474747" d="M 316.5,18.5 C 320.221,20.3535 323.554,22.6869 326.5,25.5C 294.368,58.132 262.035,90.632 229.5,123C 228.552,123.483 227.552,123.649 226.5,123.5C 225.5,123.5 224.5,123.5 223.5,123.5C 219.5,123.5 215.5,123.5 211.5,123.5C 212.263,122.732 213.263,122.232 214.5,122C 249.085,87.9162 283.085,53.4162 316.5,18.5 Z"/></g>
<g><path style="opacity:0.977" fill="#aeaeae" d="M 321.5,10.5 C 334.173,14.6703 346.507,19.6703 358.5,25.5C 355.167,30.8333 350.833,35.1667 345.5,38.5C 342.888,37.2213 340.555,35.5547 338.5,33.5C 334.754,30.4152 330.754,27.7485 326.5,25.5C 323.554,22.6869 320.221,20.3535 316.5,18.5C 315.833,18.5 315.5,18.1667 315.5,17.5C 318.243,15.7607 320.243,13.4274 321.5,10.5 Z"/></g>
<g><path style="opacity:1" fill="#4e4e4e" d="M 326.5,25.5 C 330.754,27.7485 334.754,30.4152 338.5,33.5C 307.5,64.8333 276.5,96.1667 245.5,127.5C 239.047,126.144 232.713,124.811 226.5,123.5C 227.552,123.649 228.552,123.483 229.5,123C 262.035,90.632 294.368,58.132 326.5,25.5 Z"/></g>
<g><path style="opacity:0.933" fill="#030303" d="M 136.5,27.5 C 99.8333,64.8333 62.8333,101.833 25.5,138.5C 47.1968,96.2964 78.1968,62.4631 118.5,37C 124.396,33.5531 130.396,30.3865 136.5,27.5 Z"/></g>
<g><path style="opacity:0.981" fill="#a1a1a1" d="M 358.5,25.5 C 366.364,29.5956 374.031,33.9289 381.5,38.5C 375.445,44.5596 369.111,50.2263 362.5,55.5C 360.167,53.5 357.833,51.5 355.5,49.5C 352.833,46.1667 349.833,43.1667 346.5,40.5C 346.167,39.8333 345.833,39.1667 345.5,38.5C 350.833,35.1667 355.167,30.8333 358.5,25.5 Z"/></g>
<g><path style="opacity:0.997" fill="#545454" d="M 338.5,33.5 C 340.555,35.5547 342.888,37.2213 345.5,38.5C 345.833,39.1667 346.167,39.8333 346.5,40.5C 317.085,71.416 287.085,101.916 256.5,132C 257.056,132.383 257.389,132.883 257.5,133.5C 254.378,132.439 251.378,131.105 248.5,129.5C 247.71,128.599 246.71,127.932 245.5,127.5C 276.5,96.1667 307.5,64.8333 338.5,33.5 Z"/></g>
<g><path style="opacity:0.997" fill="#5a5a5a" d="M 346.5,40.5 C 349.833,43.1667 352.833,46.1667 355.5,49.5C 325.833,79.5 296.167,109.5 266.5,139.5C 263.477,137.467 260.477,135.467 257.5,133.5C 257.389,132.883 257.056,132.383 256.5,132C 287.085,101.916 317.085,71.416 346.5,40.5 Z"/></g>
<g><path style="opacity:0.989" fill="#949494" d="M 381.5,38.5 C 388.554,42.6868 395.221,47.3534 401.5,52.5C 394.112,60.8894 386.112,68.5561 377.5,75.5C 375.737,72.9804 373.737,70.6471 371.5,68.5C 369.792,64.4281 367.126,61.0948 363.5,58.5C 363.443,57.391 363.11,56.391 362.5,55.5C 369.111,50.2263 375.445,44.5596 381.5,38.5 Z"/></g>
<g><path style="opacity:0.997" fill="#606060" d="M 355.5,49.5 C 357.833,51.5 360.167,53.5 362.5,55.5C 363.11,56.391 363.443,57.391 363.5,58.5C 333.833,87.5 304.5,116.833 275.5,146.5C 272.681,143.925 269.681,141.592 266.5,139.5C 296.167,109.5 325.833,79.5 355.5,49.5 Z"/></g>
<g><path style="opacity:0.996" fill="#666666" d="M 363.5,58.5 C 367.126,61.0948 369.792,64.4281 371.5,68.5C 343.55,98.117 314.884,127.117 285.5,155.5C 282.167,152.5 278.833,149.5 275.5,146.5C 304.5,116.833 333.833,87.5 363.5,58.5 Z"/></g>
<g><path style="opacity:0.99" fill="#888888" d="M 401.5,52.5 C 408.109,56.7763 414.109,61.7763 419.5,67.5C 410.758,77.7461 401.425,87.5795 391.5,97C 390.906,97.4643 390.239,97.631 389.5,97.5C 388.071,94.3037 386.405,91.3037 384.5,88.5C 383,84.827 381,81.4937 378.5,78.5C 378.443,77.391 378.11,76.391 377.5,75.5C 386.112,68.5561 394.112,60.8894 401.5,52.5 Z"/></g>
<g><path style="opacity:0.993" fill="#7f7f7f" d="M 419.5,67.5 C 423.791,70.1231 427.457,73.4564 430.5,77.5C 419.202,88.2979 408.035,99.2979 397,110.5C 397.019,112.107 397.185,113.774 397.5,115.5C 396.883,115.389 396.383,115.056 396,114.5C 368.667,141.833 341.333,169.167 314,196.5C 313.517,197.448 313.351,198.448 313.5,199.5C 311.375,194.488 309.042,189.488 306.5,184.5C 334.105,156.395 361.938,128.395 390,100.5C 390.47,99.4232 390.303,98.4232 389.5,97.5C 390.239,97.631 390.906,97.4643 391.5,97C 401.425,87.5795 410.758,77.7461 419.5,67.5 Z"/></g>
<g><path style="opacity:0.997" fill="#6d6d6d" d="M 371.5,68.5 C 373.737,70.6471 375.737,72.9804 377.5,75.5C 378.11,76.391 378.443,77.391 378.5,78.5C 350.167,107.167 321.833,135.833 293.5,164.5C 290.862,161.526 288.195,158.526 285.5,155.5C 314.884,127.117 343.55,98.117 371.5,68.5 Z"/></g>
<g><path style="opacity:0.996" fill="#737373" d="M 378.5,78.5 C 381,81.4937 383,84.827 384.5,88.5C 357.217,117.45 329.217,145.784 300.5,173.5C 297.936,170.72 295.603,167.72 293.5,164.5C 321.833,135.833 350.167,107.167 378.5,78.5 Z"/></g>
<g><path style="opacity:0.99" fill="#757575" d="M 430.5,77.5 C 436.176,83.177 441.509,89.177 446.5,95.5C 445.761,95.369 445.094,95.5357 444.5,96C 431.299,109.369 417.965,122.535 404.5,135.5C 403.304,132.579 402.304,129.579 401.5,126.5C 400.167,122.833 398.833,119.167 397.5,115.5C 397.185,113.774 397.019,112.107 397,110.5C 408.035,99.2979 419.202,88.2979 430.5,77.5 Z"/></g>
<g><path style="opacity:0.996" fill="#797979" d="M 384.5,88.5 C 386.405,91.3037 388.071,94.3037 389.5,97.5C 390.303,98.4232 390.47,99.4232 390,100.5C 361.938,128.395 334.105,156.395 306.5,184.5C 304.234,180.966 302.234,177.3 300.5,173.5C 329.217,145.784 357.217,117.45 384.5,88.5 Z"/></g>
<g><path style="opacity:0.99" fill="#6d6d6d" d="M 446.5,95.5 C 449.516,98.5203 452.183,101.854 454.5,105.5C 453.448,105.351 452.448,105.517 451.5,106C 437.333,120.167 423.167,134.333 409,148.5C 408.51,149.793 408.343,151.127 408.5,152.5C 408.167,152.5 407.833,152.5 407.5,152.5C 407.489,147.83 406.489,143.497 404.5,139.5C 404.5,138.167 404.5,136.833 404.5,135.5C 417.965,122.535 431.299,109.369 444.5,96C 445.094,95.5357 445.761,95.369 446.5,95.5 Z"/></g>
<g><path style="opacity:0.993" fill="#666666" d="M 454.5,105.5 C 457.255,108.917 459.588,112.583 461.5,116.5C 444.585,131.912 428.085,147.912 412,164.5C 411.51,165.793 411.343,167.127 411.5,168.5C 410.508,163.293 409.508,157.96 408.5,152.5C 408.343,151.127 408.51,149.793 409,148.5C 423.167,134.333 437.333,120.167 451.5,106C 452.448,105.517 453.448,105.351 454.5,105.5 Z"/></g>
<g><path style="opacity:0.996" fill="#868686" d="M 397.5,115.5 C 398.833,119.167 400.167,122.833 401.5,126.5C 372.523,153.81 344.19,181.81 316.5,210.5C 315.297,206.89 314.297,203.223 313.5,199.5C 313.351,198.448 313.517,197.448 314,196.5C 341.333,169.167 368.667,141.833 396,114.5C 396.383,115.056 396.883,115.389 397.5,115.5 Z"/></g>
<g><path style="opacity:0.993" fill="#606060" d="M 461.5,116.5 C 464,119.494 466,122.827 467.5,126.5C 449.535,143.965 431.701,161.632 414,179.5C 413.506,181.134 413.34,182.801 413.5,184.5C 412.833,184.5 412.5,184.167 412.5,183.5C 412.276,179.821 411.942,176.154 411.5,172.5C 411.5,171.167 411.5,169.833 411.5,168.5C 411.343,167.127 411.51,165.793 412,164.5C 428.085,147.912 444.585,131.912 461.5,116.5 Z"/></g>
<g><path style="opacity:1" fill="#bdbdbd" d="M 209.5,123.5 C 170.535,162.965 131.368,202.299 92,241.5C 91.51,240.207 91.3433,238.873 91.5,237.5C 92.0078,233.803 92.6745,230.136 93.5,226.5C 94.6346,223.098 95.9679,219.765 97.5,216.5C 97.369,217.239 97.5357,217.906 98,218.5C 128.706,188.3 158.54,157.966 187.5,127.5C 190.081,126.512 192.748,125.512 195.5,124.5C 200.13,123.771 204.797,123.437 209.5,123.5 Z"/></g>
<g><path style="opacity:1" fill="#b8b8b8" d="M 209.5,123.5 C 210.167,123.5 210.833,123.5 211.5,123.5C 215.5,123.5 219.5,123.5 223.5,123.5C 223.611,124.117 223.944,124.617 224.5,125C 179.333,170.167 134.167,215.333 89,260.5C 88.5065,258.866 88.3398,257.199 88.5,255.5C 88.4013,252.763 88.7347,250.096 89.5,247.5C 89.5488,243.922 90.2154,240.589 91.5,237.5C 91.3433,238.873 91.51,240.207 92,241.5C 131.368,202.299 170.535,162.965 209.5,123.5 Z"/></g>
<g><path style="opacity:0.995" fill="#b1b1b1" d="M 223.5,123.5 C 224.5,123.5 225.5,123.5 226.5,123.5C 232.713,124.811 239.047,126.144 245.5,127.5C 246.71,127.932 247.71,128.599 248.5,129.5C 238.847,134.326 229.847,140.16 221.5,147C 213.567,154.428 206.234,162.261 199.5,170.5C 161.833,207.833 124.167,245.167 86.5,282.5C 86.5,280.833 86.5,279.167 86.5,277.5C 86.5,273.833 86.5,270.167 86.5,266.5C 86.8084,262.64 87.4751,258.974 88.5,255.5C 88.3398,257.199 88.5065,258.866 89,260.5C 134.167,215.333 179.333,170.167 224.5,125C 223.944,124.617 223.611,124.117 223.5,123.5 Z"/></g>
<g><path style="opacity:0.996" fill="#8c8c8c" d="M 401.5,126.5 C 402.304,129.579 403.304,132.579 404.5,135.5C 404.5,136.833 404.5,138.167 404.5,139.5C 376.167,167.5 347.833,195.5 319.5,223.5C 318.651,219.106 317.651,214.772 316.5,210.5C 344.19,181.81 372.523,153.81 401.5,126.5 Z"/></g>
<g><path style="opacity:0.996" fill="#5a5a5a" d="M 467.5,126.5 C 469.988,129.466 471.988,132.799 473.5,136.5C 453.115,155.884 433.449,175.884 414.5,196.5C 413.517,192.702 413.183,188.702 413.5,184.5C 413.34,182.801 413.506,181.134 414,179.5C 431.701,161.632 449.535,143.965 467.5,126.5 Z"/></g>
<g><path style="opacity:1" fill="#c3c3c3" d="M 187.5,127.5 C 158.54,157.966 128.706,188.3 98,218.5C 97.5357,217.906 97.369,217.239 97.5,216.5C 99.2455,210.598 101.579,204.932 104.5,199.5C 118.896,168.104 141.896,145.438 173.5,131.5C 177.863,129.157 182.53,127.824 187.5,127.5 Z"/></g>
<g><path style="opacity:0.995" fill="#545454" d="M 473.5,136.5 C 475.438,140.043 477.105,143.71 478.5,147.5C 457.5,169.167 436.167,190.5 414.5,211.5C 414.5,206.5 414.5,201.5 414.5,196.5C 433.449,175.884 453.115,155.884 473.5,136.5 Z"/></g>
<g><path style="opacity:0.997" fill="#929292" d="M 404.5,139.5 C 406.489,143.497 407.489,147.83 407.5,152.5C 378.473,180.86 349.806,209.527 321.5,238.5C 320.915,233.485 320.248,228.485 319.5,223.5C 347.833,195.5 376.167,167.5 404.5,139.5 Z"/></g>
<g><path style="opacity:0.995" fill="#4d4d4d" d="M 478.5,147.5 C 481.012,151.866 483.012,156.533 484.5,161.5C 460.473,184.86 436.806,208.527 413.5,232.5C 413.5,230.833 413.5,229.167 413.5,227.5C 414.488,222.36 414.821,217.026 414.5,211.5C 436.167,190.5 457.5,169.167 478.5,147.5 Z"/></g>
<g><path style="opacity:0.993" fill="#989898" d="M 407.5,152.5 C 407.833,152.5 408.167,152.5 408.5,152.5C 409.508,157.96 410.508,163.293 411.5,168.5C 411.5,169.833 411.5,171.167 411.5,172.5C 410.732,171.737 410.232,170.737 410,169.5C 380.916,199.085 351.416,228.085 321.5,256.5C 321.5,250.5 321.5,244.5 321.5,238.5C 349.806,209.527 378.473,180.86 407.5,152.5 Z"/></g>
<g><path style="opacity:0.997" fill="#474747" d="M 484.5,161.5 C 486.232,165.697 487.565,170.031 488.5,174.5C 461.752,200.247 435.752,226.58 410.5,253.5C 411.796,248.938 412.462,244.271 412.5,239.5C 413.468,237.393 413.802,235.059 413.5,232.5C 436.806,208.527 460.473,184.86 484.5,161.5 Z"/></g>
<g><path style="opacity:0.995" fill="#9f9f9f" d="M 411.5,172.5 C 411.942,176.154 412.276,179.821 412.5,183.5C 381.833,213.833 351.167,244.167 320.5,274.5C 320.966,268.509 321.299,262.509 321.5,256.5C 351.416,228.085 380.916,199.085 410,169.5C 410.232,170.737 410.732,171.737 411.5,172.5 Z"/></g>
<g><path style="opacity:0.99" fill="#ababab" d="M 199.5,170.5 C 193.031,180.881 187.698,191.881 183.5,203.5C 151.251,234.248 119.417,265.581 88,297.5C 87.6174,296.944 87.1174,296.611 86.5,296.5C 86.5,291.833 86.5,287.167 86.5,282.5C 124.167,245.167 161.833,207.833 199.5,170.5 Z"/></g>
<g><path style="opacity:0.997" fill="#414141" d="M 488.5,174.5 C 490.125,178.303 491.458,182.303 492.5,186.5C 464.368,214.132 436.368,241.965 408.5,270C 407.906,270.464 407.239,270.631 406.5,270.5C 408.131,265.976 409.131,261.309 409.5,256.5C 410.404,255.791 410.737,254.791 410.5,253.5C 435.752,226.58 461.752,200.247 488.5,174.5 Z"/></g>
<g><path style="opacity:0.994" fill="#a4a4a4" d="M 412.5,183.5 C 412.5,184.167 412.833,184.5 413.5,184.5C 413.183,188.702 413.517,192.702 414.5,196.5C 414.5,201.5 414.5,206.5 414.5,211.5C 414.821,217.026 414.488,222.36 413.5,227.5C 413.5,223.833 413.5,220.167 413.5,216.5C 413.666,210.824 413.499,205.157 413,199.5C 380.633,232.373 348.133,264.373 315.5,295.5C 317.039,288.349 318.706,281.349 320.5,274.5C 351.167,244.167 381.833,213.833 412.5,183.5 Z"/></g>
<g><path style="opacity:0.996" fill="#3b3b3b" d="M 492.5,186.5 C 493.499,191.162 494.499,195.829 495.5,200.5C 462.167,233.5 428.833,266.5 395.5,299.5C 398.118,293.265 400.452,286.932 402.5,280.5C 404.01,277.317 405.343,273.984 406.5,270.5C 407.239,270.631 407.906,270.464 408.5,270C 436.368,241.965 464.368,214.132 492.5,186.5 Z"/></g>
<g><path style="opacity:0.996" fill="#3b3b3b" d="M 104.5,199.5 C 101.579,204.932 99.2455,210.598 97.5,216.5C 95.9679,219.765 94.6346,223.098 93.5,226.5C 64.868,254.632 36.368,282.965 8,311.5C 7.51722,312.448 7.35055,313.448 7.5,314.5C 5.72106,309.724 4.38773,304.724 3.5,299.5C 36.5226,265.477 70.1892,232.144 104.5,199.5 Z"/></g>
<g><path style="opacity:0.991" fill="#ababab" d="M 413.5,216.5 C 375.868,253.632 338.368,290.965 301,328.5C 300.601,328.272 300.435,327.938 300.5,327.5C 306.597,317.308 311.597,306.641 315.5,295.5C 348.133,264.373 380.633,232.373 413,199.5C 413.499,205.157 413.666,210.824 413.5,216.5 Z"/></g>
<g><path style="opacity:0.998" fill="#353535" d="M 495.5,200.5 C 496.601,205.773 497.267,211.106 497.5,216.5C 405.167,309.167 312.833,401.833 220.5,494.5C 216.031,493.565 211.697,492.232 207.5,490.5C 207.389,489.883 207.056,489.383 206.5,489C 247.035,448.632 287.368,408.132 327.5,367.5C 357.194,351.806 379.861,329.139 395.5,299.5C 428.833,266.5 462.167,233.5 495.5,200.5 Z"/></g>
<g><path style="opacity:0.995" fill="#a5a5a5" d="M 183.5,203.5 C 181.52,210.087 179.853,216.754 178.5,223.5C 148.811,254.19 118.477,284.19 87.5,313.5C 87.577,309.785 87.2436,306.119 86.5,302.5C 86.5,300.5 86.5,298.5 86.5,296.5C 87.1174,296.611 87.6174,296.944 88,297.5C 119.417,265.581 151.251,234.248 183.5,203.5 Z"/></g>
<g><path style="opacity:0.994" fill="#b1b1b1" d="M 413.5,216.5 C 413.5,220.167 413.5,223.833 413.5,227.5C 413.5,229.167 413.5,230.833 413.5,232.5C 413.802,235.059 413.468,237.393 412.5,239.5C 412.649,238.448 412.483,237.448 412,236.5C 364.965,283.368 318.132,330.368 271.5,377.5C 270.167,377.5 268.833,377.5 267.5,377.5C 262.457,376.322 257.457,374.989 252.5,373.5C 251.5,372.833 250.5,372.167 249.5,371.5C 269.873,360.803 286.873,346.136 300.5,327.5C 300.435,327.938 300.601,328.272 301,328.5C 338.368,290.965 375.868,253.632 413.5,216.5 Z"/></g>
<g><path style="opacity:0.999" fill="#2e2e2e" d="M 497.5,216.5 C 498.167,219.833 498.833,223.167 499.5,226.5C 499.5,227.5 499.5,228.5 499.5,229.5C 498.71,230.609 498.21,231.942 498,233.5C 409.965,321.368 322.132,409.368 234.5,497.5C 229.714,496.926 225.048,495.926 220.5,494.5C 312.833,401.833 405.167,309.167 497.5,216.5 Z"/></g>
<g><path style="opacity:0.995" fill="#9f9f9f" d="M 178.5,223.5 C 177.57,230.805 176.903,238.138 176.5,245.5C 175.883,245.389 175.383,245.056 175,244.5C 146.632,273.035 118.132,301.368 89.5,329.5C 89.1667,329.5 88.8333,329.5 88.5,329.5C 88.8168,325.298 88.4834,321.298 87.5,317.5C 87.5,316.167 87.5,314.833 87.5,313.5C 118.477,284.19 148.811,254.19 178.5,223.5 Z"/></g>
<g><path style="opacity:0.997" fill="#414141" d="M 93.5,226.5 C 92.6745,230.136 92.0078,233.803 91.5,237.5C 90.2154,240.589 89.5488,243.922 89.5,247.5C 63.1398,273.527 36.8065,299.527 10.5,325.5C 8.92569,322.093 7.92569,318.427 7.5,314.5C 7.35055,313.448 7.51722,312.448 8,311.5C 36.368,282.965 64.868,254.632 93.5,226.5 Z"/></g>
<g><path style="opacity:0.999" fill="#282828" d="M 499.5,229.5 C 499.5,235.833 499.5,242.167 499.5,248.5C 415.5,331.833 331.833,415.5 248.5,499.5C 246.833,499.5 245.167,499.5 243.5,499.5C 240.5,498.833 237.5,498.167 234.5,497.5C 322.132,409.368 409.965,321.368 498,233.5C 498.21,231.942 498.71,230.609 499.5,229.5 Z"/></g>
<g><path style="opacity:1" fill="#b7b7b7" d="M 412.5,239.5 C 412.462,244.271 411.796,248.938 410.5,253.5C 410.737,254.791 410.404,255.791 409.5,256.5C 368.7,295.795 328.034,335.962 287.5,377C 288.094,377.464 288.761,377.631 289.5,377.5C 287.735,378.461 285.735,378.795 283.5,378.5C 279.298,378.817 275.298,378.483 271.5,377.5C 318.132,330.368 364.965,283.368 412,236.5C 412.483,237.448 412.649,238.448 412.5,239.5 Z"/></g>
<g><path style="opacity:0.995" fill="#989898" d="M 176.5,245.5 C 176.5,251.167 176.5,256.833 176.5,262.5C 148.701,289.798 121.035,317.298 93.5,345C 92.9056,345.464 92.2389,345.631 91.5,345.5C 90.8333,340.167 90.1667,334.833 89.5,329.5C 118.132,301.368 146.632,273.035 175,244.5C 175.383,245.056 175.883,245.389 176.5,245.5 Z"/></g>
<g><path style="opacity:0.996" fill="#474747" d="M 89.5,247.5 C 88.7347,250.096 88.4013,252.763 88.5,255.5C 87.4751,258.974 86.8084,262.64 86.5,266.5C 62.5,290.167 38.5,313.833 14.5,337.5C 12.5715,333.715 11.2382,329.715 10.5,325.5C 36.8065,299.527 63.1398,273.527 89.5,247.5 Z"/></g>
<g><path style="opacity:0.999" fill="#222222" d="M 499.5,248.5 C 499.5,254.167 499.5,259.833 499.5,265.5C 421.167,343.167 343.167,421.167 265.5,499.5C 259.833,499.5 254.167,499.5 248.5,499.5C 331.833,415.5 415.5,331.833 499.5,248.5 Z"/></g>
<g><path style="opacity:1" fill="#bebebe" d="M 409.5,256.5 C 409.131,261.309 408.131,265.976 406.5,270.5C 405.343,273.984 404.01,277.317 402.5,280.5C 371.034,310.46 339.7,341.294 308.5,373C 308.728,373.399 309.062,373.565 309.5,373.5C 306.919,374.488 304.252,375.488 301.5,376.5C 297.519,377.021 293.519,377.354 289.5,377.5C 288.761,377.631 288.094,377.464 287.5,377C 328.034,335.962 368.7,295.795 409.5,256.5 Z"/></g>
<g><path style="opacity:0.996" fill="#929292" d="M 176.5,262.5 C 177.382,267.097 178.049,271.763 178.5,276.5C 151.035,303.465 123.701,330.632 96.5,358C 95.9056,358.464 95.2389,358.631 94.5,358.5C 93.4902,354.386 92.4902,350.386 91.5,346.5C 91.5,346.167 91.5,345.833 91.5,345.5C 92.2389,345.631 92.9056,345.464 93.5,345C 121.035,317.298 148.701,289.798 176.5,262.5 Z"/></g>
<g><path style="opacity:0.995" fill="#1c1c1c" d="M 499.5,265.5 C 499.5,267.5 499.5,269.5 499.5,271.5C 498.697,277.196 497.697,282.863 496.5,288.5C 426.5,356.832 356.833,426.165 287.5,496.5C 282.189,497.645 276.856,498.645 271.5,499.5C 269.5,499.5 267.5,499.5 265.5,499.5C 343.167,421.167 421.167,343.167 499.5,265.5 Z"/></g>
<g><path style="opacity:0.996" fill="#4e4e4e" d="M 86.5,266.5 C 86.5,270.167 86.5,273.833 86.5,277.5C 85.6787,280.641 85.1787,283.975 85,287.5C 63.632,309.035 42.132,330.368 20.5,351.5C 17.9884,347.134 15.9884,342.467 14.5,337.5C 38.5,313.833 62.5,290.167 86.5,266.5 Z"/></g>
<g><path style="opacity:0.995" fill="#8c8c8c" d="M 178.5,276.5 C 179.627,281.469 180.627,286.469 181.5,291.5C 180.761,291.369 180.094,291.536 179.5,292C 152.632,319.035 125.632,345.868 98.5,372.5C 96.9699,367.907 95.6366,363.241 94.5,358.5C 95.2389,358.631 95.9056,358.464 96.5,358C 123.701,330.632 151.035,303.465 178.5,276.5 Z"/></g>
<g><path style="opacity:1" fill="#c3c3c3" d="M 402.5,280.5 C 400.452,286.932 398.118,293.265 395.5,299.5C 379.861,329.139 357.194,351.806 327.5,367.5C 321.71,370.097 315.71,372.097 309.5,373.5C 309.062,373.565 308.728,373.399 308.5,373C 339.7,341.294 371.034,310.46 402.5,280.5 Z"/></g>
<g><path style="opacity:0.994" fill="#545454" d="M 86.5,277.5 C 86.5,279.167 86.5,280.833 86.5,282.5C 86.5,287.167 86.5,291.833 86.5,296.5C 86.5,298.5 86.5,300.5 86.5,302.5C 66.1667,322.5 45.8333,342.5 25.5,362.5C 23.2694,359.164 21.6027,355.497 20.5,351.5C 42.132,330.368 63.632,309.035 85,287.5C 85.1787,283.975 85.6787,280.641 86.5,277.5 Z"/></g>
<g><path style="opacity:0.995" fill="#151515" d="M 496.5,288.5 C 496.041,295.46 494.708,302.127 492.5,308.5C 430.833,369.5 369.5,430.833 308.5,492.5C 301.674,494.598 294.674,495.932 287.5,496.5C 356.833,426.165 426.5,356.832 496.5,288.5 Z"/></g>
<g><path style="opacity:0.997" fill="#868686" d="M 181.5,291.5 C 183.003,295.341 184.336,299.341 185.5,303.5C 158.368,330.132 131.368,356.965 104.5,384C 103.552,384.483 102.552,384.649 101.5,384.5C 101.101,380.884 100.101,377.55 98.5,374.5C 98.5,373.833 98.5,373.167 98.5,372.5C 125.632,345.868 152.632,319.035 179.5,292C 180.094,291.536 180.761,291.369 181.5,291.5 Z"/></g>
<g><path style="opacity:0.996" fill="#5a5a5a" d="M 86.5,302.5 C 87.2436,306.119 87.577,309.785 87.5,313.5C 87.5,314.833 87.5,316.167 87.5,317.5C 69.1667,336.5 50.5,355.167 31.5,373.5C 29.2495,370.001 27.2495,366.335 25.5,362.5C 45.8333,342.5 66.1667,322.5 86.5,302.5 Z"/></g>
<g><path style="opacity:0.992" fill="#7e7e7e" d="M 185.5,303.5 C 187.736,307.645 189.736,311.978 191.5,316.5C 163.701,343.798 136.035,371.298 108.5,399C 109.252,399.671 109.586,400.504 109.5,401.5C 99.1667,411.5 88.8333,421.5 78.5,431.5C 72.1667,425.833 66.1667,419.833 60.5,413.5C 73.8863,401.115 86.553,388.115 98.5,374.5C 100.101,377.55 101.101,380.884 101.5,384.5C 102.552,384.649 103.552,384.483 104.5,384C 131.368,356.965 158.368,330.132 185.5,303.5 Z"/></g>
<g><path style="opacity:0.993" fill="#0f0f0f" d="M 492.5,308.5 C 490.969,316.289 488.969,323.955 486.5,331.5C 434.216,382.117 382.549,433.451 331.5,485.5C 324.029,488.434 316.362,490.768 308.5,492.5C 369.5,430.833 430.833,369.5 492.5,308.5 Z"/></g>
<g><path style="opacity:0.997" fill="#797979" d="M 191.5,316.5 C 193.485,319.798 195.485,323.131 197.5,326.5C 169.785,354.548 142.118,382.548 114.5,410.5C 112.076,407.992 110.41,404.992 109.5,401.5C 109.586,400.504 109.252,399.671 108.5,399C 136.035,371.298 163.701,343.798 191.5,316.5 Z"/></g>
<g><path style="opacity:0.992" fill="#606060" d="M 87.5,317.5 C 88.4834,321.298 88.8168,325.298 88.5,329.5C 88.6567,330.873 88.49,332.207 88,333.5C 70.9125,350.085 54.4125,367.085 38.5,384.5C 35.8059,381.124 33.4726,377.457 31.5,373.5C 50.5,355.167 69.1667,336.5 87.5,317.5 Z"/></g>
<g><path style="opacity:0.996" fill="#737373" d="M 197.5,326.5 C 199.821,329.796 202.154,333.129 204.5,336.5C 176.167,364.167 148.167,392.167 120.5,420.5C 118.012,417.534 116.012,414.201 114.5,410.5C 142.118,382.548 169.785,354.548 197.5,326.5 Z"/></g>
<g><path style="opacity:0.994" fill="#666666" d="M 88.5,329.5 C 88.8333,329.5 89.1667,329.5 89.5,329.5C 90.1667,334.833 90.8333,340.167 91.5,345.5C 91.5,345.833 91.5,346.167 91.5,346.5C 91.6567,347.873 91.49,349.207 91,350.5C 75.5786,365.419 60.7453,380.752 46.5,396.5C 43.4485,392.777 40.7819,388.777 38.5,384.5C 54.4125,367.085 70.9125,350.085 88,333.5C 88.49,332.207 88.6567,330.873 88.5,329.5 Z"/></g>
<g><path style="opacity:0.99" fill="#090909" d="M 486.5,331.5 C 483.051,341.065 479.051,350.399 474.5,359.5C 436.548,396.785 398.881,434.452 361.5,472.5C 352.035,477.895 342.035,482.228 331.5,485.5C 382.549,433.451 434.216,382.117 486.5,331.5 Z"/></g>
<g><path style="opacity:0.996" fill="#6d6d6d" d="M 204.5,336.5 C 207.138,339.474 209.805,342.474 212.5,345.5C 183.833,373.5 155.5,401.833 127.5,430.5C 125.263,428.353 123.263,426.02 121.5,423.5C 120.89,422.609 120.557,421.609 120.5,420.5C 148.167,392.167 176.167,364.167 204.5,336.5 Z"/></g>
<g><path style="opacity:0.996" fill="#666666" d="M 212.5,345.5 C 215.5,348.167 218.5,350.833 221.5,353.5C 221.631,354.239 221.464,354.906 221,355.5C 192.298,384.035 163.798,412.701 135.5,441.5C 132.102,438.373 129.435,434.707 127.5,430.5C 155.5,401.833 183.833,373.5 212.5,345.5 Z"/></g>
<g><path style="opacity:0.993" fill="#6f6f6f" d="M 91.5,346.5 C 92.4902,350.386 93.4902,354.386 94.5,358.5C 95.6366,363.241 96.9699,367.907 98.5,372.5C 98.5,373.167 98.5,373.833 98.5,374.5C 86.553,388.115 73.8863,401.115 60.5,413.5C 55.605,408.057 50.9383,402.39 46.5,396.5C 60.7453,380.752 75.5786,365.419 91,350.5C 91.49,349.207 91.6567,347.873 91.5,346.5 Z"/></g>
<g><path style="opacity:0.996" fill="#606060" d="M 221.5,353.5 C 225.39,356.271 229.057,359.271 232.5,362.5C 202.917,390.581 173.751,419.248 145,448.5C 144.536,449.094 144.369,449.761 144.5,450.5C 141.833,448.167 139.167,445.833 136.5,443.5C 136.167,442.833 135.833,442.167 135.5,441.5C 163.798,412.701 192.298,384.035 221,355.5C 221.464,354.906 221.631,354.239 221.5,353.5 Z"/></g>
<g><path style="opacity:0.998" fill="#5a5a5a" d="M 232.5,362.5 C 235.511,363.669 238.178,365.336 240.5,367.5C 211.919,397.583 182.752,427.249 153,456.5C 152.536,457.094 152.369,457.761 152.5,458.5C 149.5,456.167 146.833,453.5 144.5,450.5C 144.369,449.761 144.536,449.094 145,448.5C 173.751,419.248 202.917,390.581 232.5,362.5 Z"/></g>
<g><path style="opacity:0.928" fill="#030303" d="M 474.5,359.5 C 449.145,409.522 411.478,447.188 361.5,472.5C 398.881,434.452 436.548,396.785 474.5,359.5 Z"/></g>
<g><path style="opacity:0.997" fill="#545454" d="M 240.5,367.5 C 243.622,368.561 246.622,369.895 249.5,371.5C 250.5,372.167 251.5,372.833 252.5,373.5C 222.167,404.167 191.833,434.833 161.5,465.5C 158.214,463.549 155.214,461.215 152.5,458.5C 152.369,457.761 152.536,457.094 153,456.5C 182.752,427.249 211.919,397.583 240.5,367.5 Z"/></g>
<g><path style="opacity:1" fill="#3b3b3b" d="M 327.5,367.5 C 287.368,408.132 247.035,448.632 206.5,489C 207.056,489.383 207.389,489.883 207.5,490.5C 203.333,489.222 199.333,487.556 195.5,485.5C 195.389,484.883 195.056,484.383 194.5,484C 230.368,448.299 266.035,412.465 301.5,376.5C 304.252,375.488 306.919,374.488 309.5,373.5C 315.71,372.097 321.71,370.097 327.5,367.5 Z"/></g>
<g><path style="opacity:1" fill="#4e4e4e" d="M 252.5,373.5 C 257.457,374.989 262.457,376.322 267.5,377.5C 236.535,408.965 205.368,440.299 174,471.5C 173.536,472.094 173.369,472.761 173.5,473.5C 169.922,471.925 166.589,469.925 163.5,467.5C 162.833,466.833 162.167,466.167 161.5,465.5C 191.833,434.833 222.167,404.167 252.5,373.5 Z"/></g>
<g><path style="opacity:1" fill="#414141" d="M 301.5,376.5 C 266.035,412.465 230.368,448.299 194.5,484C 195.056,484.383 195.389,484.883 195.5,485.5C 191.5,483.833 187.5,482.167 183.5,480.5C 183.5,480.167 183.5,479.833 183.5,479.5C 216.833,445.833 250.167,412.167 283.5,378.5C 285.735,378.795 287.735,378.461 289.5,377.5C 293.519,377.354 297.519,377.021 301.5,376.5 Z"/></g>
<g><path style="opacity:1" fill="#474747" d="M 267.5,377.5 C 268.833,377.5 270.167,377.5 271.5,377.5C 275.298,378.483 279.298,378.817 283.5,378.5C 250.167,412.167 216.833,445.833 183.5,479.5C 179.827,478 176.494,476 173.5,473.5C 173.369,472.761 173.536,472.094 174,471.5C 205.368,440.299 236.535,408.965 267.5,377.5 Z"/></g>
<g><path style="opacity:0.991" fill="#8a8a8a" d="M 109.5,401.5 C 110.41,404.992 112.076,407.992 114.5,410.5C 116.012,414.201 118.012,417.534 120.5,420.5C 120.557,421.609 120.89,422.609 121.5,423.5C 112.887,430.777 104.553,438.443 96.5,446.5C 90.0907,441.966 84.0907,436.966 78.5,431.5C 88.8333,421.5 99.1667,411.5 109.5,401.5 Z"/></g>
<g><path style="opacity:0.989" fill="#969696" d="M 121.5,423.5 C 123.263,426.02 125.263,428.353 127.5,430.5C 129.435,434.707 132.102,438.373 135.5,441.5C 135.833,442.167 136.167,442.833 136.5,443.5C 130.445,449.56 124.111,455.226 117.5,460.5C 109.976,456.575 102.976,451.908 96.5,446.5C 104.553,438.443 112.887,430.777 121.5,423.5 Z"/></g>
<g><path style="opacity:0.975" fill="#a4a4a4" d="M 136.5,443.5 C 139.167,445.833 141.833,448.167 144.5,450.5C 146.833,453.5 149.5,456.167 152.5,458.5C 155.214,461.215 158.214,463.549 161.5,465.5C 162.167,466.167 162.833,466.833 163.5,467.5C 158.313,470.01 153.979,473.676 150.5,478.5C 138.985,473.246 127.985,467.246 117.5,460.5C 124.111,455.226 130.445,449.56 136.5,443.5 Z"/></g>
<g><path style="opacity:0.971" fill="#b2b2b2" d="M 163.5,467.5 C 166.589,469.925 169.922,471.925 173.5,473.5C 176.494,476 179.827,478 183.5,479.5C 183.5,479.833 183.5,480.167 183.5,480.5C 181.167,483.167 178.833,485.833 176.5,488.5C 167.755,485.363 159.088,482.03 150.5,478.5C 153.979,473.676 158.313,470.01 163.5,467.5 Z"/></g>
<g><path style="opacity:0.96" fill="#c1c1c1" d="M 183.5,480.5 C 187.5,482.167 191.5,483.833 195.5,485.5C 199.333,487.556 203.333,489.222 207.5,490.5C 211.697,492.232 216.031,493.565 220.5,494.5C 225.048,495.926 229.714,496.926 234.5,497.5C 237.5,498.167 240.5,498.833 243.5,499.5C 238.5,499.5 233.5,499.5 228.5,499.5C 211.014,497.135 193.681,493.468 176.5,488.5C 178.833,485.833 181.167,483.167 183.5,480.5 Z"/></g>
</svg>
