<?xml version="1.0" encoding="UTF-8"?>
<!DOCTYPE svg PUBLIC "-//W3C//DTD SVG 1.1//EN" "http://www.w3.org/Graphics/SVG/1.1/DTD/svg11.dtd">
<svg xmlns="http://www.w3.org/2000/svg" version="1.1" width="800px" height="531px" style="shape-rendering:geometricPrecision; text-rendering:geometricPrecision; image-rendering:optimizeQuality; fill-rule:evenodd; clip-rule:evenodd" xmlns:xlink="http://www.w3.org/1999/xlink">
<g><path style="opacity:0.985" fill="#032b63" d="M 774.5,-0.5 C 779.5,-0.5 784.5,-0.5 789.5,-0.5C 793.808,1.80818 797.142,5.14152 799.5,9.5C 799.5,17.5 799.5,25.5 799.5,33.5C 797.467,45.4151 792.967,56.4151 786,66.5C 780.199,73.3025 774.032,79.8025 767.5,86C 750.785,98.3755 734.951,111.876 720,126.5C 710.813,136.535 704.48,148.202 701,161.5C 687.488,228.215 671.154,294.215 652,359.5C 648.818,385.592 653.818,409.926 667,432.5C 671.167,437.839 676.334,441.839 682.5,444.5C 665.702,456.2 647.036,461.034 626.5,459C 604.623,457.671 586.957,448.505 573.5,431.5C 568.221,433.473 563.221,435.973 558.5,439C 554.333,443.167 550.167,447.333 546,451.5C 538.419,462.328 531.085,473.328 524,484.5C 519.833,490 515,494.833 509.5,499C 482.042,513.984 453.042,524.484 422.5,530.5C 415.167,530.5 407.833,530.5 400.5,530.5C 398.075,528.83 397.909,526.83 400,524.5C 412.824,507.518 425.158,490.185 437,472.5C 440.585,465.831 443.752,458.998 446.5,452C 394.647,441.95 342.314,435.783 289.5,433.5C 253.143,431.421 219.81,440.254 189.5,460C 169.431,476.375 147.431,489.708 123.5,500C 93.0686,511.974 61.7353,515.307 29.5,510C 23.7183,508.631 18.3849,506.297 13.5,503C 9.70116,498.667 9.53449,494.167 13,489.5C 21.5,483 30,476.5 38.5,470C 30.8193,470.958 23.1526,470.625 15.5,469C 9.19339,466.528 3.86006,462.694 -0.5,457.5C -0.5,456.5 -0.5,455.5 -0.5,454.5C 15.9429,439.842 35.2762,431.675 57.5,430C 78.5589,428.574 99.5589,426.574 120.5,424C 128.024,422.714 135.024,420.047 141.5,416C 147.033,410.802 152.2,405.302 157,399.5C 165.061,387.768 172.728,375.768 180,363.5C 184.5,358.333 189,353.167 193.5,348C 227.251,317.779 265.918,295.779 309.5,282C 346.324,273.627 382.991,264.627 419.5,255C 447.565,246.468 473.232,233.468 496.5,216C 514.654,198.86 530.154,179.693 543,158.5C 558.21,132.633 574.21,107.3 591,82.5C 602.15,68.0177 614.65,54.851 628.5,43C 647.76,28.5441 669.427,19.8774 693.5,17C 716.955,15.507 739.955,11.507 762.5,5C 766.644,3.24107 770.644,1.40774 774.5,-0.5 Z"/></g>
<g><path style="opacity:1" fill="#c3996b" d="M 752.5,84.5 C 750.757,69.3735 754.257,55.3735 763,42.5C 763.351,38.9006 762.351,38.5672 760,41.5C 753.035,53.2278 749.202,65.8945 748.5,79.5C 748.539,81.9522 749.206,83.9522 750.5,85.5C 737.878,94.1584 725.544,103.325 713.5,113C 704.741,120.755 697.908,129.922 693,140.5C 689.378,150.989 686.378,161.655 684,172.5C 675.397,218.64 663.73,263.973 649,308.5C 639.306,337.234 624.973,363.234 606,386.5C 597.182,395.825 587.348,403.825 576.5,410.5C 575.031,407.702 574.198,404.702 574,401.5C 573.667,395.167 573.333,388.833 573,382.5C 572.393,378.619 570.726,375.286 568,372.5C 559.29,395.255 548.956,417.255 537,438.5C 510.098,479.202 472.598,503.702 424.5,512C 442.428,489.662 456.928,465.162 468,438.5C 476.722,414.614 481.222,389.947 481.5,364.5C 476.398,365.757 472.565,368.757 470,373.5C 463.528,389.248 456.862,404.915 450,420.5C 447.5,424.333 444.333,427.5 440.5,430C 422.843,431.834 405.176,431.834 387.5,430C 359.868,426.67 332.202,423.67 304.5,421C 266.41,415.952 230.743,422.952 197.5,442C 176.827,455.674 155.494,468.341 133.5,480C 98.7181,496.056 62.3847,501.223 24.5,495.5C 24.472,493.418 25.1387,491.584 26.5,490C 36.1334,484.599 44.9668,478.099 53,470.5C 55.0063,467.464 55.8396,464.131 55.5,460.5C 44.495,460.667 33.495,460.5 22.5,460C 18.825,459.443 15.4917,458.11 12.5,456C 20.6631,446.75 30.9964,441.417 43.5,440C 70.5054,437.724 97.5054,435.391 124.5,433C 131.872,431.741 138.872,429.408 145.5,426C 150,421.5 154.5,417 159,412.5C 169.722,398.11 180.056,383.444 190,368.5C 208.255,348.242 229.422,331.742 253.5,319C 273.466,308.35 294.132,299.35 315.5,292C 339.305,285.81 363.305,280.477 387.5,276C 432.84,265.242 474.173,246.242 511.5,219C 530.008,201.777 545.508,182.277 558,160.5C 573.497,132.159 590.497,104.826 609,78.5C 641.381,39.0218 683.214,22.1885 734.5,28C 742.033,27.5276 749.033,25.3609 755.5,21.5C 758.601,30.4192 764.935,35.5859 774.5,37C 777.146,37.4974 779.813,37.6641 782.5,37.5C 781.747,48.6734 777.914,58.6734 771,67.5C 765.263,73.7411 759.097,79.4078 752.5,84.5 Z"/></g>
<g><path style="opacity:1" fill="#1c3464" d="M 751.5,27.5 C 752.376,27.3691 753.043,27.7025 753.5,28.5C 749.188,33.9799 744.688,39.3132 740,44.5C 731.068,56.0269 723.401,68.3602 717,81.5C 716.516,79.0871 716.85,76.7538 718,74.5C 726.669,57.0066 737.835,41.3399 751.5,27.5 Z"/></g>
<g><path style="opacity:1" fill="#1c3464" d="M 752.5,84.5 C 752.158,85.3382 751.492,85.6716 750.5,85.5C 749.206,83.9522 748.539,81.9522 748.5,79.5C 749.202,65.8945 753.035,53.2278 760,41.5C 762.351,38.5672 763.351,38.9006 763,42.5C 754.257,55.3735 750.757,69.3735 752.5,84.5 Z"/></g>
<g><path style="opacity:1" fill="#072c64" d="M 683.5,49.5 C 689.5,49.5 695.5,49.5 701.5,49.5C 702.351,66.9845 694.017,76.3179 676.5,77.5C 669.974,78.0105 664.974,75.6772 661.5,70.5C 664.986,59.3443 672.32,52.3443 683.5,49.5 Z"/></g>
<g><path style="opacity:1" fill="#203665" d="M 757.5,36.5 C 759.225,36.8425 759.725,37.8425 759,39.5C 748.856,53.4366 742.356,68.7699 739.5,85.5C 738.477,79.7515 738.977,74.0849 741,68.5C 745.206,57.0852 750.706,46.4185 757.5,36.5 Z"/></g>
<g><path style="opacity:1" fill="#1e3565" d="M 754.5,32.5 C 756.028,32.5173 756.528,33.184 756,34.5C 750,42.5 744,50.5 738,58.5C 733.802,66.6102 730.302,74.9435 727.5,83.5C 726.359,81.5787 726.192,79.5787 727,77.5C 733.127,60.5676 742.294,45.5676 754.5,32.5 Z"/></g>
<g><path style="opacity:1" fill="#c1986b" d="M 632.5,375.5 C 634.76,391.868 638.927,407.868 645,423.5C 647.263,429.861 650.429,435.694 654.5,441C 635.772,444.324 618.105,441.324 601.5,432C 598.781,429.618 596.447,426.951 594.5,424C 597.251,415.661 601.417,408.161 607,401.5C 615.648,393.019 624.148,384.352 632.5,375.5 Z"/></g>
</svg>
