<?xml version="1.0" encoding="UTF-8"?>
<!DOCTYPE svg PUBLIC "-//W3C//DTD SVG 1.1//EN" "http://www.w3.org/Graphics/SVG/1.1/DTD/svg11.dtd">
<svg xmlns="http://www.w3.org/2000/svg" version="1.1" width="800px" height="788px" style="shape-rendering:geometricPrecision; text-rendering:geometricPrecision; image-rendering:optimizeQuality; fill-rule:evenodd; clip-rule:evenodd" xmlns:xlink="http://www.w3.org/1999/xlink">
<g><path style="opacity:0.98" fill="#00536a" d="M 36.5,-0.5 C 42.5,-0.5 48.5,-0.5 54.5,-0.5C 94.8064,8.15327 130.806,25.6533 162.5,52C 195.468,52.9094 227.468,58.9094 258.5,70C 326.906,104.978 386.073,151.812 436,210.5C 453.232,232.627 469.232,255.627 484,279.5C 492.333,300.5 500.667,321.5 509,342.5C 531.234,387.969 554.234,432.969 578,477.5C 581.387,481.446 585.554,484.28 590.5,486C 612.5,495.667 634.5,505.333 656.5,515C 682.243,532.209 706.91,550.876 730.5,571C 744.397,584.228 757.564,598.061 770,612.5C 771.316,615.688 771.816,619.022 771.5,622.5C 744.728,628.74 717.728,633.907 690.5,638C 678.927,640.558 667.594,643.725 656.5,647.5C 660.546,655.382 666.213,661.882 673.5,667C 687.683,676.93 702.683,685.596 718.5,693C 740.333,708.167 758.833,726.667 774,748.5C 779.667,754.167 785.333,759.833 791,765.5C 793.608,771.053 796.441,776.387 799.5,781.5C 799.5,782.5 799.5,783.5 799.5,784.5C 792.721,780.605 786.055,776.439 779.5,772C 768.167,762.667 756.833,753.333 745.5,744C 723.833,733.667 702.167,723.333 680.5,713C 668.5,704.333 656.5,695.667 644.5,687C 629.335,672.183 617.501,655.016 609,635.5C 607.913,629.57 610.413,626.07 616.5,625C 629.147,621.014 641.814,617.014 654.5,613C 681.254,607.916 708.254,605.083 735.5,604.5C 733.016,601.516 730.35,598.682 727.5,596C 700.051,575.886 672.051,556.553 643.5,538C 614.94,528.591 586.607,518.591 558.5,508C 555.061,505.861 551.894,503.361 549,500.5C 544.082,493 539.416,485.333 535,477.5C 508.355,422.879 483.355,367.545 460,311.5C 418.104,229.938 357.937,165.438 279.5,118C 255.192,103.895 229.525,92.8951 202.5,85C 183.546,83.1278 164.546,81.7945 145.5,81C 134.012,72.0896 122.345,63.4229 110.5,55C 92.4408,45.3133 73.7742,36.98 54.5,30C 39.0533,25.3874 29.0533,30.7207 24.5,46C 25.9464,55.0582 29.4464,63.2249 35,70.5C 52.9783,93.1244 69.9783,116.458 86,140.5C 97.3949,172.685 108.395,205.018 119,237.5C 126,249.5 133,261.5 140,273.5C 144.033,277.868 148.366,281.868 153,285.5C 160.624,294.963 162.624,305.63 159,317.5C 151.855,338.935 145.521,360.602 140,382.5C 131.53,431.087 138.197,477.42 160,521.5C 165.184,530.674 173.017,535.674 183.5,536.5C 184.837,518.122 186.67,499.788 189,481.5C 190.698,467.403 195.365,454.403 203,442.5C 209.639,434.027 216.806,426.027 224.5,418.5C 236.449,441.508 246.949,465.174 256,489.5C 274.161,524.51 294.828,557.844 318,589.5C 331.466,604.635 345.3,619.468 359.5,634C 356.983,634.257 354.65,633.59 352.5,632C 341.624,624.797 331.624,616.464 322.5,607C 295.25,587.084 272.084,563.251 253,535.5C 243.92,519.004 234.586,502.671 225,486.5C 223.201,491.363 221.867,496.363 221,501.5C 219.46,515.904 217.46,530.237 215,544.5C 208.658,563.433 195.491,571.266 175.5,568C 162.051,563.225 151.551,554.725 144,542.5C 117.468,497.177 107.301,448.344 113.5,396C 114.396,388.79 115.563,381.623 117,374.5C 122.232,358.137 126.232,341.47 129,324.5C 130.571,318.859 133.071,313.693 136.5,309C 132.154,301.643 126.654,295.143 120,289.5C 111.494,275.826 103.494,261.826 96,247.5C 85.2007,216.102 74.2007,184.769 63,153.5C 45.7352,127.97 27.7352,102.97 9,78.5C 5.23533,71.6471 2.06867,64.6471 -0.5,57.5C -0.5,49.5 -0.5,41.5 -0.5,33.5C 4.87081,14.458 17.2041,3.12465 36.5,-0.5 Z"/></g>
<g><path style="opacity:0.964" fill="#00546b" d="M 176.5,133.5 C 178.989,133.298 181.323,133.798 183.5,135C 188,138.833 192.5,142.667 197,146.5C 199,150.5 201,154.5 203,158.5C 203.9,167.466 201.4,175.299 195.5,182C 192.388,182.625 190.555,184.458 190,187.5C 185.683,178.197 181.35,168.864 177,159.5C 171.021,152.02 164.855,144.687 158.5,137.5C 164.551,135.882 170.551,134.549 176.5,133.5 Z"/></g>
</svg>
