<?xml version="1.0" encoding="UTF-8"?>
<!DOCTYPE svg PUBLIC "-//W3C//DTD SVG 1.1//EN" "http://www.w3.org/Graphics/SVG/1.1/DTD/svg11.dtd">
<svg xmlns="http://www.w3.org/2000/svg" version="1.1" width="800px" height="913px" style="shape-rendering:geometricPrecision; text-rendering:geometricPrecision; image-rendering:optimizeQuality; fill-rule:evenodd; clip-rule:evenodd" xmlns:xlink="http://www.w3.org/1999/xlink">
<g><path style="opacity:1" fill="#58a644" d="M 389.5,-0.5 C 396.167,-0.5 402.833,-0.5 409.5,-0.5C 409.5,-0.166667 409.5,0.166667 409.5,0.5C 408.957,0.559992 408.624,0.893326 408.5,1.5C 415.777,13.7256 422.777,26.0589 429.5,38.5C 429.167,326 429.5,613.334 430.5,900.5C 423.073,906.872 414.406,910.538 404.5,911.5C 398.846,900.86 393.179,890.194 387.5,879.5C 388.167,733.334 388.5,587 388.5,440.5C 388.5,293.832 387.833,147.498 386.5,1.5C 387.5,0.833333 388.5,0.166667 389.5,-0.5 Z"/></g>
<g><path style="opacity:1" fill="#5baa45" d="M 386.5,1.5 C 387.833,147.498 388.5,293.832 388.5,440.5C 388.5,587 388.167,733.334 387.5,879.5C 372.833,852.833 358.167,826.167 343.5,799.5C 344.167,670.667 344.5,541.667 344.5,412.5C 344.5,283.165 343.833,154.165 342.5,25.5C 353.604,18.4411 364.937,11.6077 376.5,5C 379.605,3.13187 382.938,1.9652 386.5,1.5 Z"/></g>
<g><path style="opacity:1" fill="#4b9441" d="M 409.5,0.5 C 414.06,1.29809 418.394,2.79809 422.5,5C 436.23,13.1927 449.897,21.3593 463.5,29.5C 461.418,29.528 459.584,28.8613 458,27.5C 458.374,30.275 459.374,32.9417 461,35.5C 531.941,166.389 603.108,297.055 674.5,427.5C 671.91,432.349 669.576,437.349 667.5,442.5C 664.474,438.795 661.808,434.795 659.5,430.5C 648.561,410.904 637.228,391.571 625.5,372.5C 613.499,351.77 601.665,331.436 590,311.5C 589.833,394.167 589.667,476.833 589.5,559.5C 589.5,642.503 590.167,725.169 591.5,807.5C 585.666,811.921 579.332,815.588 572.5,818.5C 571.667,639 571.167,459.334 571,279.5C 551.338,244.839 531.172,210.506 510.5,176.5C 491.471,143.46 472.138,110.46 452.5,77.5C 445.197,64.2174 437.53,51.2174 429.5,38.5C 422.777,26.0589 415.777,13.7256 408.5,1.5C 408.624,0.893326 408.957,0.559992 409.5,0.5 Z"/></g>
<g><path style="opacity:1" fill="#5ead45" d="M 342.5,25.5 C 343.833,154.165 344.5,283.165 344.5,412.5C 344.5,541.667 344.167,670.667 343.5,799.5C 336.567,787.299 329.9,774.966 323.5,762.5C 324.5,521.001 324.833,279.334 324.5,37.5C 323.5,37.5 322.5,37.5 321.5,37.5C 328.004,32.7448 335.004,28.7448 342.5,25.5 Z"/></g>
<g><path style="opacity:1" fill="#4e9842" d="M 463.5,29.5 C 508.332,54.4124 552.665,80.079 596.5,106.5C 595.624,106.369 594.957,106.702 594.5,107.5C 635.921,183.34 677.088,259.34 718,335.5C 719.067,337.692 720.567,339.358 722.5,340.5C 722.5,340.833 722.5,341.167 722.5,341.5C 707.435,367.911 692.769,394.578 678.5,421.5C 677.167,423.5 675.833,425.5 674.5,427.5C 603.108,297.055 531.941,166.389 461,35.5C 459.374,32.9417 458.374,30.275 458,27.5C 459.584,28.8613 461.418,29.528 463.5,29.5 Z"/></g>
<g><path style="opacity:1" fill="#61b146" d="M 321.5,37.5 C 322.5,37.5 323.5,37.5 324.5,37.5C 324.833,279.334 324.5,521.001 323.5,762.5C 301.516,722.535 279.516,682.535 257.5,642.5C 258.833,453.666 258.833,264.666 257.5,75.5C 256.583,76.1272 255.583,76.4606 254.5,76.5C 276.334,62.7461 298.667,49.7461 321.5,37.5 Z"/></g>
<g><path style="opacity:1" fill="#56a344" d="M 429.5,38.5 C 437.53,51.2174 445.197,64.2174 452.5,77.5C 452.803,349.912 452.803,619.579 452.5,886.5C 453.5,886.5 454.5,886.5 455.5,886.5C 447.336,891.417 439.003,896.083 430.5,900.5C 429.5,613.334 429.167,326 429.5,38.5 Z"/></g>
<g><path style="opacity:1" fill="#63b447" d="M 257.5,642.5 C 254.233,636.965 251.233,631.298 248.5,625.5C 249.167,534.834 249.5,444.001 249.5,353C 249.5,261.831 248.833,170.998 247.5,80.5C 249.336,78.412 251.669,77.0787 254.5,76.5C 255.583,76.4606 256.583,76.1272 257.5,75.5C 258.833,264.666 258.833,453.666 257.5,642.5 Z"/></g>
<g><path style="opacity:1" fill="#539f43" d="M 452.5,77.5 C 472.138,110.46 491.471,143.46 510.5,176.5C 509.834,402.502 510.501,628.169 512.5,853.5C 493.699,864.737 474.699,875.737 455.5,886.5C 454.5,886.5 453.5,886.5 452.5,886.5C 452.803,619.579 452.803,349.912 452.5,77.5 Z"/></g>
<g><path style="opacity:1" fill="#66b848" d="M 247.5,80.5 C 248.833,170.998 249.5,261.831 249.5,353C 249.5,444.001 249.167,534.834 248.5,625.5C 215.916,566.668 183.583,507.668 151.5,448.5C 152.167,396.668 152.5,344.668 152.5,292.5C 152.5,240.162 151.833,188.162 150.5,136.5C 182.335,117.079 214.668,98.4121 247.5,80.5 Z"/></g>
<g><path style="opacity:1" fill="#539f43" d="M 596.5,106.5 C 639.671,130.917 682.671,155.584 725.5,180.5C 724.769,180.942 723.769,181.109 722.5,181C 736.627,206.753 750.627,232.587 764.5,258.5C 764.957,259.298 765.624,259.631 766.5,259.5C 752.1,286.633 737.433,313.633 722.5,340.5C 720.567,339.358 719.067,337.692 718,335.5C 677.088,259.34 635.921,183.34 594.5,107.5C 594.957,106.702 595.624,106.369 596.5,106.5 Z"/></g>
<g><path style="opacity:1" fill="#69bc48" d="M 150.5,136.5 C 151.833,188.162 152.5,240.162 152.5,292.5C 152.5,344.668 152.167,396.668 151.5,448.5C 150.833,447.833 150.167,447.167 149.5,446.5C 149.008,444.181 148.008,442.181 146.5,440.5C 131.484,413.132 116.484,385.798 101.5,358.5C 101.5,358.167 101.5,357.833 101.5,357.5C 102.832,293.665 102.832,229.665 101.5,165.5C 100.583,166.127 99.5832,166.461 98.5,166.5C 115.499,155.998 132.832,145.998 150.5,136.5 Z"/></g>
<g><path style="opacity:1" fill="#6bbe49" d="M 101.5,357.5 C 74.0549,308.945 47.3883,259.945 21.5,210.5C 47.0312,195.569 72.6979,180.902 98.5,166.5C 99.5832,166.461 100.583,166.127 101.5,165.5C 102.832,229.665 102.832,293.665 101.5,357.5 Z"/></g>
<g><path style="opacity:1" fill="#4e9942" d="M 510.5,176.5 C 531.172,210.506 551.338,244.839 571,279.5C 571.167,459.334 571.667,639 572.5,818.5C 552.864,830.656 532.864,842.323 512.5,853.5C 510.501,628.169 509.834,402.502 510.5,176.5 Z"/></g>
<g><path style="opacity:1" fill="#56a344" d="M 725.5,180.5 C 742.945,190.105 760.278,199.939 777.5,210C 781.949,212.284 785.616,215.451 788.5,219.5C 781.56,233.092 774.227,246.425 766.5,259.5C 765.624,259.631 764.957,259.298 764.5,258.5C 750.627,232.587 736.627,206.753 722.5,181C 723.769,181.109 724.769,180.942 725.5,180.5 Z"/></g>
<g><path style="opacity:0.998" fill="#419139" d="M 21.5,210.5 C 47.3883,259.945 74.0549,308.945 101.5,357.5C 101.5,357.833 101.5,358.167 101.5,358.5C 67.5729,337.825 33.5729,316.492 -0.5,294.5C -0.5,276.167 -0.5,257.833 -0.5,239.5C 2.22629,226.428 9.55963,216.761 21.5,210.5 Z"/></g>
<g><path style="opacity:0.999" fill="#41873f" d="M 788.5,219.5 C 793.738,225.309 797.404,231.976 799.5,239.5C 799.5,290.5 799.5,341.5 799.5,392.5C 774.318,376.162 748.985,359.996 723.5,344C 722.748,343.329 722.414,342.496 722.5,341.5C 722.5,341.167 722.5,340.833 722.5,340.5C 737.433,313.633 752.1,286.633 766.5,259.5C 774.227,246.425 781.56,233.092 788.5,219.5 Z"/></g>
<g><path style="opacity:1" fill="#419437" d="M -0.5,294.5 C 33.5729,316.492 67.5729,337.825 101.5,358.5C 116.484,385.798 131.484,413.132 146.5,440.5C 145.279,441.465 143.946,441.298 142.5,440C 94.8051,409.489 47.1384,378.989 -0.5,348.5C -0.5,330.5 -0.5,312.5 -0.5,294.5 Z"/></g>
<g><path style="opacity:1" fill="#499140" d="M 625.5,372.5 C 624.833,441.499 624.5,510.666 624.5,580C 624.5,649.503 625.167,718.67 626.5,787.5C 615.33,794.922 603.663,801.589 591.5,807.5C 590.167,725.169 589.5,642.503 589.5,559.5C 589.667,476.833 589.833,394.167 590,311.5C 601.665,331.436 613.499,351.77 625.5,372.5 Z"/></g>
<g><path style="opacity:1" fill="#41883e" d="M 722.5,341.5 C 722.414,342.496 722.748,343.329 723.5,344C 748.985,359.996 774.318,376.162 799.5,392.5C 799.5,427.833 799.5,463.167 799.5,498.5C 758.876,473.194 718.543,447.527 678.5,421.5C 692.769,394.578 707.435,367.911 722.5,341.5 Z"/></g>
<g><path style="opacity:1" fill="#409835" d="M -0.5,348.5 C 47.1384,378.989 94.8051,409.489 142.5,440C 143.946,441.298 145.279,441.465 146.5,440.5C 148.008,442.181 149.008,444.181 149.5,446.5C 135.419,470.998 121.085,495.331 106.5,519.5C 106.67,518.178 106.337,517.011 105.5,516C 70.283,493.276 34.9496,470.776 -0.5,448.5C -0.5,415.167 -0.5,381.833 -0.5,348.5 Z"/></g>
<g><path style="opacity:1" fill="#468d40" d="M 625.5,372.5 C 637.228,391.571 648.561,410.904 659.5,430.5C 658.168,542.667 658.168,655.001 659.5,767.5C 660.417,766.873 661.417,766.539 662.5,766.5C 650.836,774.001 638.836,781.001 626.5,787.5C 625.167,718.67 624.5,649.503 624.5,580C 624.5,510.666 624.833,441.499 625.5,372.5 Z"/></g>
<g><path style="opacity:1" fill="#418a3d" d="M 678.5,421.5 C 718.543,447.527 758.876,473.194 799.5,498.5C 799.5,556.167 799.5,613.833 799.5,671.5C 799.167,671.5 798.833,671.5 798.5,671.5C 796.178,664.519 793.011,657.852 789,651.5C 751.806,588.529 714.972,525.529 678.5,462.5C 674.805,455.816 671.138,449.15 667.5,442.5C 669.576,437.349 671.91,432.349 674.5,427.5C 675.833,425.5 677.167,423.5 678.5,421.5 Z"/></g>
<g><path style="opacity:1" fill="#438a3f" d="M 659.5,430.5 C 661.808,434.795 664.474,438.795 667.5,442.5C 671.138,449.15 674.805,455.816 678.5,462.5C 677.168,560.334 677.168,658.334 678.5,756.5C 679.417,755.873 680.417,755.539 681.5,755.5C 675.666,759.921 669.332,763.588 662.5,766.5C 661.417,766.539 660.417,766.873 659.5,767.5C 658.168,655.001 658.168,542.667 659.5,430.5 Z"/></g>
<g><path style="opacity:1" fill="#41873e" d="M 149.5,446.5 C 150.167,447.167 150.833,447.833 151.5,448.5C 183.583,507.668 215.916,566.668 248.5,625.5C 251.233,631.298 254.233,636.965 257.5,642.5C 279.516,682.535 301.516,722.535 323.5,762.5C 329.9,774.966 336.567,787.299 343.5,799.5C 358.167,826.167 372.833,852.833 387.5,879.5C 393.179,890.194 398.846,900.86 404.5,911.5C 402.901,911.232 401.568,911.566 400.5,912.5C 399.833,912.5 399.167,912.5 398.5,912.5C 388.129,911.317 378.462,907.817 369.5,902C 251.5,833.667 133.5,765.333 15.5,697C 12.5532,694.564 10.2199,691.731 8.5,688.5C 18.7651,670.968 28.7651,653.302 38.5,635.5C 50.3229,616.531 61.6562,597.198 72.5,577.5C 77.2552,570.996 81.2552,563.996 84.5,556.5C 92.0704,544.367 99.4038,532.034 106.5,519.5C 121.085,495.331 135.419,470.998 149.5,446.5 Z"/></g>
<g><path style="opacity:1" fill="#409e32" d="M -0.5,448.5 C 34.9496,470.776 70.283,493.276 105.5,516C 106.337,517.011 106.67,518.178 106.5,519.5C 99.4038,532.034 92.0704,544.367 84.5,556.5C 56.6822,537.754 28.3489,519.754 -0.5,502.5C -0.5,484.5 -0.5,466.5 -0.5,448.5 Z"/></g>
<g><path style="opacity:1" fill="#41873e" d="M 678.5,462.5 C 714.972,525.529 751.806,588.529 789,651.5C 793.011,657.852 796.178,664.519 798.5,671.5C 796.741,681.843 791.741,690.343 783.5,697C 749.852,717.155 715.852,736.655 681.5,755.5C 680.417,755.539 679.417,755.873 678.5,756.5C 677.168,658.334 677.168,560.334 678.5,462.5 Z"/></g>
<g><path style="opacity:1" fill="#40a130" d="M -0.5,502.5 C 28.3489,519.754 56.6822,537.754 84.5,556.5C 81.2552,563.996 77.2552,570.996 72.5,577.5C 72.5858,576.504 72.2524,575.671 71.5,575C 47.303,560.073 23.303,544.906 -0.5,529.5C -0.5,520.5 -0.5,511.5 -0.5,502.5 Z"/></g>
<g><path style="opacity:1" fill="#3fa52f" d="M -0.5,529.5 C 23.303,544.906 47.303,560.073 71.5,575C 72.2524,575.671 72.5858,576.504 72.5,577.5C 61.6562,597.198 50.3229,616.531 38.5,635.5C 25.7061,626.931 12.7061,618.598 -0.5,610.5C -0.5,583.5 -0.5,556.5 -0.5,529.5 Z"/></g>
<g><path style="opacity:1" fill="#3faa2c" d="M -0.5,610.5 C 12.7061,618.598 25.7061,626.931 38.5,635.5C 28.7651,653.302 18.7651,670.968 8.5,688.5C 4.17686,683.52 1.17686,677.853 -0.5,671.5C -0.5,651.167 -0.5,630.833 -0.5,610.5 Z"/></g>
</svg>
