<?xml version="1.0" encoding="UTF-8"?>
<!DOCTYPE svg PUBLIC "-//W3C//DTD SVG 1.1//EN" "http://www.w3.org/Graphics/SVG/1.1/DTD/svg11.dtd">
<svg xmlns="http://www.w3.org/2000/svg" version="1.1" width="2500px" height="2500px" style="shape-rendering:geometricPrecision; text-rendering:geometricPrecision; image-rendering:optimizeQuality; fill-rule:evenodd; clip-rule:evenodd" xmlns:xlink="http://www.w3.org/1999/xlink">
<g><path style="opacity:1" fill="#fefefe" d="M -0.5,-0.5 C 832.833,-0.5 1666.17,-0.5 2499.5,-0.5C 2499.5,832.833 2499.5,1666.17 2499.5,2499.5C 1666.17,2499.5 832.833,2499.5 -0.5,2499.5C -0.5,1666.17 -0.5,832.833 -0.5,-0.5 Z"/></g>
<g><path style="opacity:1" fill="#c0c6d7" d="M 1337.5,664.5 C 1277.83,664.5 1218.17,664.5 1158.5,664.5C 1190.49,663.09 1222.66,662.423 1255,662.5C 1282.68,662.337 1310.18,663.004 1337.5,664.5 Z"/></g>
<g><path style="opacity:1" fill="#8a93b5" d="M 1178.5,666.5 C 1178.67,678.838 1178.5,691.171 1178,703.5C 1177.63,704.416 1177.13,705.25 1176.5,706C 1174.94,706.21 1173.61,706.71 1172.5,707.5C 1156.17,708.295 1139.84,708.961 1123.5,709.5C 1125.79,700.709 1126.96,691.709 1127,682.5C 1129.33,677.506 1130.16,672.173 1129.5,666.5C 1145.83,666.5 1162.17,666.5 1178.5,666.5 Z"/></g>
<g><path style="opacity:1" fill="#7c87ac" d="M 1178.5,666.5 C 1202.83,666.5 1227.17,666.5 1251.5,666.5C 1251.5,679.5 1251.5,692.5 1251.5,705.5C 1238.66,705.171 1225.99,705.505 1213.5,706.5C 1199.82,706.477 1186.16,706.81 1172.5,707.5C 1173.61,706.71 1174.94,706.21 1176.5,706C 1177.13,705.25 1177.63,704.416 1178,703.5C 1178.5,691.171 1178.67,678.838 1178.5,666.5 Z"/></g>
<g><path style="opacity:1" fill="#7281a6" d="M 1350.5,665.5 C 1358.02,665.175 1365.35,665.508 1372.5,666.5C 1348.5,666.5 1324.5,666.5 1300.5,666.5C 1300.5,679.833 1300.5,693.167 1300.5,706.5C 1271.5,706.5 1242.5,706.5 1213.5,706.5C 1225.99,705.505 1238.66,705.171 1251.5,705.5C 1251.5,692.5 1251.5,679.5 1251.5,666.5C 1284.5,665.804 1317.5,665.471 1350.5,665.5 Z"/></g>
<g><path style="opacity:1" fill="#62749d" d="M 1372.5,666.5 C 1385.88,666.439 1399.21,667.105 1412.5,668.5C 1412.83,683.01 1412.5,697.343 1411.5,711.5C 1374.51,709.56 1337.51,707.893 1300.5,706.5C 1300.5,693.167 1300.5,679.833 1300.5,666.5C 1324.5,666.5 1348.5,666.5 1372.5,666.5 Z"/></g>
<g><path style="opacity:1" fill="#969fbd" d="M 1158.5,664.5 C 1218.17,664.5 1277.83,664.5 1337.5,664.5C 1342.03,664.182 1346.37,664.515 1350.5,665.5C 1317.5,665.471 1284.5,665.804 1251.5,666.5C 1227.17,666.5 1202.83,666.5 1178.5,666.5C 1162.17,666.5 1145.83,666.5 1129.5,666.5C 1130.16,672.173 1129.33,677.506 1127,682.5C 1126.96,691.709 1125.79,700.709 1123.5,709.5C 1107.17,710.624 1090.84,711.624 1074.5,712.5C 1074.18,698.088 1074.52,683.755 1075.5,669.5C 1103.07,667.175 1130.74,665.508 1158.5,664.5 Z"/></g>
<g><path style="opacity:1" fill="#798aac" d="M 1412.5,668.5 C 1415.83,668.833 1419.17,669.167 1422.5,669.5C 1422.83,684.01 1422.5,698.343 1421.5,712.5C 1417.96,712.813 1414.62,712.479 1411.5,711.5C 1412.5,697.343 1412.83,683.01 1412.5,668.5 Z"/></g>
<g><path style="opacity:1" fill="#5c6c93" d="M 1422.5,669.5 C 1451.57,671.844 1480.57,674.844 1509.5,678.5C 1509.5,692.833 1509.5,707.167 1509.5,721.5C 1510.79,721.263 1511.79,721.596 1512.5,722.5C 1482.07,718.586 1451.74,715.252 1421.5,712.5C 1422.5,698.343 1422.83,684.01 1422.5,669.5 Z"/></g>
<g><path style="opacity:1" fill="#a1a9c4" d="M 1075.5,669.5 C 1074.52,683.755 1074.18,698.088 1074.5,712.5C 1053.98,714.929 1033.31,717.263 1012.5,719.5C 1014.45,718.869 1016.28,717.869 1018,716.5C 1018.5,702.837 1018.67,689.171 1018.5,675.5C 1019.79,675.737 1020.79,675.404 1021.5,674.5C 1039.49,672.701 1057.49,671.034 1075.5,669.5 Z"/></g>
<g><path style="opacity:1" fill="#aab1ca" d="M 1021.5,674.5 C 1020.79,675.404 1019.79,675.737 1018.5,675.5C 1018.67,689.171 1018.5,702.837 1018,716.5C 1016.28,717.869 1014.45,718.869 1012.5,719.5C 1001.48,720.636 990.478,721.969 979.5,723.5C 980.209,722.596 981.209,722.263 982.5,722.5C 982.334,715.825 982.5,709.158 983,702.5C 985.045,698.097 986.045,693.43 986,688.5C 988.164,685.553 988.998,682.219 988.5,678.5C 999.503,677.314 1010.5,675.981 1021.5,674.5 Z"/></g>
<g><path style="opacity:1" fill="#606c8c" d="M 1509.5,678.5 C 1534.15,680.973 1558.49,684.64 1582.5,689.5C 1582.5,694.167 1582.5,698.833 1582.5,703.5C 1580.5,703.5 1578.5,703.5 1576.5,703.5C 1576.5,709.833 1576.5,716.167 1576.5,722.5C 1574.5,722.5 1572.5,722.5 1570.5,722.5C 1570.5,725.167 1570.5,727.833 1570.5,730.5C 1551.17,727.833 1531.83,725.166 1512.5,722.5C 1511.79,721.596 1510.79,721.263 1509.5,721.5C 1509.5,707.167 1509.5,692.833 1509.5,678.5 Z"/></g>
<g><path style="opacity:1" fill="#b2b8cf" d="M 988.5,678.5 C 988.998,682.219 988.164,685.553 986,688.5C 986.045,693.43 985.045,698.097 983,702.5C 982.5,709.158 982.334,715.825 982.5,722.5C 981.209,722.263 980.209,722.596 979.5,723.5C 969.143,724.673 958.81,726.006 948.5,727.5C 950.561,722.272 952.395,716.939 954,711.5C 954.132,701.615 955.298,691.948 957.5,682.5C 967.804,680.98 978.138,679.647 988.5,678.5 Z"/></g>
<g><path style="opacity:1" fill="#bbc0d5" d="M 957.5,682.5 C 955.298,691.948 954.132,701.615 954,711.5C 952.395,716.939 950.561,722.272 948.5,727.5C 930.755,730.116 913.088,733.116 895.5,736.5C 897.379,731.739 899.546,727.073 902,722.5C 904,714.5 906,706.5 908,698.5C 908.497,695.854 908.664,693.187 908.5,690.5C 924.734,687.32 941.067,684.654 957.5,682.5 Z"/></g>
<g><path style="opacity:1" fill="#606b87" d="M 1582.5,689.5 C 1599.72,691.981 1616.72,694.981 1633.5,698.5C 1631.52,712.461 1630.85,726.794 1631.5,741.5C 1611.03,737.923 1590.7,734.257 1570.5,730.5C 1570.5,727.833 1570.5,725.167 1570.5,722.5C 1572.5,722.5 1574.5,722.5 1576.5,722.5C 1576.5,716.167 1576.5,709.833 1576.5,703.5C 1578.5,703.5 1580.5,703.5 1582.5,703.5C 1582.5,698.833 1582.5,694.167 1582.5,689.5 Z"/></g>
<g><path style="opacity:1" fill="#606880" d="M 1633.5,698.5 C 1655.67,702.534 1677.67,707.2 1699.5,712.5C 1699.67,719.841 1699.5,727.174 1699,734.5C 1697.33,736.167 1695.67,737.833 1694,739.5C 1693.5,744.489 1693.33,749.489 1693.5,754.5C 1672.86,750.171 1652.19,745.838 1631.5,741.5C 1630.85,726.794 1631.52,712.461 1633.5,698.5 Z"/></g>
<g><path style="opacity:1" fill="#cbcedf" d="M 908.5,690.5 C 908.664,693.187 908.497,695.854 908,698.5C 906,706.5 904,714.5 902,722.5C 899.546,727.073 897.379,731.739 895.5,736.5C 865.548,741.224 835.882,747.224 806.5,754.5C 807.782,751.383 809.949,749.05 813,747.5C 820.396,733.377 827.229,719.043 833.5,704.5C 858.3,698.807 883.3,694.14 908.5,690.5 Z"/></g>
<g><path style="opacity:1" fill="#6e81b6" d="M 1213.5,706.5 C 1242.5,706.5 1271.5,706.5 1300.5,706.5C 1337.51,707.893 1374.51,709.56 1411.5,711.5C 1414.62,712.479 1417.96,712.813 1421.5,712.5C 1451.74,715.252 1482.07,718.586 1512.5,722.5C 1531.83,725.166 1551.17,727.833 1570.5,730.5C 1590.7,734.257 1611.03,737.923 1631.5,741.5C 1652.19,745.838 1672.86,750.171 1693.5,754.5C 1709.74,758.644 1726.08,762.644 1742.5,766.5C 1758.81,771.157 1775.14,775.823 1791.5,780.5C 1813.87,787.289 1836.2,794.289 1858.5,801.5C 1876.68,808.675 1895.01,815.675 1913.5,822.5C 1933.24,830.637 1952.91,838.97 1972.5,847.5C 1989.77,856.134 2007.1,864.801 2024.5,873.5C 2030.5,876.833 2036.5,880.167 2042.5,883.5C 2047.83,886.5 2053.17,889.5 2058.5,892.5C 2062.93,895.594 2067.59,898.261 2072.5,900.5C 2077.23,903.89 2082.23,906.89 2087.5,909.5C 2136.17,940.293 2180.67,976.627 2221,1018.5C 2256.35,1055.88 2283.68,1098.55 2303,1146.5C 2333.8,1233.27 2326.8,1316.94 2282,1397.5C 2254.95,1443.67 2221.11,1484.5 2180.5,1520C 2120.77,1570.73 2055.1,1612.73 1983.5,1646C 1862.25,1701.25 1735.92,1740.08 1604.5,1762.5C 1594.52,1764.33 1584.52,1766 1574.5,1767.5C 1562.12,1769.13 1549.79,1771.13 1537.5,1773.5C 1526.18,1774.83 1514.84,1776.17 1503.5,1777.5C 1489.18,1779.24 1474.84,1780.91 1460.5,1782.5C 1449.19,1783.72 1437.85,1784.72 1426.5,1785.5C 1387.16,1788.62 1347.83,1790.95 1308.5,1792.5C 1264.17,1792.5 1219.83,1792.5 1175.5,1792.5C 1151.02,1790.57 1126.35,1789.24 1101.5,1788.5C 1047.47,1783.94 993.475,1777.94 939.5,1770.5C 904.827,1764.83 870.16,1758.5 835.5,1751.5C 780.935,1739.69 726.935,1725.36 673.5,1708.5C 611.984,1688.1 551.984,1663.77 493.5,1635.5C 438.192,1607.33 386.192,1574.16 337.5,1536C 323.701,1524.7 310.368,1512.87 297.5,1500.5C 263.748,1468.1 235.748,1431.43 213.5,1390.5C 194.886,1355.72 183.219,1318.72 178.5,1279.5C 174.808,1241.16 178.141,1203.5 188.5,1166.5C 189.931,1165.22 190.598,1163.55 190.5,1161.5C 199.048,1136.73 210.048,1113.07 223.5,1090.5C 239.645,1064.55 257.979,1040.22 278.5,1017.5C 288.298,1008.2 297.965,998.702 307.5,989C 317.36,980.635 327.027,972.135 336.5,963.5C 349.872,953.488 363.205,943.488 376.5,933.5C 394.032,921.572 411.699,909.905 429.5,898.5C 445.095,890.226 460.428,881.559 475.5,872.5C 494.026,863.737 512.359,854.737 530.5,845.5C 548.728,838.207 566.728,830.54 584.5,822.5C 608.831,813.281 633.165,804.281 657.5,795.5C 706.602,779.782 756.269,766.115 806.5,754.5C 835.882,747.224 865.548,741.224 895.5,736.5C 913.088,733.116 930.755,730.116 948.5,727.5C 958.81,726.006 969.143,724.673 979.5,723.5C 990.478,721.969 1001.48,720.636 1012.5,719.5C 1033.31,717.263 1053.98,714.929 1074.5,712.5C 1090.84,711.624 1107.17,710.624 1123.5,709.5C 1139.84,708.961 1156.17,708.295 1172.5,707.5C 1186.16,706.81 1199.82,706.477 1213.5,706.5 Z"/></g>
<g><path style="opacity:1" fill="#dbdde9" d="M 833.5,704.5 C 827.229,719.043 820.396,733.377 813,747.5C 809.949,749.05 807.782,751.383 806.5,754.5C 756.269,766.115 706.602,779.782 657.5,795.5C 649.227,791.364 640.894,787.197 632.5,783C 631.5,782 630.5,781 629.5,780C 626.363,779.399 623.363,778.399 620.5,777C 618.604,774.061 616.27,771.561 613.5,769.5C 612.675,768.614 611.675,768.281 610.5,768.5C 631.364,760.081 652.698,752.748 674.5,746.5C 676.255,747.072 677.922,747.906 679.5,749C 699.109,751.719 718.442,750.719 737.5,746C 741.167,744.333 744.833,742.667 748.5,741C 754.688,735.81 760.521,730.31 766,724.5C 767.094,722.922 767.928,721.255 768.5,719.5C 790.129,714.289 811.796,709.289 833.5,704.5 Z"/></g>
<g><path style="opacity:1" fill="#5f657a" d="M 1699.5,712.5 C 1716.03,716.05 1732.36,720.05 1748.5,724.5C 1748.67,731.841 1748.5,739.174 1748,746.5C 1744.6,752.844 1742.77,759.511 1742.5,766.5C 1726.08,762.644 1709.74,758.644 1693.5,754.5C 1693.33,749.489 1693.5,744.489 1694,739.5C 1695.67,737.833 1697.33,736.167 1699,734.5C 1699.5,727.174 1699.67,719.841 1699.5,712.5 Z"/></g>
<g><path style="opacity:1" fill="#e5e6ef" d="M 768.5,719.5 C 767.928,721.255 767.094,722.922 766,724.5C 760.521,730.31 754.688,735.81 748.5,741C 744.833,742.667 741.167,744.333 737.5,746C 718.442,750.719 699.109,751.719 679.5,749C 677.922,747.906 676.255,747.072 674.5,746.5C 705.466,736.5 736.8,727.5 768.5,719.5 Z"/></g>
<g><path style="opacity:1" fill="#5d6274" d="M 1748.5,724.5 C 1765.14,728.407 1781.47,733.073 1797.5,738.5C 1797.5,747.167 1797.5,755.833 1797.5,764.5C 1795.5,764.5 1793.5,764.5 1791.5,764.5C 1791.5,769.833 1791.5,775.167 1791.5,780.5C 1775.14,775.823 1758.81,771.157 1742.5,766.5C 1742.77,759.511 1744.6,752.844 1748,746.5C 1748.5,739.174 1748.67,731.841 1748.5,724.5 Z"/></g>
<g><path style="opacity:1" fill="#595d6b" d="M 1797.5,738.5 C 1820.58,744.862 1843.25,752.195 1865.5,760.5C 1864.52,763.962 1864.19,767.629 1864.5,771.5C 1862.5,771.5 1860.5,771.5 1858.5,771.5C 1858.5,781.5 1858.5,791.5 1858.5,801.5C 1836.2,794.289 1813.87,787.289 1791.5,780.5C 1791.5,775.167 1791.5,769.833 1791.5,764.5C 1793.5,764.5 1795.5,764.5 1797.5,764.5C 1797.5,755.833 1797.5,747.167 1797.5,738.5 Z"/></g>
<g><path style="opacity:1" fill="#545762" d="M 1865.5,760.5 C 1883.95,766.202 1901.95,772.869 1919.5,780.5C 1919.2,784.326 1917.37,787.326 1914,789.5C 1913.5,800.495 1913.33,811.495 1913.5,822.5C 1895.01,815.675 1876.68,808.675 1858.5,801.5C 1858.5,791.5 1858.5,781.5 1858.5,771.5C 1860.5,771.5 1862.5,771.5 1864.5,771.5C 1864.19,767.629 1864.52,763.962 1865.5,760.5 Z"/></g>
<g><path style="opacity:1" fill="#c9cdde" d="M 610.5,768.5 C 611.675,768.281 612.675,768.614 613.5,769.5C 616.27,771.561 618.604,774.061 620.5,777C 623.363,778.399 626.363,779.399 629.5,780C 630.5,781 631.5,782 632.5,783C 640.894,787.197 649.227,791.364 657.5,795.5C 633.165,804.281 608.831,813.281 584.5,822.5C 580.998,822.611 577.998,821.444 575.5,819C 567.833,811.167 560.167,803.333 552.5,795.5C 551.15,794.05 549.484,793.383 547.5,793.5C 568.039,784.205 589.039,775.872 610.5,768.5 Z"/></g>
<g><path style="opacity:1" fill="#4d4e57" d="M 1919.5,780.5 C 1938.9,787.706 1957.9,795.706 1976.5,804.5C 1975.67,809.651 1975.17,814.984 1975,820.5C 1974.09,821.328 1973.42,822.328 1973,823.5C 1972.33,829.5 1972.33,835.5 1973,841.5C 1975.05,843.713 1974.89,845.713 1972.5,847.5C 1952.91,838.97 1933.24,830.637 1913.5,822.5C 1913.33,811.495 1913.5,800.495 1914,789.5C 1917.37,787.326 1919.2,784.326 1919.5,780.5 Z"/></g>
<g><path style="opacity:1" fill="#45464c" d="M 1976.5,804.5 C 1995.72,812.446 2014.39,821.446 2032.5,831.5C 2031.62,831.369 2030.96,831.702 2030.5,832.5C 2029.37,835.07 2028.53,837.736 2028,840.5C 2027.08,850.148 2026.41,859.815 2026,869.5C 2025.59,870.901 2025.09,872.234 2024.5,873.5C 2007.1,864.801 1989.77,856.134 1972.5,847.5C 1974.89,845.713 1975.05,843.713 1973,841.5C 1972.33,835.5 1972.33,829.5 1973,823.5C 1973.42,822.328 1974.09,821.328 1975,820.5C 1975.17,814.984 1975.67,809.651 1976.5,804.5 Z"/></g>
<g><path style="opacity:1" fill="#bbc0d5" d="M 547.5,793.5 C 549.484,793.383 551.15,794.05 552.5,795.5C 560.167,803.333 567.833,811.167 575.5,819C 577.998,821.444 580.998,822.611 584.5,822.5C 566.728,830.54 548.728,838.207 530.5,845.5C 529.761,845.631 529.094,845.464 528.5,845C 518.632,834.964 508.632,825.131 498.5,815.5C 514.41,807.382 530.743,800.048 547.5,793.5 Z"/></g>
<g><path style="opacity:1" fill="#fbfbfc" d="M 1114.5,816.5 C 1160.83,816.333 1207.17,816.5 1253.5,817C 1262.64,820.776 1266.47,827.609 1265,837.5C 1255.79,882.385 1247.29,927.385 1239.5,972.5C 1278.83,972.333 1318.17,972.5 1357.5,973C 1392.78,973.989 1426.78,980.989 1459.5,994C 1497.49,1011.78 1518.99,1041.61 1524,1083.5C 1524.85,1099.53 1524.51,1115.53 1523,1131.5C 1504.33,1229.5 1485.67,1327.5 1467,1425.5C 1465.14,1432.69 1460.64,1437.19 1453.5,1439C 1407.83,1439.67 1362.17,1439.67 1316.5,1439C 1305.11,1434.23 1300.95,1425.73 1304,1413.5C 1321.39,1326.24 1338.39,1238.91 1355,1151.5C 1356.38,1141.53 1356.71,1131.53 1356,1121.5C 1355.07,1116.58 1352.57,1112.75 1348.5,1110C 1339.84,1106.4 1330.84,1104.07 1321.5,1103C 1285.5,1102.5 1249.5,1102.33 1213.5,1102.5C 1192.42,1211.93 1170.92,1321.26 1149,1430.5C 1146.19,1434.66 1142.36,1437.49 1137.5,1439C 1092.5,1439.67 1047.5,1439.67 1002.5,1439C 991.352,1434.54 987.186,1426.37 990,1414.5C 997.271,1377.48 1004.27,1340.48 1011,1303.5C 962.049,1384.42 890.215,1428.92 795.5,1437C 785.815,1437.41 776.148,1438.08 766.5,1439C 726.168,1439.5 685.835,1439.67 645.5,1439.5C 636.991,1485.88 628.157,1532.21 619,1578.5C 617.901,1586.9 613.401,1592.4 605.5,1595C 559.5,1595.67 513.5,1595.67 467.5,1595C 461.48,1592.32 457.647,1587.82 456,1581.5C 456.337,1573.46 457.337,1565.46 459,1557.5C 496.078,1366.11 533.412,1174.77 571,983.5C 573.232,978.269 577.065,974.769 582.5,973C 671.5,972.333 760.5,972.333 849.5,973C 893.792,973.214 935.125,984.214 973.5,1006C 1013.86,1032.52 1038.36,1069.69 1047,1117.5C 1066.74,1021.34 1085.74,925.002 1104,828.5C 1105.96,823.044 1109.46,819.044 1114.5,816.5 Z"/></g>
<g><path style="opacity:1" fill="#b0b5cd" d="M 498.5,815.5 C 508.632,825.131 518.632,834.964 528.5,845C 529.094,845.464 529.761,845.631 530.5,845.5C 512.359,854.737 494.026,863.737 475.5,872.5C 471.203,867.702 466.703,863.035 462,858.5C 460.139,856.112 458.806,853.446 458,850.5C 456.622,848.787 454.955,847.453 453,846.5C 452.059,844.273 450.892,842.273 449.5,840.5C 465.357,831.404 481.691,823.071 498.5,815.5 Z"/></g>
<g><path style="opacity:1" fill="#000000" d="M 1218.5,986.5 C 1217.57,987.568 1217.23,988.901 1217.5,990.5C 1260.5,990.5 1303.5,990.5 1346.5,990.5C 1374.24,990.884 1401.57,994.384 1428.5,1001C 1481.22,1015.06 1507.55,1049.39 1507.5,1104C 1507.43,1114.89 1506.59,1125.72 1505,1136.5C 1486.38,1230.41 1468.22,1324.41 1450.5,1418.5C 1449.6,1419.21 1449.26,1420.21 1449.5,1421.5C 1406.5,1421.5 1363.5,1421.5 1320.5,1421.5C 1339.04,1328.32 1356.87,1234.99 1374,1141.5C 1378.81,1112.35 1366.98,1094.52 1338.5,1088C 1330.2,1086.71 1321.87,1085.71 1313.5,1085C 1275.26,1084.17 1237.1,1084.34 1199,1085.5C 1176.79,1197.38 1155.29,1309.38 1134.5,1421.5C 1091.83,1421.67 1049.17,1421.5 1006.5,1421C 1044.89,1225.27 1082.89,1029.44 1120.5,833.5C 1162.83,833.5 1205.17,833.5 1247.5,833.5C 1237.7,884.477 1228.04,935.477 1218.5,986.5 Z"/></g>
<g><path style="opacity:1" fill="#39393d" d="M 2032.5,831.5 C 2038.33,834.249 2044,837.249 2049.5,840.5C 2048.88,840.611 2048.38,840.944 2048,841.5C 2046.06,848.689 2045.06,856.022 2045,863.5C 2042.73,869.942 2041.9,876.609 2042.5,883.5C 2036.5,880.167 2030.5,876.833 2024.5,873.5C 2025.09,872.234 2025.59,870.901 2026,869.5C 2026.41,859.815 2027.08,850.148 2028,840.5C 2028.53,837.736 2029.37,835.07 2030.5,832.5C 2030.96,831.702 2031.62,831.369 2032.5,831.5 Z"/></g>
<g><path style="opacity:1" fill="#2e2f31" d="M 2049.5,840.5 C 2055.17,842.997 2060.5,845.997 2065.5,849.5C 2063.86,853.676 2062.36,858.009 2061,862.5C 2060.44,872.578 2059.61,882.578 2058.5,892.5C 2053.17,889.5 2047.83,886.5 2042.5,883.5C 2041.9,876.609 2042.73,869.942 2045,863.5C 2045.06,856.022 2046.06,848.689 2048,841.5C 2048.38,840.944 2048.88,840.611 2049.5,840.5 Z"/></g>
<g><path style="opacity:1" fill="#242425" d="M 2065.5,849.5 C 2069.84,851.332 2073.84,853.665 2077.5,856.5C 2075.19,866.892 2074.03,877.559 2074,888.5C 2071.48,892.3 2070.98,896.3 2072.5,900.5C 2067.59,898.261 2062.93,895.594 2058.5,892.5C 2059.61,882.578 2060.44,872.578 2061,862.5C 2062.36,858.009 2063.86,853.676 2065.5,849.5 Z"/></g>
<g><path style="opacity:1" fill="#a1a9c4" d="M 449.5,840.5 C 450.892,842.273 452.059,844.273 453,846.5C 454.955,847.453 456.622,848.787 458,850.5C 458.806,853.446 460.139,856.112 462,858.5C 466.703,863.035 471.203,867.702 475.5,872.5C 460.428,881.559 445.095,890.226 429.5,898.5C 425.869,895.371 422.369,892.037 419,888.5C 418.503,886.19 418.337,883.857 418.5,881.5C 416.167,881.5 413.833,881.5 411.5,881.5C 411.794,874.781 408.794,870.114 402.5,867.5C 417.669,857.745 433.336,848.745 449.5,840.5 Z"/></g>
<g><path style="opacity:1" fill="#181818" d="M 2077.5,856.5 C 2083.67,859.08 2089.34,862.414 2094.5,866.5C 2093.44,877.732 2091.27,888.732 2088,899.5C 2087.5,902.817 2087.33,906.15 2087.5,909.5C 2082.23,906.89 2077.23,903.89 2072.5,900.5C 2070.98,896.3 2071.48,892.3 2074,888.5C 2074.03,877.559 2075.19,866.892 2077.5,856.5 Z"/></g>
<g><path style="opacity:1" fill="#010101" d="M 2094.5,866.5 C 2169.49,909.632 2233.99,965.299 2288,1033.5C 2315.49,1069.88 2336.33,1109.88 2350.5,1153.5C 2350.5,1217.17 2350.5,1280.83 2350.5,1344.5C 2336.5,1388.5 2315.67,1428.84 2288,1465.5C 2246.2,1518.3 2197.7,1563.8 2142.5,1602C 2062.62,1656.11 1976.96,1699.44 1885.5,1732C 1772.17,1772.58 1655.84,1800.75 1536.5,1816.5C 1542.27,1811.91 1547.94,1807.07 1553.5,1802C 1556.17,1800.67 1558.83,1799.33 1561.5,1798C 1576.02,1786.3 1590.36,1774.47 1604.5,1762.5C 1735.92,1740.08 1862.25,1701.25 1983.5,1646C 2055.1,1612.73 2120.77,1570.73 2180.5,1520C 2221.11,1484.5 2254.95,1443.67 2282,1397.5C 2326.8,1316.94 2333.8,1233.27 2303,1146.5C 2283.68,1098.55 2256.35,1055.88 2221,1018.5C 2180.67,976.627 2136.17,940.293 2087.5,909.5C 2087.33,906.15 2087.5,902.817 2088,899.5C 2091.27,888.732 2093.44,877.732 2094.5,866.5 Z"/></g>
<g><path style="opacity:1" fill="#949dbb" d="M 402.5,867.5 C 408.794,870.114 411.794,874.781 411.5,881.5C 413.833,881.5 416.167,881.5 418.5,881.5C 418.337,883.857 418.503,886.19 419,888.5C 422.369,892.037 425.869,895.371 429.5,898.5C 411.699,909.905 394.032,921.572 376.5,933.5C 375.596,932.791 375.263,931.791 375.5,930.5C 373.5,930.5 371.5,930.5 369.5,930.5C 369.662,928.473 369.495,926.473 369,924.5C 363,918.5 357,912.5 351,906.5C 350.79,904.942 350.29,903.609 349.5,902.5C 366.33,889.688 383.997,878.022 402.5,867.5 Z"/></g>
<g><path style="opacity:1" fill="#8a94b5" d="M 349.5,902.5 C 350.29,903.609 350.79,904.942 351,906.5C 357,912.5 363,918.5 369,924.5C 369.495,926.473 369.662,928.473 369.5,930.5C 371.5,930.5 373.5,930.5 375.5,930.5C 375.263,931.791 375.596,932.791 376.5,933.5C 363.205,943.488 349.872,953.488 336.5,963.5C 330.591,959.098 325.091,954.098 320,948.5C 318.936,942.738 316.102,937.904 311.5,934C 310.906,933.536 310.239,933.369 309.5,933.5C 322.238,922.433 335.571,912.1 349.5,902.5 Z"/></g>
<g><path style="opacity:1" fill="#7d88ac" d="M 309.5,933.5 C 310.239,933.369 310.906,933.536 311.5,934C 316.102,937.904 318.936,942.738 320,948.5C 325.091,954.098 330.591,959.098 336.5,963.5C 327.027,972.135 317.36,980.635 307.5,989C 297.965,998.702 288.298,1008.2 278.5,1017.5C 272.925,1014.44 270.091,1009.77 270,1003.5C 264.295,997.293 258.128,991.627 251.5,986.5C 269.609,967.386 288.942,949.72 309.5,933.5 Z"/></g>
<g><path style="opacity:1" fill="#fcfcfc" d="M 1575.5,972.5 C 1664.83,972.333 1754.17,972.5 1843.5,973C 1882.47,973.393 1919.47,982.059 1954.5,999C 2013.29,1032.58 2042.96,1083.58 2043.5,1152C 2042.35,1259.33 1997.35,1342.33 1908.5,1401C 1874.06,1420.7 1837.06,1432.37 1797.5,1436C 1784.51,1437.18 1771.51,1438.18 1758.5,1439C 1718.5,1439.5 1678.5,1439.67 1638.5,1439.5C 1630.12,1486.23 1621.29,1532.9 1612,1579.5C 1611.02,1587.81 1606.52,1592.97 1598.5,1595C 1552.5,1595.67 1506.5,1595.67 1460.5,1595C 1453.06,1591.79 1449.06,1586.12 1448.5,1578C 1486.57,1381.15 1524.74,1184.32 1563,987.5C 1564.85,980.414 1569.02,975.414 1575.5,972.5 Z"/></g>
<g><path style="opacity:1" fill="#686868" d="M 1218.5,986.5 C 1218.5,987.5 1218.5,988.5 1218.5,989.5C 1261.34,989.168 1304,989.501 1346.5,990.5C 1303.5,990.5 1260.5,990.5 1217.5,990.5C 1217.23,988.901 1217.57,987.568 1218.5,986.5 Z"/></g>
<g><path style="opacity:1" fill="#000000" d="M 587.5,989.5 C 674.167,989.333 760.834,989.5 847.5,990C 887.068,990.71 924.401,1000.04 959.5,1018C 1009.43,1049.62 1033.76,1095.29 1032.5,1155C 1030.57,1257.91 986.238,1336.24 899.5,1390C 860.521,1409.54 819.187,1419.88 775.5,1421C 727.497,1421.17 679.497,1421.67 631.5,1422.5C 620.858,1474.38 610.858,1526.38 601.5,1578.5C 558.833,1578.5 516.167,1578.5 473.5,1578.5C 511.243,1382.12 549.243,1185.79 587.5,989.5 Z"/></g>
<g><path style="opacity:1" fill="#000000" d="M 1746.5,1421.5 C 1707.82,1420.84 1669.49,1421.51 1631.5,1423.5C 1621.59,1474.85 1611.59,1526.19 1601.5,1577.5C 1559.17,1577.5 1516.83,1577.5 1474.5,1577.5C 1474.5,1576.5 1474.5,1575.5 1474.5,1574.5C 1512.29,1379.53 1549.96,1184.53 1587.5,989.5C 1674.5,989.333 1761.5,989.5 1848.5,990C 1882.5,990.999 1915.17,997.999 1946.5,1011C 2004.95,1040.87 2033.62,1088.87 2032.5,1155C 2031.1,1256.18 1988.1,1333.84 1903.5,1388C 1874.1,1404.02 1842.77,1414.02 1809.5,1418C 1788.58,1420.54 1767.58,1421.7 1746.5,1421.5 Z"/></g>
<g><path style="opacity:1" fill="#6d7ca3" d="M 251.5,986.5 C 258.128,991.627 264.295,997.293 270,1003.5C 270.091,1009.77 272.925,1014.44 278.5,1017.5C 257.979,1040.22 239.645,1064.55 223.5,1090.5C 222.883,1090.39 222.383,1090.06 222,1089.5C 221.505,1087.53 221.338,1085.53 221.5,1083.5C 219.5,1083.5 217.5,1083.5 215.5,1083.5C 215.5,1081.5 215.5,1079.5 215.5,1077.5C 213.5,1077.5 211.5,1077.5 209.5,1077.5C 209.663,1075.14 209.497,1072.81 209,1070.5C 204.574,1065.57 199.74,1061.23 194.5,1057.5C 211.35,1032.15 230.35,1008.48 251.5,986.5 Z"/></g>
<g><path style="opacity:1" fill="#60729b" d="M 194.5,1057.5 C 199.74,1061.23 204.574,1065.57 209,1070.5C 209.497,1072.81 209.663,1075.14 209.5,1077.5C 211.5,1077.5 213.5,1077.5 215.5,1077.5C 215.5,1079.5 215.5,1081.5 215.5,1083.5C 217.5,1083.5 219.5,1083.5 221.5,1083.5C 221.338,1085.53 221.505,1087.53 222,1089.5C 222.383,1090.06 222.883,1090.39 223.5,1090.5C 210.048,1113.07 199.048,1136.73 190.5,1161.5C 189.971,1157.41 187.804,1154.75 184,1153.5C 183.505,1151.53 183.338,1149.53 183.5,1147.5C 181.323,1147.41 179.323,1146.75 177.5,1145.5C 174.898,1142.27 172.398,1138.94 170,1135.5C 166.263,1134.71 164.43,1132.37 164.5,1128.5C 160.5,1129.17 158.833,1127.5 159.5,1123.5C 168.655,1100.05 180.321,1078.05 194.5,1057.5 Z"/></g>
<g><path style="opacity:1" fill="#b8b8b8" d="M 1797.5,1083.5 C 1764.09,1083.17 1730.76,1083.51 1697.5,1084.5C 1713.82,1083.17 1730.49,1082.5 1747.5,1082.5C 1764.34,1082.5 1781,1082.83 1797.5,1083.5 Z"/></g>
<g><path style="opacity:1" fill="#fbfbfb" d="M 739.5,1328.5 C 709.833,1328.5 680.167,1328.5 650.5,1328.5C 650.5,1327.5 650.5,1326.5 650.5,1325.5C 665.782,1244.42 681.449,1163.42 697.5,1082.5C 732.835,1082.33 768.168,1082.5 803.5,1083C 827.465,1083.55 850.132,1089.21 871.5,1100C 885.384,1109.58 893.884,1122.75 897,1139.5C 901.436,1185.65 892.436,1228.99 870,1269.5C 856.632,1291.53 837.798,1307.03 813.5,1316C 789.553,1324.3 764.887,1328.47 739.5,1328.5 Z"/></g>
<g><path style="opacity:1" fill="#fafbfb" d="M 1797.5,1083.5 C 1824.52,1082.4 1849.85,1088.23 1873.5,1101C 1887.16,1111.48 1895.33,1125.31 1898,1142.5C 1901.14,1185.83 1892.81,1226.83 1873,1265.5C 1853.33,1298.78 1824.16,1318.28 1785.5,1324C 1775.88,1325.72 1766.22,1327.06 1756.5,1328C 1721.18,1329.36 1685.85,1329.86 1650.5,1329.5C 1665.52,1247.71 1681.19,1166.04 1697.5,1084.5C 1730.76,1083.51 1764.09,1083.17 1797.5,1083.5 Z"/></g>
<g><path style="opacity:1" fill="#6e81b6" d="M 711.5,1100.5 C 747.518,1100.11 783.518,1100.61 819.5,1102C 834.641,1103.7 848.975,1108.03 862.5,1115C 873.773,1124.04 879.94,1135.87 881,1150.5C 882.164,1189.53 873.497,1226.2 855,1260.5C 840.771,1283.04 820.604,1297.54 794.5,1304C 783.571,1306.32 772.571,1308.32 761.5,1310C 731.522,1311.4 701.522,1311.9 671.5,1311.5C 684.319,1241.07 697.652,1170.74 711.5,1100.5 Z"/></g>
<g><path style="opacity:1" fill="#6e81b6" d="M 1711.5,1100.5 C 1748.18,1100.11 1784.85,1100.61 1821.5,1102C 1836.71,1104.07 1851.05,1108.74 1864.5,1116C 1872.6,1122.71 1877.77,1131.21 1880,1141.5C 1883.78,1184.05 1875.45,1224.05 1855,1261.5C 1841.46,1283.03 1822.29,1296.86 1797.5,1303C 1783.07,1306.94 1768.4,1309.61 1753.5,1311C 1726.17,1311.5 1698.84,1311.67 1671.5,1311.5C 1684.83,1241.16 1698.17,1170.83 1711.5,1100.5 Z"/></g>
<g><path style="opacity:1" fill="#798aac" d="M 159.5,1123.5 C 158.833,1127.5 160.5,1129.17 164.5,1128.5C 164.43,1132.37 166.263,1134.71 170,1135.5C 172.398,1138.94 174.898,1142.27 177.5,1145.5C 179.323,1146.75 181.323,1147.41 183.5,1147.5C 183.338,1149.53 183.505,1151.53 184,1153.5C 187.804,1154.75 189.971,1157.41 190.5,1161.5C 190.598,1163.55 189.931,1165.22 188.5,1166.5C 187.254,1163.78 185.087,1162.11 182,1161.5C 180.598,1157.13 178.431,1153.3 175.5,1150C 171.706,1149.54 169.039,1147.54 167.5,1144C 166.062,1143.78 164.729,1143.28 163.5,1142.5C 161.732,1138.4 158.732,1135.73 154.5,1134.5C 155.928,1130.65 157.594,1126.98 159.5,1123.5 Z"/></g>
<g><path style="opacity:1" fill="#373737" d="M 2350.5,1153.5 C 2351.92,1155.51 2352.59,1157.85 2352.5,1160.5C 2352.5,1219.5 2352.5,1278.5 2352.5,1337.5C 2352.28,1340.07 2351.61,1342.4 2350.5,1344.5C 2350.5,1280.83 2350.5,1217.17 2350.5,1153.5 Z"/></g>
<g><path style="opacity:1" fill="#5b6c94" d="M 154.5,1134.5 C 158.732,1135.73 161.732,1138.4 163.5,1142.5C 164.729,1143.28 166.062,1143.78 167.5,1144C 169.039,1147.54 171.706,1149.54 175.5,1150C 178.431,1153.3 180.598,1157.13 182,1161.5C 185.087,1162.11 187.254,1163.78 188.5,1166.5C 178.141,1203.5 174.808,1241.16 178.5,1279.5C 177.539,1277.74 177.205,1275.74 177.5,1273.5C 175.833,1273.5 174.167,1273.5 172.5,1273.5C 172.5,1271.5 172.5,1269.5 172.5,1267.5C 168.5,1267.5 164.5,1267.5 160.5,1267.5C 160.5,1265.5 160.5,1263.5 160.5,1261.5C 158.5,1261.5 156.5,1261.5 154.5,1261.5C 154.826,1252.65 154.493,1243.98 153.5,1235.5C 153.5,1203.17 153.5,1170.83 153.5,1138.5C 153.833,1137.17 154.167,1135.83 154.5,1134.5 Z"/></g>
<g><path style="opacity:1" fill="#606060" d="M 2352.5,1160.5 C 2353.92,1162.51 2354.59,1164.85 2354.5,1167.5C 2354.5,1222.17 2354.5,1276.83 2354.5,1331.5C 2354.12,1333.7 2353.46,1335.7 2352.5,1337.5C 2352.5,1278.5 2352.5,1219.5 2352.5,1160.5 Z"/></g>
<g><path style="opacity:1" fill="#949eb5" d="M 151.5,1144.5 C 151.5,1214.17 151.5,1283.83 151.5,1353.5C 150.262,1351.79 149.595,1349.79 149.5,1347.5C 149.5,1281.83 149.5,1216.17 149.5,1150.5C 149.595,1148.21 150.262,1146.21 151.5,1144.5 Z"/></g>
<g><path style="opacity:1" fill="#898989" d="M 2354.5,1167.5 C 2355.66,1170.27 2356.32,1173.27 2356.5,1176.5C 2356.5,1225.5 2356.5,1274.5 2356.5,1323.5C 2356.2,1326.37 2355.53,1329.04 2354.5,1331.5C 2354.5,1276.83 2354.5,1222.17 2354.5,1167.5 Z"/></g>
<g><path style="opacity:1" fill="#b9b9b9" d="M 2356.5,1176.5 C 2358.02,1179.53 2358.85,1182.87 2359,1186.5C 2359.67,1229.17 2359.67,1271.83 2359,1314.5C 2358.16,1317.63 2357.33,1320.63 2356.5,1323.5C 2356.5,1274.5 2356.5,1225.5 2356.5,1176.5 Z"/></g>
<g><path style="opacity:1" fill="#c4c9d6" d="M 147.5,1156.5 C 147.5,1217.83 147.5,1279.17 147.5,1340.5C 146.076,1338.49 145.41,1336.15 145.5,1333.5C 145.5,1276.83 145.5,1220.17 145.5,1163.5C 145.927,1160.99 146.593,1158.66 147.5,1156.5 Z"/></g>
<g><path style="opacity:1" fill="#7a86a3" d="M 153.5,1138.5 C 153.5,1170.83 153.5,1203.17 153.5,1235.5C 153.5,1276.83 153.5,1318.17 153.5,1359.5C 152.262,1357.79 151.595,1355.79 151.5,1353.5C 151.5,1283.83 151.5,1214.17 151.5,1144.5C 151.595,1142.21 152.262,1140.21 153.5,1138.5 Z"/></g>
<g><path style="opacity:1" fill="#dee1e8" d="M 145.5,1163.5 C 145.5,1220.17 145.5,1276.83 145.5,1333.5C 144.732,1332.74 144.232,1331.74 144,1330.5C 143.333,1276.5 143.333,1222.5 144,1168.5C 144.198,1166.62 144.698,1164.95 145.5,1163.5 Z"/></g>
<g><path style="opacity:1" fill="#5f6b8c" d="M 153.5,1235.5 C 154.493,1243.98 154.826,1252.65 154.5,1261.5C 156.5,1261.5 158.5,1261.5 160.5,1261.5C 160.5,1263.5 160.5,1265.5 160.5,1267.5C 164.5,1267.5 168.5,1267.5 172.5,1267.5C 172.5,1269.5 172.5,1271.5 172.5,1273.5C 174.167,1273.5 175.833,1273.5 177.5,1273.5C 177.205,1275.74 177.539,1277.74 178.5,1279.5C 183.219,1318.72 194.886,1355.72 213.5,1390.5C 210.167,1390.5 206.833,1390.5 203.5,1390.5C 203.5,1388.5 203.5,1386.5 203.5,1384.5C 201.5,1384.5 199.5,1384.5 197.5,1384.5C 197.5,1380.17 197.5,1375.83 197.5,1371.5C 191.5,1371.5 185.5,1371.5 179.5,1371.5C 179.5,1369.5 179.5,1367.5 179.5,1365.5C 177.167,1365.5 174.833,1365.5 172.5,1365.5C 172.5,1361.5 172.5,1357.5 172.5,1353.5C 166.5,1353.5 160.5,1353.5 154.5,1353.5C 154.5,1356.5 154.5,1359.5 154.5,1362.5C 153.596,1361.79 153.263,1360.79 153.5,1359.5C 153.5,1318.17 153.5,1276.83 153.5,1235.5 Z"/></g>
<g><path style="opacity:1" fill="#aab1c4" d="M 149.5,1150.5 C 149.5,1216.17 149.5,1281.83 149.5,1347.5C 148.076,1345.49 147.41,1343.15 147.5,1340.5C 147.5,1279.17 147.5,1217.83 147.5,1156.5C 147.595,1154.21 148.262,1152.21 149.5,1150.5 Z"/></g>
<g><path style="opacity:1" fill="#838383" d="M 650.5,1325.5 C 650.5,1326.5 650.5,1327.5 650.5,1328.5C 680.167,1328.5 709.833,1328.5 739.5,1328.5C 709.671,1329.5 679.671,1329.83 649.5,1329.5C 649.232,1327.9 649.566,1326.57 650.5,1325.5 Z"/></g>
<g><path style="opacity:1" fill="#606b87" d="M 213.5,1390.5 C 235.748,1431.43 263.748,1468.1 297.5,1500.5C 294.833,1500.5 292.167,1500.5 289.5,1500.5C 289.5,1498.5 289.5,1496.5 289.5,1494.5C 285.5,1494.5 281.5,1494.5 277.5,1494.5C 277.5,1492.5 277.5,1490.5 277.5,1488.5C 273.167,1488.5 268.833,1488.5 264.5,1488.5C 264.5,1486.5 264.5,1484.5 264.5,1482.5C 260.5,1482.5 256.5,1482.5 252.5,1482.5C 252.5,1480.5 252.5,1478.5 252.5,1476.5C 250.5,1476.5 248.5,1476.5 246.5,1476.5C 246.5,1474.17 246.5,1471.83 246.5,1469.5C 242.5,1469.5 238.5,1469.5 234.5,1469.5C 234.5,1467.5 234.5,1465.5 234.5,1463.5C 230.167,1463.5 225.833,1463.5 221.5,1463.5C 221.5,1461.5 221.5,1459.5 221.5,1457.5C 217.5,1457.5 213.5,1457.5 209.5,1457.5C 209.5,1455.5 209.5,1453.5 209.5,1451.5C 207.5,1451.5 205.5,1451.5 203.5,1451.5C 203.5,1449.5 203.5,1447.5 203.5,1445.5C 201.585,1445.22 199.919,1445.55 198.5,1446.5C 180.045,1420.65 165.378,1392.65 154.5,1362.5C 154.5,1359.5 154.5,1356.5 154.5,1353.5C 160.5,1353.5 166.5,1353.5 172.5,1353.5C 172.5,1357.5 172.5,1361.5 172.5,1365.5C 174.833,1365.5 177.167,1365.5 179.5,1365.5C 179.5,1367.5 179.5,1369.5 179.5,1371.5C 185.5,1371.5 191.5,1371.5 197.5,1371.5C 197.5,1375.83 197.5,1380.17 197.5,1384.5C 199.5,1384.5 201.5,1384.5 203.5,1384.5C 203.5,1386.5 203.5,1388.5 203.5,1390.5C 206.833,1390.5 210.167,1390.5 213.5,1390.5 Z"/></g>
<g><path style="opacity:1" fill="#999999" d="M 1450.5,1418.5 C 1450.5,1419.83 1450.5,1421.17 1450.5,1422.5C 1407,1422.83 1363.66,1422.5 1320.5,1421.5C 1363.5,1421.5 1406.5,1421.5 1449.5,1421.5C 1449.26,1420.21 1449.6,1419.21 1450.5,1418.5 Z"/></g>
<g><path style="opacity:1" fill="#999999" d="M 1746.5,1421.5 C 1708.26,1422.17 1669.93,1422.84 1631.5,1423.5C 1669.49,1421.51 1707.82,1420.84 1746.5,1421.5 Z"/></g>
<g><path style="opacity:1" fill="#606880" d="M 297.5,1500.5 C 310.368,1512.87 323.701,1524.7 337.5,1536C 386.192,1574.16 438.192,1607.33 493.5,1635.5C 488.489,1635.67 483.489,1635.5 478.5,1635C 471.235,1630.28 463.235,1628.28 454.5,1629C 447.235,1624.28 439.235,1622.28 430.5,1623C 428.833,1621.33 427.167,1619.67 425.5,1618C 420.833,1617.67 416.167,1617.33 411.5,1617C 404.134,1611.5 395.801,1609.17 386.5,1610C 384.833,1608.33 383.167,1606.67 381.5,1605C 377.167,1604.67 372.833,1604.33 368.5,1604C 366.833,1602.33 365.167,1600.67 363.5,1599C 361.167,1598.67 358.833,1598.33 356.5,1598C 354.833,1596.33 353.167,1594.67 351.5,1593C 349.288,1592.21 347.288,1592.38 345.5,1593.5C 294.718,1557.22 249.884,1514.55 211,1465.5C 206.585,1459.27 202.418,1452.93 198.5,1446.5C 199.919,1445.55 201.585,1445.22 203.5,1445.5C 203.5,1447.5 203.5,1449.5 203.5,1451.5C 205.5,1451.5 207.5,1451.5 209.5,1451.5C 209.5,1453.5 209.5,1455.5 209.5,1457.5C 213.5,1457.5 217.5,1457.5 221.5,1457.5C 221.5,1459.5 221.5,1461.5 221.5,1463.5C 225.833,1463.5 230.167,1463.5 234.5,1463.5C 234.5,1465.5 234.5,1467.5 234.5,1469.5C 238.5,1469.5 242.5,1469.5 246.5,1469.5C 246.5,1471.83 246.5,1474.17 246.5,1476.5C 248.5,1476.5 250.5,1476.5 252.5,1476.5C 252.5,1478.5 252.5,1480.5 252.5,1482.5C 256.5,1482.5 260.5,1482.5 264.5,1482.5C 264.5,1484.5 264.5,1486.5 264.5,1488.5C 268.833,1488.5 273.167,1488.5 277.5,1488.5C 277.5,1490.5 277.5,1492.5 277.5,1494.5C 281.5,1494.5 285.5,1494.5 289.5,1494.5C 289.5,1496.5 289.5,1498.5 289.5,1500.5C 292.167,1500.5 294.833,1500.5 297.5,1500.5 Z"/></g>
<g><path style="opacity:1" fill="#333333" d="M 1474.5,1574.5 C 1474.5,1575.5 1474.5,1576.5 1474.5,1577.5C 1516.83,1577.5 1559.17,1577.5 1601.5,1577.5C 1559,1578.5 1516.34,1578.83 1473.5,1578.5C 1473.23,1576.9 1473.57,1575.57 1474.5,1574.5 Z"/></g>
<g><path style="opacity:1" fill="#5f667a" d="M 493.5,1635.5 C 551.984,1663.77 611.984,1688.1 673.5,1708.5C 657.497,1708.67 641.497,1708.5 625.5,1708C 621.63,1706.71 617.964,1705.05 614.5,1703C 597.833,1702.67 581.167,1702.33 564.5,1702C 562.833,1700.33 561.167,1698.67 559.5,1697C 548.992,1696.17 538.658,1696.34 528.5,1697.5C 463.493,1669.18 402.493,1634.52 345.5,1593.5C 347.288,1592.38 349.288,1592.21 351.5,1593C 353.167,1594.67 354.833,1596.33 356.5,1598C 358.833,1598.33 361.167,1598.67 363.5,1599C 365.167,1600.67 366.833,1602.33 368.5,1604C 372.833,1604.33 377.167,1604.67 381.5,1605C 383.167,1606.67 384.833,1608.33 386.5,1610C 395.801,1609.17 404.134,1611.5 411.5,1617C 416.167,1617.33 420.833,1617.67 425.5,1618C 427.167,1619.67 428.833,1621.33 430.5,1623C 439.235,1622.28 447.235,1624.28 454.5,1629C 463.235,1628.28 471.235,1630.28 478.5,1635C 483.489,1635.5 488.489,1635.67 493.5,1635.5 Z"/></g>
<g><path style="opacity:1" fill="#5d6274" d="M 528.5,1697.5 C 538.658,1696.34 548.992,1696.17 559.5,1697C 561.167,1698.67 562.833,1700.33 564.5,1702C 581.167,1702.33 597.833,1702.67 614.5,1703C 617.964,1705.05 621.63,1706.71 625.5,1708C 641.497,1708.5 657.497,1708.67 673.5,1708.5C 726.935,1725.36 780.935,1739.69 835.5,1751.5C 823.167,1751.5 810.833,1751.5 798.5,1751.5C 798.5,1753.83 798.5,1756.17 798.5,1758.5C 764.329,1758.17 730.329,1758.5 696.5,1759.5C 639.055,1742.58 583.055,1721.91 528.5,1697.5 Z"/></g>
<g><path style="opacity:1" fill="#5b5f6e" d="M 835.5,1751.5 C 870.16,1758.5 904.827,1764.83 939.5,1770.5C 939.5,1772.5 939.5,1774.5 939.5,1776.5C 929.167,1776.5 918.833,1776.5 908.5,1776.5C 908.5,1778.5 908.5,1780.5 908.5,1782.5C 896.167,1782.5 883.833,1782.5 871.5,1782.5C 871.5,1784.5 871.5,1786.5 871.5,1788.5C 855.167,1788.5 838.833,1788.5 822.5,1788.5C 822.5,1789.5 822.5,1790.5 822.5,1791.5C 779.917,1783.02 737.917,1772.35 696.5,1759.5C 730.329,1758.5 764.329,1758.17 798.5,1758.5C 798.5,1756.17 798.5,1753.83 798.5,1751.5C 810.833,1751.5 823.167,1751.5 835.5,1751.5 Z"/></g>
<g><path style="opacity:1" fill="#0e0e0f" d="M 1604.5,1762.5 C 1590.36,1774.47 1576.02,1786.3 1561.5,1798C 1558.83,1799.33 1556.17,1800.67 1553.5,1802C 1547.94,1807.07 1542.27,1811.91 1536.5,1816.5C 1526.89,1818.12 1517.22,1819.46 1507.5,1820.5C 1505.8,1820.66 1504.13,1820.49 1502.5,1820C 1508.66,1817.5 1513.99,1813.83 1518.5,1809C 1521.34,1807.08 1524.34,1805.41 1527.5,1804C 1543.6,1792.3 1559.26,1780.13 1574.5,1767.5C 1584.52,1766 1594.52,1764.33 1604.5,1762.5 Z"/></g>
<g><path style="opacity:1" fill="#1a1a1b" d="M 1574.5,1767.5 C 1559.26,1780.13 1543.6,1792.3 1527.5,1804C 1524.34,1805.41 1521.34,1807.08 1518.5,1809C 1513.99,1813.83 1508.66,1817.5 1502.5,1820C 1504.13,1820.49 1505.8,1820.66 1507.5,1820.5C 1495.73,1822.6 1483.73,1823.94 1471.5,1824.5C 1470.13,1824.66 1468.79,1824.49 1467.5,1824C 1469.17,1822.33 1470.83,1820.67 1472.5,1819C 1478.19,1815.49 1483.52,1811.49 1488.5,1807C 1504.12,1799.4 1518.12,1789.4 1530.5,1777C 1533.44,1776.86 1535.78,1775.69 1537.5,1773.5C 1549.79,1771.13 1562.12,1769.13 1574.5,1767.5 Z"/></g>
<g><path style="opacity:1" fill="#262628" d="M 1537.5,1773.5 C 1535.78,1775.69 1533.44,1776.86 1530.5,1777C 1518.12,1789.4 1504.12,1799.4 1488.5,1807C 1483.52,1811.49 1478.19,1815.49 1472.5,1819C 1470.83,1820.67 1469.17,1822.33 1467.5,1824C 1468.79,1824.49 1470.13,1824.66 1471.5,1824.5C 1467.37,1825.48 1463.03,1825.82 1458.5,1825.5C 1450.17,1825.5 1441.83,1825.5 1433.5,1825.5C 1440.55,1819.12 1448.55,1813.96 1457.5,1810C 1472.72,1798.9 1488.06,1788.07 1503.5,1777.5C 1514.84,1776.17 1526.18,1774.83 1537.5,1773.5 Z"/></g>
<g><path style="opacity:1" fill="#575a67" d="M 939.5,1770.5 C 993.475,1777.94 1047.47,1783.94 1101.5,1788.5C 1098.21,1789.26 1095.55,1791.1 1093.5,1794C 1088.83,1794.33 1084.17,1794.67 1079.5,1795C 1077.83,1796.67 1076.17,1798.33 1074.5,1800C 1066.66,1798.72 1060.33,1801.05 1055.5,1807C 1046.77,1806.28 1038.77,1808.28 1031.5,1813C 1027.17,1813.33 1022.83,1813.67 1018.5,1814C 1016.83,1815.67 1015.17,1817.33 1013.5,1819C 1006.83,1819.33 1000.17,1819.67 993.5,1820C 994.416,1820.28 995.082,1820.78 995.5,1821.5C 937.187,1814.39 879.52,1804.39 822.5,1791.5C 822.5,1790.5 822.5,1789.5 822.5,1788.5C 838.833,1788.5 855.167,1788.5 871.5,1788.5C 871.5,1786.5 871.5,1784.5 871.5,1782.5C 883.833,1782.5 896.167,1782.5 908.5,1782.5C 908.5,1780.5 908.5,1778.5 908.5,1776.5C 918.833,1776.5 929.167,1776.5 939.5,1776.5C 939.5,1774.5 939.5,1772.5 939.5,1770.5 Z"/></g>
<g><path style="opacity:1" fill="#333437" d="M 1503.5,1777.5 C 1488.06,1788.07 1472.72,1798.9 1457.5,1810C 1448.55,1813.96 1440.55,1819.12 1433.5,1825.5C 1420.82,1825.83 1408.15,1825.5 1395.5,1824.5C 1395.67,1824.17 1395.83,1823.83 1396,1823.5C 1404.59,1817.96 1413.43,1812.8 1422.5,1808C 1428.54,1802.98 1435.2,1798.98 1442.5,1796C 1447.88,1790.42 1453.88,1785.92 1460.5,1782.5C 1474.84,1780.91 1489.18,1779.24 1503.5,1777.5 Z"/></g>
<g><path style="opacity:1" fill="#3c3c40" d="M 1460.5,1782.5 C 1453.88,1785.92 1447.88,1790.42 1442.5,1796C 1435.2,1798.98 1428.54,1802.98 1422.5,1808C 1413.43,1812.8 1404.59,1817.96 1396,1823.5C 1395.83,1823.83 1395.67,1824.17 1395.5,1824.5C 1408.15,1825.5 1420.82,1825.83 1433.5,1825.5C 1441.83,1825.5 1450.17,1825.5 1458.5,1825.5C 1455.71,1826.48 1452.71,1826.81 1449.5,1826.5C 1431.17,1826.5 1412.83,1826.5 1394.5,1826.5C 1384.01,1825.51 1373.35,1825.17 1362.5,1825.5C 1363.57,1824.12 1364.91,1822.95 1366.5,1822C 1374.93,1818.62 1382.6,1813.95 1389.5,1808C 1394.74,1804.55 1400.41,1801.88 1406.5,1800C 1412.81,1794.5 1419.48,1789.67 1426.5,1785.5C 1437.85,1784.72 1449.19,1783.72 1460.5,1782.5 Z"/></g>
<g><path style="opacity:1" fill="#545660" d="M 1101.5,1788.5 C 1126.35,1789.24 1151.02,1790.57 1175.5,1792.5C 1168.34,1793.86 1161,1794.7 1153.5,1795C 1151.83,1796.67 1150.17,1798.33 1148.5,1800C 1146.17,1800.33 1143.83,1800.67 1141.5,1801C 1136.67,1806.95 1130.34,1809.28 1122.5,1808C 1120.83,1809.67 1119.17,1811.33 1117.5,1813C 1112.83,1813.33 1108.17,1813.67 1103.5,1814C 1101.83,1815.67 1100.17,1817.33 1098.5,1819C 1094.17,1819.33 1089.83,1819.67 1085.5,1820C 1083.83,1821.67 1082.17,1823.33 1080.5,1825C 1135.83,1825.5 1191.17,1825.67 1246.5,1825.5C 1285.17,1825.5 1323.83,1825.5 1362.5,1825.5C 1373.35,1825.17 1384.01,1825.51 1394.5,1826.5C 1278.83,1826.5 1163.17,1826.5 1047.5,1826.5C 1030.13,1825.27 1012.79,1823.61 995.5,1821.5C 995.082,1820.78 994.416,1820.28 993.5,1820C 1000.17,1819.67 1006.83,1819.33 1013.5,1819C 1015.17,1817.33 1016.83,1815.67 1018.5,1814C 1022.83,1813.67 1027.17,1813.33 1031.5,1813C 1038.77,1808.28 1046.77,1806.28 1055.5,1807C 1060.33,1801.05 1066.66,1798.72 1074.5,1800C 1076.17,1798.33 1077.83,1796.67 1079.5,1795C 1084.17,1794.67 1088.83,1794.33 1093.5,1794C 1095.55,1791.1 1098.21,1789.26 1101.5,1788.5 Z"/></g>
<g><path style="opacity:1" fill="#45464d" d="M 1426.5,1785.5 C 1419.48,1789.67 1412.81,1794.5 1406.5,1800C 1400.41,1801.88 1394.74,1804.55 1389.5,1808C 1382.6,1813.95 1374.93,1818.62 1366.5,1822C 1364.91,1822.95 1363.57,1824.12 1362.5,1825.5C 1323.83,1825.5 1285.17,1825.5 1246.5,1825.5C 1248.96,1820.56 1252.96,1818.39 1258.5,1819C 1260.17,1817.33 1261.83,1815.67 1263.5,1814C 1265.83,1813.67 1268.17,1813.33 1270.5,1813C 1272.17,1811.33 1273.83,1809.67 1275.5,1808C 1277.83,1807.67 1280.17,1807.33 1282.5,1807C 1284.5,1805 1286.5,1803 1288.5,1801C 1290.83,1800.67 1293.17,1800.33 1295.5,1800C 1297.17,1798.33 1298.83,1796.67 1300.5,1795C 1302.83,1794.67 1305.17,1794.33 1307.5,1794C 1308.06,1793.62 1308.39,1793.12 1308.5,1792.5C 1347.83,1790.95 1387.16,1788.62 1426.5,1785.5 Z"/></g>
<g><path style="opacity:1" fill="#4e5059" d="M 1175.5,1792.5 C 1219.83,1792.5 1264.17,1792.5 1308.5,1792.5C 1308.39,1793.12 1308.06,1793.62 1307.5,1794C 1305.17,1794.33 1302.83,1794.67 1300.5,1795C 1298.83,1796.67 1297.17,1798.33 1295.5,1800C 1293.17,1800.33 1290.83,1800.67 1288.5,1801C 1286.5,1803 1284.5,1805 1282.5,1807C 1280.17,1807.33 1277.83,1807.67 1275.5,1808C 1273.83,1809.67 1272.17,1811.33 1270.5,1813C 1268.17,1813.33 1265.83,1813.67 1263.5,1814C 1261.83,1815.67 1260.17,1817.33 1258.5,1819C 1252.96,1818.39 1248.96,1820.56 1246.5,1825.5C 1191.17,1825.67 1135.83,1825.5 1080.5,1825C 1082.17,1823.33 1083.83,1821.67 1085.5,1820C 1089.83,1819.67 1094.17,1819.33 1098.5,1819C 1100.17,1817.33 1101.83,1815.67 1103.5,1814C 1108.17,1813.67 1112.83,1813.33 1117.5,1813C 1119.17,1811.33 1120.83,1809.67 1122.5,1808C 1130.34,1809.28 1136.67,1806.95 1141.5,1801C 1143.83,1800.67 1146.17,1800.33 1148.5,1800C 1150.17,1798.33 1151.83,1796.67 1153.5,1795C 1161,1794.7 1168.34,1793.86 1175.5,1792.5 Z"/></g>
<g><path style="opacity:1" fill="#88898d" d="M 1047.5,1826.5 C 1163.17,1826.5 1278.83,1826.5 1394.5,1826.5C 1412.83,1826.5 1431.17,1826.5 1449.5,1826.5C 1442.41,1828.24 1435.08,1828.91 1427.5,1828.5C 1308.17,1828.5 1188.83,1828.5 1069.5,1828.5C 1061.94,1828.77 1054.6,1828.11 1047.5,1826.5 Z"/></g>
<g><path style="opacity:1" fill="#c6c7c9" d="M 1069.5,1828.5 C 1188.83,1828.5 1308.17,1828.5 1427.5,1828.5C 1424.69,1829.32 1421.69,1829.82 1418.5,1830C 1305.83,1830.67 1193.17,1830.67 1080.5,1830C 1076.64,1829.82 1072.98,1829.32 1069.5,1828.5 Z"/></g>
</svg>
