<?xml version="1.0" encoding="UTF-8"?>
<!DOCTYPE svg PUBLIC "-//W3C//DTD SVG 1.1//EN" "http://www.w3.org/Graphics/SVG/1.1/DTD/svg11.dtd">
<svg xmlns="http://www.w3.org/2000/svg" version="1.1" width="313px" height="156px" style="shape-rendering:geometricPrecision; text-rendering:geometricPrecision; image-rendering:optimizeQuality; fill-rule:evenodd; clip-rule:evenodd" xmlns:xlink="http://www.w3.org/1999/xlink">
<g><path style="opacity:0.953" fill="#000000" d="M 127.5,2.5 C 135.5,2.5 143.5,2.5 151.5,2.5C 149.5,12.8348 147.5,23.1681 145.5,33.5C 157.613,32.964 169.613,33.7973 181.5,36C 189.049,37.6745 193.883,42.1745 196,49.5C 196.667,54.8333 196.667,60.1667 196,65.5C 192.333,83.8333 188.667,102.167 185,120.5C 176.919,121.482 168.752,121.816 160.5,121.5C 163.933,103.834 167.433,86.1674 171,68.5C 171.667,65.5 171.667,62.5 171,59.5C 170.167,57.3333 168.667,55.8333 166.5,55C 157.953,53.5824 149.453,53.4157 141,54.5C 136.69,76.5518 132.19,98.5518 127.5,120.5C 119.5,121.833 111.5,121.833 103.5,120.5C 111.817,81.2308 119.817,41.8974 127.5,2.5 Z"/></g>
<g><path style="opacity:0.95" fill="#000000" d="M -0.5,153.5 C -0.5,151.5 -0.5,149.5 -0.5,147.5C 7.65601,109.721 15.3227,71.721 22.5,33.5C 39.5033,33.3334 56.5033,33.5001 73.5,34C 92.6723,36.3398 102.672,47.1732 103.5,66.5C 102.815,87.3765 94.1485,103.876 77.5,116C 74.0519,117.927 70.3852,119.261 66.5,120C 54.1921,121.037 41.8587,121.871 29.5,122.5C 26.9863,132.735 24.9863,143.069 23.5,153.5C 15.5,153.5 7.5,153.5 -0.5,153.5 Z M 43.5,53.5 C 53.7467,52.8557 63.7467,54.0223 73.5,57C 76.6129,60.0057 78.2795,63.6724 78.5,68C 77.8766,77.5371 75.0433,86.3704 70,94.5C 65.9796,98.3866 61.1463,100.553 55.5,101C 48.2009,102.036 40.8675,102.536 33.5,102.5C 36.366,86.0414 39.6993,69.7081 43.5,53.5 Z"/></g>
<g><path style="opacity:0.949" fill="#000000" d="M 219.5,33.5 C 238.537,33.094 257.537,33.594 276.5,35C 288.667,37.8333 296.167,45.3333 299,57.5C 302.011,80.2955 294.844,99.1288 277.5,114C 271.452,118.02 264.785,120.354 257.5,121C 246.839,121.5 236.172,121.667 225.5,121.5C 224.014,131.931 222.014,142.265 219.5,152.5C 211.528,153.498 203.528,153.831 195.5,153.5C 203.373,113.469 211.373,73.4686 219.5,33.5 Z M 239.5,53.5 C 250.075,52.8263 260.408,53.993 270.5,57C 272.487,58.3189 273.654,60.1523 274,62.5C 275.177,73.1262 273.177,83.1262 268,92.5C 263.954,98.1065 258.454,100.94 251.5,101C 244.54,102.087 237.54,102.587 230.5,102.5C 233.371,86.1444 236.371,69.8111 239.5,53.5 Z"/></g>
</svg>
