<?xml version="1.0" encoding="UTF-8"?>
<!DOCTYPE svg PUBLIC "-//W3C//DTD SVG 1.1//EN" "http://www.w3.org/Graphics/SVG/1.1/DTD/svg11.dtd">
<svg xmlns="http://www.w3.org/2000/svg" version="1.1" width="800px" height="713px" style="shape-rendering:geometricPrecision; text-rendering:geometricPrecision; image-rendering:optimizeQuality; fill-rule:evenodd; clip-rule:evenodd" xmlns:xlink="http://www.w3.org/1999/xlink">
<g><path style="opacity:0.978" fill="#00d8ff" d="M 229.5,-0.5 C 233.833,-0.5 238.167,-0.5 242.5,-0.5C 267.899,2.57655 291.899,10.4099 314.5,23C 345.335,40.7578 373.668,61.9245 399.5,86.5C 423.311,64.18 448.977,44.3467 476.5,27C 498.717,13.7668 522.384,4.60013 547.5,-0.5C 556.833,-0.5 566.167,-0.5 575.5,-0.5C 597.795,3.73996 614.629,15.74 626,35.5C 636.674,56.1913 642.674,78.1913 644,101.5C 646.067,142.4 642.233,182.733 632.5,222.5C 680.564,234.367 723.898,255.534 762.5,286C 780.852,301.475 793.186,320.642 799.5,343.5C 799.5,351.167 799.5,358.833 799.5,366.5C 793.49,388.711 781.823,407.544 764.5,423C 725.795,454.522 682.128,476.855 633.5,490C 645.231,532.816 648.731,576.316 644,620.5C 641.362,644.758 633.029,666.758 619,686.5C 605.575,701.962 588.741,710.628 568.5,712.5C 564.167,712.5 559.833,712.5 555.5,712.5C 529.744,709.081 505.41,700.914 482.5,688C 452.77,670.615 425.603,649.782 401,625.5C 369.405,656.89 333.238,681.723 292.5,700C 268.771,710.438 244.104,713.771 218.5,710C 197.133,704.958 181.299,692.791 171,673.5C 158.392,646.797 152.559,618.63 153.5,589C 154.003,556.479 158.336,524.479 166.5,493C 166.095,492.055 165.428,491.388 164.5,491C 121.63,478.896 82.2971,459.896 46.5,434C 34.9648,424.132 24.4648,413.299 15,401.5C 7.59985,390.71 2.43318,379.044 -0.5,366.5C -0.5,358.833 -0.5,351.167 -0.5,343.5C 4.96352,322.089 15.9635,303.922 32.5,289C 62.3049,263.586 95.9716,244.586 133.5,232C 144.782,228.128 156.116,224.461 167.5,221C 155.248,176.899 151.415,132.066 156,86.5C 158.414,67.2588 164.414,49.2588 174,32.5C 187.265,12.6202 205.765,1.62021 229.5,-0.5 Z M 232.5,34.5 C 248.474,35.1599 263.807,38.6599 278.5,45C 314.567,61.8537 346.567,84.3537 374.5,112.5C 350.366,138.963 328.032,166.797 307.5,196C 272.32,199.359 237.486,204.859 203,212.5C 202.055,212.095 201.388,211.428 201,210.5C 190.387,171.042 187.053,131.042 191,90.5C 192.643,75.2362 197.643,61.2362 206,48.5C 213.045,40.2299 221.878,35.5633 232.5,34.5 Z M 551.5,34.5 C 568.373,31.51 582.207,36.51 593,49.5C 602.837,67.1737 608.17,86.1737 609,106.5C 610.439,142.324 606.939,177.658 598.5,212.5C 563.059,205.426 527.392,199.76 491.5,195.5C 471.022,166.681 449.022,139.014 425.5,112.5C 453.448,84.0226 485.448,61.1892 521.5,44C 531.324,39.8848 541.324,36.7182 551.5,34.5 Z M 399.5,137.5 C 415.723,155.227 431.057,173.727 445.5,193C 414.833,192.333 384.167,192.333 353.5,193C 368.007,173.824 383.34,155.324 399.5,137.5 Z M 360.5,227.5 C 386.502,227.333 412.502,227.5 438.5,228C 449.871,228.362 461.205,229.195 472.5,230.5C 498.858,269.861 522.691,310.861 544,353.5C 544.667,354.5 544.667,355.5 544,356.5C 522.997,399.785 499.163,441.285 472.5,481C 424.338,485.455 376.171,485.622 328,481.5C 300.137,441.723 275.637,399.723 254.5,355.5C 275.678,311.618 300.011,269.785 327.5,230C 338.663,229.263 349.663,228.429 360.5,227.5 Z M 278.5,234.5 C 279.552,234.351 280.552,234.517 281.5,235C 265.197,260.43 250.03,286.597 236,313.5C 226.156,291.806 217.989,269.473 211.5,246.5C 233.823,241.726 256.156,237.726 278.5,234.5 Z M 517.5,235.5 C 541.279,237.408 564.946,241.408 588.5,247.5C 581.342,269.977 573.009,291.977 563.5,313.5C 549.149,286.778 533.815,260.778 517.5,235.5 Z M 174.5,255.5 C 175.496,255.414 176.329,255.748 177,256.5C 187.615,290.391 200.448,323.391 215.5,355.5C 200.39,388.834 187.057,422.834 175.5,457.5C 134.44,446.136 97.1068,427.636 63.5,402C 51.6137,391.794 42.447,379.627 36,365.5C 33.8284,357.397 34.1617,349.397 37,341.5C 41.8205,332.027 47.9872,323.527 55.5,316C 73.2967,300.591 92.9633,287.925 114.5,278C 134.261,269.583 154.261,262.083 174.5,255.5 Z M 622.5,255.5 C 659.139,266.093 693.472,281.593 725.5,302C 737.626,310.459 748.126,320.626 757,332.5C 767.218,348.352 766.885,364.018 756,379.5C 741.224,397.275 723.724,411.775 703.5,423C 678.698,436.658 652.698,447.491 625.5,455.5C 613.032,421.783 599.365,388.45 584.5,355.5C 599.335,322.994 612.002,289.661 622.5,255.5 Z M 563.5,396.5 C 574.086,418.69 582.752,441.69 589.5,465.5C 565.587,470.319 541.587,474.153 517.5,477C 534.236,451.035 549.57,424.201 563.5,396.5 Z M 235.5,397.5 C 249.545,424.59 264.878,450.923 281.5,476.5C 257.52,475.338 233.853,471.671 210.5,465.5C 218.053,442.502 226.387,419.836 235.5,397.5 Z M 598.5,498.5 C 599.117,498.611 599.617,498.944 600,499.5C 609.017,535.001 612.35,571.001 610,607.5C 608.793,627.784 602.793,646.451 592,663.5C 584.053,672.877 573.886,677.543 561.5,677.5C 545.396,676.141 530.062,671.974 515.5,665C 481.966,648.232 451.966,626.566 425.5,600C 449.548,573.712 471.548,545.879 491.5,516.5C 519.543,512.946 547.543,508.779 575.5,504C 583.369,502.464 591.036,500.631 598.5,498.5 Z M 200.5,500.5 C 236.228,507.604 272.228,512.937 308.5,516.5C 328.583,545.427 350.749,572.76 375,598.5C 375.667,599.5 375.667,600.5 375,601.5C 348.745,626.882 319.245,647.715 286.5,664C 268.187,673.079 248.854,677.079 228.5,676C 214.396,672.57 204.563,664.07 199,650.5C 191.668,630.854 188.168,610.52 188.5,589.5C 189.512,559.419 193.512,529.752 200.5,500.5 Z M 354.5,519.5 C 384.999,519.633 415.666,519.466 446.5,519C 432.089,538.081 416.923,556.581 401,574.5C 384.509,556.856 369.009,538.522 354.5,519.5 Z"/></g>
<g><path style="opacity:0.988" fill="#00d8ff" d="M 387.5,283.5 C 422.512,280.252 448.346,293.918 465,324.5C 477.543,357.149 471.377,385.649 446.5,410C 423.289,427.752 397.956,431.419 370.5,421C 337.52,404.209 323.686,377.376 329,340.5C 336.872,309.46 356.372,290.46 387.5,283.5 Z"/></g>
</svg>
