<?xml version="1.0" encoding="UTF-8"?>
<!DOCTYPE svg PUBLIC "-//W3C//DTD SVG 1.1//EN" "http://www.w3.org/Graphics/SVG/1.1/DTD/svg11.dtd">
<svg xmlns="http://www.w3.org/2000/svg" version="1.1" width="1600px" height="713px" style="shape-rendering:geometricPrecision; text-rendering:geometricPrecision; image-rendering:optimizeQuality; fill-rule:evenodd; clip-rule:evenodd" xmlns:xlink="http://www.w3.org/1999/xlink">
<g><path style="opacity:0.992" fill="#003b57" d="M 546.5,-0.5 C 553.833,-0.5 561.167,-0.5 568.5,-0.5C 599.083,10.5634 617.583,32.2301 624,64.5C 626.931,82.1055 627.264,99.7722 625,117.5C 621.347,141.111 615.347,164.111 607,186.5C 586.304,238.897 560.637,288.564 530,335.5C 499.101,347.033 469.267,360.866 440.5,377C 454.402,373.038 468.402,369.038 482.5,365C 493.398,361.856 504.398,359.523 515.5,358C 494.191,389.451 472.025,420.284 449,450.5C 409.931,468.236 381.764,496.402 364.5,535C 384.755,429.568 418.588,328.735 466,232.5C 494.361,172.396 527.194,116.563 564.5,65C 531.418,98.0627 502.918,134.563 479,174.5C 398.36,306.36 355.193,449.693 349.5,604.5C 349.697,636.247 354.031,667.414 362.5,698C 361.214,699.649 359.547,700.815 357.5,701.5C 348.197,676.353 343.197,650.353 342.5,623.5C 341.017,593.523 340.184,563.523 340,533.5C 336.147,508.065 330.981,483.065 324.5,458.5C 323.098,452.196 321.098,446.196 318.5,440.5C 317.566,436.627 316.066,432.961 314,429.5C 313.502,426.518 313.335,423.518 313.5,420.5C 314.315,414.458 315.315,408.458 316.5,402.5C 317.84,397.478 319.34,392.478 321,387.5C 331.195,403.557 339.528,420.557 346,438.5C 343.012,419.372 337.512,401.039 329.5,383.5C 328.62,380.738 327.454,378.071 326,375.5C 325.457,372.132 325.624,368.799 326.5,365.5C 329.351,356.795 332.517,348.129 336,339.5C 345.248,353.997 352.915,369.33 359,385.5C 356.671,368.844 352.171,352.844 345.5,337.5C 344.111,333.056 342.444,328.723 340.5,324.5C 341.285,319.787 342.285,315.121 343.5,310.5C 345.01,303.459 346.677,296.459 348.5,289.5C 350.652,282.56 352.652,275.56 354.5,268.5C 357.009,262.314 359.342,255.98 361.5,249.5C 363.507,243.49 365.507,237.49 367.5,231.5C 370.353,225.78 372.686,219.78 374.5,213.5C 378.344,206.473 381.677,199.14 384.5,191.5C 387.467,185.565 390.467,179.565 393.5,173.5C 396.5,167.5 399.5,161.5 402.5,155.5C 405.833,149.167 409.167,142.833 412.5,136.5C 416.749,129.671 420.749,122.671 424.5,115.5C 428.859,109.795 432.859,103.795 436.5,97.5C 441.523,91.1331 446.19,84.4665 450.5,77.5C 455.21,72.1233 459.543,66.4566 463.5,60.5C 467.824,55.8749 472.157,51.2082 476.5,46.5C 481.5,40.8333 486.833,35.5 492.5,30.5C 507.81,15.5106 525.81,5.17731 546.5,-0.5 Z"/></g>
<g><path style="opacity:0.995" fill="#0f80cb" d="M 492.5,30.5 C 486.833,35.5 481.5,40.8333 476.5,46.5C 332.5,46.3333 188.5,46.5 44.5,47C 36.6366,49.3849 29.97,53.5516 24.5,59.5C 20.5446,63.7403 17.878,68.7403 16.5,74.5C 15.5489,75.9187 15.2155,77.5853 15.5,79.5C 14.1715,200.027 14.1715,320.694 15.5,441.5C 15.5,447.833 15.5,454.167 15.5,460.5C 118.839,461.164 221.839,460.498 324.5,458.5C 330.981,483.065 336.147,508.065 340,533.5C 340.184,563.523 341.017,593.523 342.5,623.5C 243.499,623.667 144.499,623.5 45.5,623C 21.1794,617.843 5.84611,603.343 -0.5,579.5C -0.5,410.833 -0.5,242.167 -0.5,73.5C 5.55018,49.952 20.5502,35.7853 44.5,31C 193.833,30.5 343.166,30.3333 492.5,30.5 Z"/></g>
<g><path style="opacity:1" fill="#96d8f5" d="M 476.5,46.5 C 472.157,51.2082 467.824,55.8749 463.5,60.5C 316.999,60.833 170.666,60.4996 24.5,59.5C 29.97,53.5516 36.6366,49.3849 44.5,47C 188.5,46.5 332.5,46.3333 476.5,46.5 Z"/></g>
<g><path style="opacity:1" fill="#92d6f4" d="M 24.5,59.5 C 170.666,60.4996 316.999,60.833 463.5,60.5C 459.543,66.4566 455.21,72.1233 450.5,77.5C 305.833,77.5 161.167,77.5 16.5,77.5C 16.5,76.5 16.5,75.5 16.5,74.5C 17.878,68.7403 20.5446,63.7403 24.5,59.5 Z"/></g>
<g><path style="opacity:1" fill="#8cd2f2" d="M 16.5,74.5 C 16.5,75.5 16.5,76.5 16.5,77.5C 161.167,77.5 305.833,77.5 450.5,77.5C 446.19,84.4665 441.523,91.1331 436.5,97.5C 296.167,97.5 155.833,97.5 15.5,97.5C 15.5,91.5 15.5,85.5 15.5,79.5C 15.2155,77.5853 15.5489,75.9187 16.5,74.5 Z"/></g>
<g><path style="opacity:1" fill="#86cdf0" d="M 15.5,97.5 C 155.833,97.5 296.167,97.5 436.5,97.5C 432.859,103.795 428.859,109.795 424.5,115.5C 288.167,115.5 151.833,115.5 15.5,115.5C 15.5,109.5 15.5,103.5 15.5,97.5 Z"/></g>
<g><path style="opacity:1" fill="#7fc9ee" d="M 15.5,115.5 C 151.833,115.5 288.167,115.5 424.5,115.5C 420.749,122.671 416.749,129.671 412.5,136.5C 280.167,136.5 147.833,136.5 15.5,136.5C 15.5,129.5 15.5,122.5 15.5,115.5 Z"/></g>
<g><path style="opacity:1" fill="#79c5ec" d="M 15.5,136.5 C 147.833,136.5 280.167,136.5 412.5,136.5C 409.167,142.833 405.833,149.167 402.5,155.5C 273.5,155.5 144.5,155.5 15.5,155.5C 15.5,149.167 15.5,142.833 15.5,136.5 Z"/></g>
<g><path style="opacity:1" fill="#72c1ea" d="M 15.5,155.5 C 144.5,155.5 273.5,155.5 402.5,155.5C 399.5,161.5 396.5,167.5 393.5,173.5C 267.5,173.5 141.5,173.5 15.5,173.5C 15.5,167.5 15.5,161.5 15.5,155.5 Z"/></g>
<g><path style="opacity:1" fill="#6dbde9" d="M 15.5,173.5 C 141.5,173.5 267.5,173.5 393.5,173.5C 390.467,179.565 387.467,185.565 384.5,191.5C 261.5,191.5 138.5,191.5 15.5,191.5C 15.5,185.5 15.5,179.5 15.5,173.5 Z"/></g>
<g><path style="opacity:1" fill="#66b9e7" d="M 15.5,191.5 C 138.5,191.5 261.5,191.5 384.5,191.5C 381.677,199.14 378.344,206.473 374.5,213.5C 254.833,213.5 135.167,213.5 15.5,213.5C 15.5,206.167 15.5,198.833 15.5,191.5 Z"/></g>
<g><path style="opacity:1" fill="#60b4e4" d="M 15.5,213.5 C 135.167,213.5 254.833,213.5 374.5,213.5C 372.686,219.78 370.353,225.78 367.5,231.5C 250.167,231.5 132.833,231.5 15.5,231.5C 15.5,225.5 15.5,219.5 15.5,213.5 Z"/></g>
<g><path style="opacity:1" fill="#5ab1e3" d="M 15.5,231.5 C 132.833,231.5 250.167,231.5 367.5,231.5C 365.507,237.49 363.507,243.49 361.5,249.5C 246.167,249.5 130.833,249.5 15.5,249.5C 15.5,243.5 15.5,237.5 15.5,231.5 Z"/></g>
<g><path style="opacity:1" fill="#54ade1" d="M 15.5,249.5 C 130.833,249.5 246.167,249.5 361.5,249.5C 359.342,255.98 357.009,262.314 354.5,268.5C 241.5,268.5 128.5,268.5 15.5,268.5C 15.5,262.167 15.5,255.833 15.5,249.5 Z"/></g>
<g><path style="opacity:1" fill="#4ea9df" d="M 15.5,268.5 C 128.5,268.5 241.5,268.5 354.5,268.5C 352.652,275.56 350.652,282.56 348.5,289.5C 237.5,289.5 126.5,289.5 15.5,289.5C 15.5,282.5 15.5,275.5 15.5,268.5 Z"/></g>
<g><path style="opacity:1" fill="#47a4dd" d="M 15.5,289.5 C 126.5,289.5 237.5,289.5 348.5,289.5C 346.677,296.459 345.01,303.459 343.5,310.5C 234.167,310.5 124.833,310.5 15.5,310.5C 15.5,303.5 15.5,296.5 15.5,289.5 Z"/></g>
<g><path style="opacity:1" fill="#40a0db" d="M 15.5,310.5 C 124.833,310.5 234.167,310.5 343.5,310.5C 342.285,315.121 341.285,319.787 340.5,324.5C 232.237,325.498 123.904,325.831 15.5,325.5C 15.5,320.5 15.5,315.5 15.5,310.5 Z"/></g>
<g><path style="opacity:1" fill="#3c9dd9" d="M 340.5,324.5 C 342.444,328.723 344.111,333.056 345.5,337.5C 235.668,338.499 125.668,338.833 15.5,338.5C 15.5,334.167 15.5,329.833 15.5,325.5C 123.904,325.831 232.237,325.498 340.5,324.5 Z"/></g>
<g><path style="opacity:1" fill="#3599d7" d="M 345.5,337.5 C 352.171,352.844 356.671,368.844 359,385.5C 352.915,369.33 345.248,353.997 336,339.5C 332.517,348.129 329.351,356.795 326.5,365.5C 222.833,365.5 119.167,365.5 15.5,365.5C 15.5,356.5 15.5,347.5 15.5,338.5C 125.668,338.833 235.668,338.499 345.5,337.5 Z"/></g>
<g><path style="opacity:0.972" fill="#003a56" d="M 594.5,349.5 C 604.208,349.256 613.874,349.756 623.5,351C 635.063,353.633 646.563,356.466 658,359.5C 662.402,359.935 664.902,357.935 665.5,353.5C 668.086,352.52 670.753,352.187 673.5,352.5C 673.5,373.167 673.5,393.833 673.5,414.5C 670.5,414.5 667.5,414.5 664.5,414.5C 661.395,383.898 644.728,366.064 614.5,361C 595.237,358.53 579.071,364.363 566,378.5C 555.696,399.511 558.863,418.345 575.5,435C 590.264,448.552 606.597,459.886 624.5,469C 634.341,475.42 644.007,482.087 653.5,489C 689.268,516.571 697.434,550.737 678,591.5C 659.707,619.391 633.874,631.224 600.5,627C 583.999,623.722 567.832,619.222 552,613.5C 547.314,615.353 544.148,618.687 542.5,623.5C 539.572,624.484 536.572,624.817 533.5,624.5C 533.5,600.167 533.5,575.833 533.5,551.5C 536.5,551.5 539.5,551.5 542.5,551.5C 543.028,582.848 558.028,603.681 587.5,614C 611.742,620.899 632.576,615.399 650,597.5C 661.642,578.412 660.975,559.745 648,541.5C 641.457,534.289 634.29,527.789 626.5,522C 604.56,507.725 582.893,493.058 561.5,478C 535.663,453.173 528.497,423.673 540,389.5C 551.282,366.709 569.449,353.376 594.5,349.5 Z"/></g>
<g><path style="opacity:0.978" fill="#003a56" d="M 864.5,348.5 C 926.642,350.799 971.142,379.799 998,435.5C 1019.76,501.996 1003.59,557.162 949.5,601C 933.172,612.495 915.172,620.162 895.5,624C 910.09,641.927 925.423,659.261 941.5,676C 962.019,695.963 986.019,701.796 1013.5,693.5C 1014.35,696.16 1014.85,698.826 1015,701.5C 1000.49,707.646 985.324,710.312 969.5,709.5C 941.277,710.259 916.277,701.759 894.5,684C 875.807,664.308 856.807,644.975 837.5,626C 790.455,613.953 756.288,586.119 735,542.5C 712.849,481.945 724.683,429.112 770.5,384C 797.692,361.214 829.025,349.38 864.5,348.5 Z M 857.5,360.5 C 896.482,358.071 925.982,373.404 946,406.5C 962.118,435.088 968.785,465.754 966,498.5C 966.08,536.299 952.913,568.466 926.5,595C 900.263,615.581 870.93,621.581 838.5,613C 818.255,606.29 802.089,594.123 790,576.5C 770.698,545.956 762.698,512.623 766,476.5C 766.907,445.103 776.907,417.103 796,392.5C 812.353,373.741 832.853,363.074 857.5,360.5 Z"/></g>
<g><path style="opacity:0.976" fill="#003a56" d="M 1024.5,349.5 C 1054.83,349.5 1085.17,349.5 1115.5,349.5C 1115.7,352.518 1116.04,355.518 1116.5,358.5C 1110.04,358.818 1104.04,360.652 1098.5,364C 1094.6,368.021 1092.43,372.855 1092,378.5C 1090.87,415.814 1090.37,453.147 1090.5,490.5C 1090.34,525.225 1090.84,559.892 1092,594.5C 1095.43,602.929 1101.6,608.096 1110.5,610C 1125.79,611.566 1141.13,611.899 1156.5,611C 1165.78,609.763 1174.78,607.429 1183.5,604C 1191.63,598.249 1196.63,590.416 1198.5,580.5C 1201.43,579.516 1204.43,579.183 1207.5,579.5C 1205.96,593.523 1204.3,607.523 1202.5,621.5C 1144.84,622.5 1087.17,622.833 1029.5,622.5C 1029.5,619.5 1029.5,616.5 1029.5,613.5C 1045.16,613.67 1053.66,606.003 1055,590.5C 1055.67,519.833 1055.67,449.167 1055,378.5C 1054.08,368.247 1048.58,362.08 1038.5,360C 1034.21,359.077 1029.88,358.577 1025.5,358.5C 1025.63,355.43 1025.3,352.43 1024.5,349.5 Z"/></g>
<g><path style="opacity:1" fill="#2e94d5" d="M 15.5,365.5 C 119.167,365.5 222.833,365.5 326.5,365.5C 325.624,368.799 325.457,372.132 326,375.5C 327.454,378.071 328.62,380.738 329.5,383.5C 224.833,383.5 120.167,383.5 15.5,383.5C 15.5,377.5 15.5,371.5 15.5,365.5 Z"/></g>
<g><path style="opacity:1" fill="#2890d3" d="M 15.5,383.5 C 120.167,383.5 224.833,383.5 329.5,383.5C 337.512,401.039 343.012,419.372 346,438.5C 339.528,420.557 331.195,403.557 321,387.5C 319.34,392.478 317.84,397.478 316.5,402.5C 216.167,402.5 115.833,402.5 15.5,402.5C 15.5,396.167 15.5,389.833 15.5,383.5 Z"/></g>
<g><path style="opacity:0.961" fill="#003a56" d="M 1260.5,399.5 C 1273.14,399.302 1280.47,405.468 1282.5,418C 1281.3,428.114 1275.63,432.114 1265.5,430C 1254.08,425.956 1249.58,418.123 1252,406.5C 1253.85,402.843 1256.68,400.51 1260.5,399.5 Z"/></g>
<g><path style="opacity:1" fill="#228cd1" d="M 15.5,402.5 C 115.833,402.5 216.167,402.5 316.5,402.5C 315.315,408.458 314.315,414.458 313.5,420.5C 214.167,420.5 114.833,420.5 15.5,420.5C 15.5,414.5 15.5,408.5 15.5,402.5 Z"/></g>
<g><path style="opacity:1" fill="#1c88d0" d="M 15.5,79.5 C 15.5,85.5 15.5,91.5 15.5,97.5C 15.5,103.5 15.5,109.5 15.5,115.5C 15.5,122.5 15.5,129.5 15.5,136.5C 15.5,142.833 15.5,149.167 15.5,155.5C 15.5,161.5 15.5,167.5 15.5,173.5C 15.5,179.5 15.5,185.5 15.5,191.5C 15.5,198.833 15.5,206.167 15.5,213.5C 15.5,219.5 15.5,225.5 15.5,231.5C 15.5,237.5 15.5,243.5 15.5,249.5C 15.5,255.833 15.5,262.167 15.5,268.5C 15.5,275.5 15.5,282.5 15.5,289.5C 15.5,296.5 15.5,303.5 15.5,310.5C 15.5,315.5 15.5,320.5 15.5,325.5C 15.5,329.833 15.5,334.167 15.5,338.5C 15.5,347.5 15.5,356.5 15.5,365.5C 15.5,371.5 15.5,377.5 15.5,383.5C 15.5,389.833 15.5,396.167 15.5,402.5C 15.5,408.5 15.5,414.5 15.5,420.5C 114.833,420.5 214.167,420.5 313.5,420.5C 313.335,423.518 313.502,426.518 314,429.5C 316.066,432.961 317.566,436.627 318.5,440.5C 217.668,441.499 116.668,441.833 15.5,441.5C 14.1715,320.694 14.1715,200.027 15.5,79.5 Z"/></g>
<g><path style="opacity:0.971" fill="#003a56" d="M 1376.5,428.5 C 1379.5,428.5 1382.5,428.5 1385.5,428.5C 1385.5,441.833 1385.5,455.167 1385.5,468.5C 1399.5,468.5 1413.5,468.5 1427.5,468.5C 1428.2,472.798 1428.53,477.131 1428.5,481.5C 1414.17,481.5 1399.83,481.5 1385.5,481.5C 1385.33,518.168 1385.5,554.835 1386,591.5C 1387.45,604.593 1394.61,609.427 1407.5,606C 1412.4,604.551 1417.07,602.551 1421.5,600C 1429.25,594.924 1436.41,589.091 1443,582.5C 1445.64,584.31 1448.14,586.31 1450.5,588.5C 1437.72,604.795 1421.72,616.629 1402.5,624C 1394.31,626.345 1385.98,627.011 1377.5,626C 1368.36,623.526 1362.53,617.693 1360,608.5C 1358.54,566.197 1358.04,523.863 1358.5,481.5C 1349.17,481.5 1339.83,481.5 1330.5,481.5C 1330.22,478.552 1330.56,475.719 1331.5,473C 1356.9,468.766 1371.9,453.932 1376.5,428.5 Z"/></g>
<g><path style="opacity:1" fill="#1584cd" d="M 318.5,440.5 C 321.098,446.196 323.098,452.196 324.5,458.5C 221.839,460.498 118.839,461.164 15.5,460.5C 15.5,454.167 15.5,447.833 15.5,441.5C 116.668,441.833 217.668,441.499 318.5,440.5 Z"/></g>
<g><path style="opacity:0.97" fill="#003a56" d="M 1599.5,577.5 C 1599.5,578.167 1599.5,578.833 1599.5,579.5C 1593.63,592.737 1585.63,604.57 1575.5,615C 1561.74,623.323 1546.74,627.157 1530.5,626.5C 1500.15,626.075 1480.32,611.408 1471,582.5C 1460.2,540.504 1470.7,505.004 1502.5,476C 1525.01,461.602 1548.67,459.602 1573.5,470C 1587.67,480.725 1590.17,493.558 1581,508.5C 1557.2,534.484 1527.7,549.484 1492.5,553.5C 1497.44,596.295 1520.44,611.461 1561.5,599C 1574.49,592.847 1584.82,583.68 1592.5,571.5C 1594.85,573.523 1597.19,575.523 1599.5,577.5 Z M 1526.5,480.5 C 1548.32,484.463 1555.49,496.796 1548,517.5C 1542.31,524.853 1535.14,530.353 1526.5,534C 1515.58,538.697 1504.25,541.863 1492.5,543.5C 1491.2,523.332 1496.7,505.332 1509,489.5C 1514.03,484.737 1519.86,481.737 1526.5,480.5 Z"/></g>
<g><path style="opacity:0.977" fill="#003a56" d="M 1278.5,464.5 C 1282.83,464.5 1287.17,464.5 1291.5,464.5C 1291.05,510.189 1291.55,555.856 1293,601.5C 1294.09,605.186 1296.26,608.019 1299.5,610C 1306.69,612.028 1314.02,612.861 1321.5,612.5C 1321.5,615.5 1321.5,618.5 1321.5,621.5C 1294.17,621.5 1266.83,621.5 1239.5,621.5C 1239.5,618.5 1239.5,615.5 1239.5,612.5C 1246.31,612.775 1252.98,611.942 1259.5,610C 1261.6,607.958 1262.77,605.458 1263,602.5C 1264.57,568.185 1264.9,533.852 1264,499.5C 1263.44,489.265 1258.1,484.265 1248,484.5C 1242.12,484.881 1236.29,485.548 1230.5,486.5C 1230.21,482.894 1230.54,479.394 1231.5,476C 1247.4,472.607 1263.07,468.773 1278.5,464.5 Z"/></g>
</svg>
