<?xml version="1.0" encoding="UTF-8"?>
<!DOCTYPE svg PUBLIC "-//W3C//DTD SVG 1.1//EN" "http://www.w3.org/Graphics/SVG/1.1/DTD/svg11.dtd">
<svg xmlns="http://www.w3.org/2000/svg" version="1.1" width="169px" height="103px" style="shape-rendering:geometricPrecision; text-rendering:geometricPrecision; image-rendering:optimizeQuality; fill-rule:evenodd; clip-rule:evenodd" xmlns:xlink="http://www.w3.org/1999/xlink">
<g><path style="opacity:0.975" fill="#38bdf8" d="M 72.5,-0.5 C 80.1667,-0.5 87.8333,-0.5 95.5,-0.5C 109.403,4.19943 121.07,12.3661 130.5,24C 145.651,32.6786 158.318,29.8453 168.5,15.5C 168.5,17.1667 168.5,18.8333 168.5,20.5C 158.302,45.7784 139.635,55.2784 112.5,49C 99.7856,44.298 89.119,36.6313 80.5,26C 65.5304,16.825 52.6971,19.325 42,33.5C 44.9709,15.6965 55.1376,4.36315 72.5,-0.5 Z"/></g>
<g><path style="opacity:0.976" fill="#38bdf8" d="M -0.5,84.5 C -0.5,82.8333 -0.5,81.1667 -0.5,79.5C 8.18711,56.641 24.8538,46.8077 49.5,50C 58.9469,51.2253 67.2802,54.892 74.5,61C 80.6716,68.5131 88.0049,74.5131 96.5,79C 101.921,79.8392 107.254,79.5059 112.5,78C 117.588,74.9166 122.088,71.0833 126,66.5C 121.552,89.2585 107.552,100.925 84,101.5C 71.2801,101.263 60.1134,97.0963 50.5,89C 46.1667,84.6667 41.8333,80.3333 37.5,76C 22.3463,67.454 9.67962,70.2874 -0.5,84.5 Z"/></g>
</svg>
