<?xml version="1.0" standalone="no"?>
<!DOCTYPE svg PUBLIC "-//W3C//DTD SVG 20010904//EN"
 "http://www.w3.org/TR/2001/REC-SVG-20010904/DTD/svg10.dtd">
<svg version="1.0" xmlns="http://www.w3.org/2000/svg"
 width="387.000000pt" height="381.000000pt" viewBox="0 0 387.000000 381.000000"
 preserveAspectRatio="xMidYMid meet">

<g transform="translate(0.000000,381.000000) scale(0.100000,-0.100000)"
fill="#000000" stroke="none">
<path d="M1060 3245 c-168 -36 -346 -172 -424 -324 -80 -155 -78 -138 -87
-686 -4 -269 -12 -521 -18 -560 -5 -38 -10 -216 -10 -395 -1 -306 0 -327 19
-357 56 -93 242 -173 540 -233 80 -16 163 -36 186 -44 125 -45 194 -51 574
-51 387 0 442 5 590 55 30 11 87 24 125 31 236 38 465 121 548 198 57 52 57
54 56 393 0 172 -5 345 -10 383 -6 39 -14 295 -18 570 -9 559 -6 541 -87 696
-80 154 -257 288 -429 324 -100 21 -1457 20 -1555 0z m1535 -60 c229 -48 416
-238 460 -468 12 -65 15 -189 15 -691 l0 -612 -22 -44 c-13 -25 -38 -55 -57
-67 -31 -21 -45 -23 -178 -23 -153 0 -178 6 -220 52 -11 12 -28 40 -37 61 -37
90 -175 182 -342 229 -73 21 -100 22 -374 22 -274 0 -301 -1 -374 -22 -177
-49 -301 -136 -347 -241 -14 -34 -34 -61 -58 -77 -34 -23 -43 -24 -191 -24
-149 0 -157 1 -192 25 -71 48 -69 31 -66 760 l3 650 23 64 c37 101 66 151 129
220 90 100 213 170 333 191 25 4 356 8 735 9 571 0 702 -2 760 -14z m-509
-1766 c94 -13 181 -44 194 -69 12 -22 13 -70 2 -86 -11 -18 -62 -41 -132 -60
-54 -15 -105 -18 -305 -18 -250 0 -328 9 -408 50 -41 21 -47 31 -47 76 0 27 6
41 22 52 31 22 103 45 173 55 87 13 411 13 501 0z"/>
<path d="M1376 2359 c-102 -89 -100 -315 4 -403 70 -59 159 -18 201 92 27 72
23 186 -10 249 -48 95 -129 121 -195 62z"/>
<path d="M2274 2381 c-55 -24 -104 -127 -104 -221 0 -120 69 -230 144 -230 67
0 103 31 136 118 54 141 -9 326 -115 337 -22 3 -49 1 -61 -4z"/>
<path d="M1551 1359 c-92 -9 -122 -23 -75 -36 38 -10 690 -10 728 0 17 5 25
12 20 17 -26 26 -471 39 -673 19z"/>
</g>
</svg>
